<svg width="122" height="124" viewBox="0 0 122 124" fill="none" xmlns="http://www.w3.org/2000/svg">
<g clip-path="url(#clip0_6701_2222)">
<path d="M121.828 -0.265137L3.67603 11.8606C3.67603 11.8606 5.68638 34.8748 39.3647 65.1035L41.1836 74.6214L96.5163 69.6912L95.9993 62.8002C95.9993 62.8002 124.202 38.6629 121.808 -0.227064L121.828 -0.265137Z" fill="#DEB35C"/>
<path d="M122 53.4727L3.23572 55.2049C3.23572 55.2049 3.19742 78.3143 34.0803 111.36L35.0568 120.992C35.0568 120.992 43.7109 124 61.9956 124C80.2803 124 90.6193 120.935 90.6193 120.935L90.715 114.006C90.715 114.006 120.947 92.4388 122 53.4727Z" fill="#A7D4BD"/>
</g>
<defs>
<clipPath id="clip0_6701_2222">
<rect width="122" height="124" fill="white"/>
</clipPath>
</defs>
</svg>
