<svg width="408" height="442" viewBox="0 0 408 442" fill="none" xmlns="http://www.w3.org/2000/svg">
<g opacity="0.4">
<path d="M61.2815 15.8582C64.7682 15.9257 68.2549 16.1056 71.7416 16.0381C76.7804 15.9481 81.7968 15.8582 86.8356 16.488C89.625 16.8255 92.5043 16.488 95.3386 16.4655C95.721 16.4655 96.1259 16.2856 96.4859 16.353C101.367 17.2078 106.271 16.0831 111.152 16.6905C113.987 17.0504 116.821 17.0954 119.678 16.9604C122.782 16.8254 125.887 17.1404 128.923 17.7027C130.228 17.9502 131.443 17.9727 132.747 17.9277C138.416 17.7927 144.107 17.8377 149.686 19.1199C151.193 19.4574 152.7 19.5473 154.275 19.5923C156.434 19.6598 158.571 20.3571 160.686 20.942C162.306 21.3919 163.858 22.0442 165.432 22.6291C165.905 22.8091 166.377 23.0565 166.782 23.3714C167.637 24.0463 168.222 24.9236 167.952 26.0708C167.727 27.0156 167.03 27.6679 166.107 27.8929C163.723 28.5002 161.316 29.0626 158.819 28.6802C153.848 27.9154 148.764 28.2528 143.837 27.1281C143.455 27.0381 143.05 26.9481 142.69 27.0381C139.608 27.8029 136.549 26.8806 133.467 26.8581C130.385 26.8356 127.281 26.5207 124.199 26.3183C118.913 25.9583 113.627 25.1935 108.341 25.2835C100.31 25.4634 92.3468 24.6312 84.3387 24.5412C79.3448 24.4962 74.3285 23.7089 69.2897 23.4389C63.2161 23.124 57.1875 22.4492 51.1139 21.9993C46.4575 21.6393 41.981 20.4471 37.5045 19.2324C37.0321 19.0974 36.5822 18.805 36.1548 18.5126C35.7274 18.2426 35.8399 17.7703 36.1099 17.5453C37.3471 16.533 38.8317 16.0831 40.3839 15.9032C47.3347 15.1608 54.3081 15.3858 61.259 15.8357L61.2815 15.8582Z" fill="#DEB35C"/>
<path d="M66.7028 65.1895C69.7845 63.2999 73.1138 63.165 76.4205 63.165C84.8336 63.12 93.1791 63.8848 101.547 64.7396C106.946 65.302 112.322 65.9318 117.721 66.4267C125.572 67.1241 133.422 67.6639 141.273 68.4063C143.837 68.6537 146.379 69.1936 148.921 69.666C149.664 69.8009 150.406 70.1159 151.126 70.4083C152.745 71.0382 153.263 71.6005 153.015 72.4328C152.7 73.5351 151.756 73.6025 150.856 73.6925C149.821 73.7825 148.786 73.895 147.751 73.9175C142.6 73.985 137.426 74.0524 132.275 74.0524C130.993 74.0524 129.711 73.76 128.451 73.625C124.334 73.2426 120.195 73.0852 116.101 72.5003C102.042 70.4983 87.9378 68.9236 73.9686 66.3367C71.5616 65.8868 69.1322 65.5719 66.7253 65.212L66.7028 65.1895Z" fill="#DEB35C"/>
<path d="M156.007 41.9751C159.583 42.3575 163.183 42.7399 166.759 43.1223C168.469 43.3023 170.021 43.8871 171.348 45.0343C172.36 45.8891 172.158 47.2163 170.988 47.9362C170.291 48.3636 169.526 48.4536 168.761 48.4311C165.657 48.3411 162.553 48.836 159.471 48.8585C152.79 48.9485 146.064 49.6683 139.383 48.5436C138.618 48.4086 137.831 48.3411 137.066 48.3861C135.649 48.4761 134.254 48.791 132.837 48.3861C128.631 47.1714 124.177 46.7889 120.195 44.7644C119.88 44.6069 119.475 44.382 119.678 43.8871C119.768 43.6622 119.948 43.4372 120.15 43.3472C120.735 43.0773 121.342 42.7849 121.972 42.6949C126.314 42.0425 130.61 41.2552 135.042 41.4577C139.293 41.6601 143.545 42.0201 147.841 41.7501C150.518 41.5927 153.262 42.11 155.962 42.3125C155.962 42.2 155.962 42.0876 155.984 41.9751H156.007Z" fill="#DEB35C"/>
<path d="M54.735 76.5264C58.2217 76.7964 61.7084 77.1563 65.1951 77.3138C67.4221 77.4262 69.5366 78.0561 71.6961 78.4385C72.3034 78.551 72.9108 78.8659 73.4507 79.1808C74.013 79.5183 74.373 80.0806 74.238 80.8005C74.148 81.3853 73.7431 81.7678 73.2482 81.9027C72.146 82.2176 70.9987 82.5776 69.874 82.6675C65.4875 82.9825 61.101 83.4099 56.737 83.4324C49.8761 83.4324 43.0152 83.0049 36.2443 81.8802C34.2198 81.5428 32.2402 80.8005 30.7331 79.2258C30.2157 78.7085 30.2382 78.0336 30.8006 77.5612C32.2627 76.324 34.0173 76.0541 35.8169 75.7841C41.5306 74.9068 47.1543 76.2115 52.823 76.3465C53.4528 76.3465 54.1052 76.5264 54.735 76.6389C54.735 76.5939 54.735 76.5489 54.735 76.504V76.5264Z" fill="#DEB35C"/>
<path d="M75.9258 49.7808C69.8072 49.6459 64.1835 49.106 58.5373 48.4762C54.0383 47.9588 49.6069 47.149 45.2429 45.9118C44.3881 45.6643 43.5558 45.2594 42.7685 44.8545C42.476 44.697 42.1386 44.3146 42.0936 43.9997C42.0036 43.3248 42.6785 43.2574 43.1059 43.1224C45.1079 42.56 47.1774 42.3575 49.247 42.4025C56.4678 42.56 63.6886 42.47 70.8869 43.4148C75.9033 44.0672 80.7846 45.2144 85.621 46.6091C86.1159 46.7441 86.6108 46.924 87.0607 47.1489C88.3879 47.8013 89.1302 48.836 88.7703 49.3984C88.1404 50.3432 87.1282 50.0958 86.2959 50.0733C82.6967 49.9608 79.075 50.6356 75.9258 49.8033V49.7808Z" fill="#DEB35C"/>
<path d="M26.9317 61.2979C23.7824 61.3428 20.7457 60.9604 17.7089 60.3531C16.5616 60.1281 15.4144 59.9481 14.3121 59.5882C13.1424 59.2283 11.3203 59.0934 11.4103 57.6312C11.4778 56.3265 13.2324 56.0341 14.4471 55.6292C15.7968 55.1568 17.214 54.9318 18.6311 54.9768C24.4123 55.1568 30.1935 55.3142 35.9521 55.6067C38.2466 55.7192 40.5411 56.2365 42.8355 56.5289C44.3652 56.7314 45.9173 56.8889 47.447 57.0913C47.9643 57.1588 48.6167 57.0913 48.9316 57.3838C49.6515 58.0586 50.9561 58.3061 51.0011 59.4083C51.0686 60.803 49.7189 60.758 48.7966 61.1179C47.8069 61.5003 46.7946 61.5678 45.7599 61.5678C42.5431 61.5678 39.3263 61.4778 36.1096 61.6803C33.0053 61.8827 29.9235 61.9727 26.9092 61.2753L26.9317 61.2979Z" fill="#DEB35C"/>
<path d="M74.5083 0.314414C77.2077 0.629341 79.8846 0.989254 82.584 1.25919C84.0236 1.39416 85.3733 1.75407 86.7005 2.27145C88.0277 2.78883 88.2751 4.54342 87.1054 5.39822C85.9357 6.25303 84.586 6.61296 83.1688 6.8604C78.6924 7.67022 74.1709 7.42277 69.672 7.24281C68.2548 7.19782 66.8601 7.15282 65.4204 7.19781C62.6986 7.28779 60.0217 6.86038 57.6372 5.39822C56.4225 4.6559 56.3325 3.50868 57.3673 2.49641C58.6045 1.30419 60.0217 0.539362 61.7763 0.314414C66.0278 -0.247955 70.2568 0.0669716 74.5083 0.314414Z" fill="#DEB35C"/>
<path d="M15.842 31.1543C18.5638 31.1768 21.5331 32.0541 24.5699 32.6615C25.0423 32.7514 25.4922 33.0889 25.8971 33.3813C26.392 33.7412 26.3245 34.731 25.7846 35.0234C25.3348 35.2484 24.8624 35.4958 24.3675 35.5633C17.5965 36.5081 10.7806 36.688 3.96471 36.1257C2.705 36.0132 1.4003 35.9232 0.433025 34.866C-0.129345 34.2586 -0.174335 33.3363 0.478014 32.8189C1.8277 31.7842 3.33485 31.0193 5.06695 31.0193C8.53115 30.9969 11.9953 30.5694 15.842 31.1543ZM7.06899 33.1339C6.97901 32.9314 6.93402 32.594 6.77655 32.5265C6.61909 32.459 6.23668 32.549 6.12421 32.7065C5.85427 33.1339 6.1467 33.3813 6.55161 33.4488C6.70907 33.4713 6.88903 33.2463 7.06899 33.1339Z" fill="#DEB35C"/>
<path d="M139.068 5.89316C137.291 5.26331 135.784 5.71321 134.254 5.7582C131.488 5.82569 128.901 5.21832 126.449 3.95861C125.864 3.66618 125.256 3.30625 125.414 2.54143C125.549 1.84409 126.134 1.4842 126.764 1.30424C127.371 1.12428 128.001 0.966803 128.653 0.899318C135.627 0.134495 142.51 0.719382 149.281 2.60894C149.663 2.72142 150.068 2.7439 150.383 2.94635C150.676 3.14881 151.035 3.48623 151.08 3.82365C151.148 4.34103 150.811 4.79092 150.293 5.01587C149.821 5.21832 149.348 5.48826 148.853 5.51076C145.524 5.69072 142.173 5.80319 139.091 5.93816L139.068 5.89316Z" fill="#DEB35C"/>
<path d="M94.0563 40.7157C92.3242 40.1758 90.2547 40.3333 88.2526 40.0408C87.9152 39.9959 87.5328 39.7259 87.3753 39.4335C87.1054 38.9611 87.3079 38.4437 87.6453 38.0163C88.995 36.3517 90.9745 35.9693 92.8641 35.9468C96.8456 35.9468 100.827 36.1492 104.674 37.2965C104.921 37.364 105.191 37.4314 105.394 37.5664C105.821 37.8588 106.113 38.2637 106.158 38.8261C106.203 39.411 105.821 39.8384 105.371 40.0408C104.201 40.6032 102.942 40.8282 101.637 40.8057C99.2076 40.7832 96.7557 40.7382 94.0563 40.7157Z" fill="#DEB35C"/>
</g>
<path d="M373.619 65.225L368.831 64.8659L364.043 64.5068L362.826 80.6453L365.42 84.9144C363.265 112.503 360.572 140.073 358.517 167.682C354.767 217.773 351.017 267.884 347.266 317.975C347.047 320.927 346.189 332.318 345.97 335.251L351.256 335.65C352.972 312.689 355.326 281.269 357.041 258.308C360.791 208.217 364.542 158.106 368.292 108.015C368.851 100.434 368.871 92.7941 369.21 85.1936L372.422 81.3635L373.638 65.225H373.619Z" fill="#DD970F"/>
<path d="M342.04 331.221L355.705 332.239L346.967 357.035L342.04 331.221Z" fill="#DD970F"/>
<path d="M360.113 301.936L352.134 301.338L344.154 300.74C344.154 300.74 341.541 260.104 345.93 201.475C350.319 142.846 358.976 103.068 358.976 103.068L366.956 103.666L374.935 104.265C374.935 104.265 377.549 144.9 373.16 203.53C368.771 262.159 360.113 301.936 360.113 301.936Z" fill="#FEB833"/>
<mask id="mask0_6752_184" style="mask-type:luminance" maskUnits="userSpaceOnUse" x="343" y="103" width="33" height="199">
<path d="M360.113 301.936L352.134 301.338L344.154 300.74C344.154 300.74 341.541 260.104 345.93 201.475C350.319 142.846 358.976 103.068 358.976 103.068L366.956 103.666L374.935 104.265C374.935 104.265 377.549 144.9 373.16 203.53C368.771 262.159 360.113 301.936 360.113 301.936Z" fill="white"/>
</mask>
<g mask="url(#mask0_6752_184)">
<path d="M348.084 211.409C349.58 210.252 350.977 209.813 352.254 210.132C353.331 210.412 354.348 211.23 355.226 212.606C366.716 230.301 356.782 339.061 349.441 356.336C348.483 358.611 347.526 359.508 346.508 359.189C343.476 358.132 341.86 346.661 341.042 337.206C340.005 325.396 339.586 309.696 339.885 294.136C340.364 269.041 342.878 241.352 348.503 238.978C349.64 238.499 350.638 238.779 351.436 239.856C358.118 248.534 349.72 313.327 349.361 316.08L349.321 316.379L348.064 316.14L348.104 315.841C348.184 315.182 356.722 249.272 350.558 241.272C350.059 240.634 349.501 240.474 348.802 240.774C344.813 242.469 341.76 263.894 341.162 294.096C340.524 327.112 343.137 356.117 346.887 357.414C347.226 357.493 347.785 356.755 348.344 355.459C351.994 346.901 356.203 316.319 358.158 284.362C360.413 247.496 358.956 221.164 354.248 213.943C352.732 211.589 350.877 211.309 348.623 213.065C337.531 221.683 333.781 258.528 332.584 287.912C331.267 320.209 332.664 350.99 332.684 351.289V351.589L331.407 351.828V351.529C331.387 351.23 329.951 320.389 331.248 288.291C333.003 244.624 338.648 218.77 348.064 211.449L348.084 211.409Z" fill="#DD970F"/>
<path d="M355.425 120.223C356.104 120.083 356.802 120.103 357.48 120.283C361.011 121.181 364.702 126.228 368.452 135.264C378.746 160.14 387.503 211.369 385.867 214.9C385.628 215.438 385.109 215.877 384.032 215.039C377.788 210.052 348.922 161.477 353.75 147.972C354.488 145.917 355.485 144.84 356.722 144.78C356.922 144.78 357.141 144.78 357.361 144.84C364.083 146.535 374.975 179.191 375.434 180.588L375.534 180.867L374.357 181.745L374.257 181.465C371.325 172.628 362.108 147.932 357.121 146.675C356.962 146.635 356.822 146.615 356.682 146.635C355.964 146.675 355.386 147.353 354.887 148.73C353.451 152.759 355.525 161.257 360.891 173.326C369.15 191.959 382.057 211.867 384.85 213.543C385.169 206.96 376.252 153.517 365.101 131.334C361.709 124.572 358.498 121.46 355.545 122.078C352.553 122.697 350.359 125.37 349.002 130.018C344.214 146.436 351.176 183.62 359.675 198.362C370.706 217.513 369.848 260.023 369.828 260.462V260.762L368.532 260.801V260.482C368.532 260.063 369.35 218.151 358.657 199.579C354.448 192.258 350.398 179.151 348.084 165.387C345.591 150.485 345.491 137.359 347.825 129.359C349.381 124.013 351.954 120.941 355.445 120.223H355.425Z" fill="#DD970F"/>
<path d="M399.452 102.868C392.929 105.92 383.214 98.3594 377.01 89.3027C370.586 79.9068 367.833 69.5535 369.689 61.574C370.686 57.2651 372.202 54.8712 374.217 54.4523C381.797 52.8763 393.547 82.1211 394.046 83.358L394.146 83.6173L393.029 84.6147L392.929 84.3554C392.809 84.0761 382.356 58.063 375.514 56.3275C375.115 56.2277 374.716 56.2078 374.337 56.2876C372.88 56.5868 371.723 58.5418 370.905 62.0727C369.21 69.3739 371.843 79.049 377.947 87.9661C384.87 98.0801 393.787 103.606 399.113 101.112C401.686 99.9154 403.382 96.9231 404.12 92.2152C406.833 75.179 391.931 53.7142 378.247 48.747C373.02 46.8319 363.644 45.9143 359.714 60.9157C350.817 94.8085 388.979 145.398 389.378 145.897L389.538 146.097L388.64 147.513L388.48 147.313C388.381 147.194 378.546 134.167 370.068 117.271C362.128 101.451 353.69 78.7498 358.517 60.3372C361.43 49.2457 368.053 44.1388 376.691 46.3332C377.309 46.4928 377.967 46.6923 378.646 46.9316C392.829 52.0784 408.249 74.5805 405.397 92.5144C404.539 97.8607 402.484 101.451 399.472 102.868H399.452Z" fill="#DD970F"/>
</g>
<path opacity="0.2" d="M360.113 301.936L352.533 301.377C352.533 301.377 361.191 261.58 365.579 202.97C369.968 144.361 367.355 103.706 367.355 103.706L374.935 104.264C374.935 104.264 377.549 144.9 373.16 203.529C368.771 262.158 360.113 301.936 360.113 301.936Z" fill="#DD970F"/>
<path d="M317.702 125.41C317.702 125.41 324.884 100.394 322.989 73.9622L322.59 69.5137C319.737 69.773 319.837 70.8502 316.984 71.1096C314.132 71.3689 314.032 70.2717 311.179 70.5311C308.326 70.7904 308.426 71.8676 305.574 72.127C302.721 72.3863 302.621 71.2891 299.788 71.5484C296.936 71.8078 297.035 72.885 294.183 73.1443C291.33 73.4037 291.25 72.3065 288.398 72.5658L288.797 77.0144C291.57 103.367 303.02 126.727 303.02 126.727C303.02 126.727 310.102 145.279 307.828 160.001C304.995 178.234 305.653 185.615 306.491 194.991C307.329 204.367 307.967 211.748 313.952 229.203C318.78 243.287 315.069 262.797 315.069 262.797C315.069 262.797 311.638 278.476 313.693 288.331C315.747 298.186 325.323 295.133 325.323 295.133C325.323 295.133 335.277 296.47 335.576 286.396C335.876 276.322 329.751 261.5 329.751 261.5C329.751 261.5 322.67 242.948 324.944 228.226C327.776 209.992 327.118 202.611 326.28 193.236C325.442 183.86 324.804 176.479 318.819 159.024C313.992 144.94 317.702 125.43 317.702 125.43V125.41Z" fill="#253E2E"/>
<mask id="mask1_6752_184" style="mask-type:luminance" maskUnits="userSpaceOnUse" x="288" y="69" width="48" height="227">
<path d="M317.702 125.41C317.702 125.41 324.884 100.394 322.989 73.9622L322.59 69.5137C319.737 69.773 319.837 70.8502 316.984 71.1096C314.132 71.3689 314.032 70.2717 311.179 70.5311C308.326 70.7904 308.426 71.8676 305.574 72.127C302.721 72.3863 302.621 71.2891 299.788 71.5484C296.936 71.8078 297.035 72.885 294.183 73.1443C291.33 73.4037 291.25 72.3065 288.398 72.5658L288.797 77.0144C291.57 103.367 303.02 126.727 303.02 126.727C303.02 126.727 310.102 145.279 307.828 160.001C304.995 178.234 305.653 185.615 306.491 194.991C307.329 204.367 307.967 211.748 313.952 229.203C318.78 243.287 315.069 262.797 315.069 262.797C315.069 262.797 311.638 278.476 313.693 288.331C315.747 298.186 325.323 295.133 325.323 295.133C325.323 295.133 335.277 296.47 335.576 286.396C335.876 276.322 329.751 261.5 329.751 261.5C329.751 261.5 322.67 242.948 324.944 228.226C327.776 209.992 327.118 202.611 326.28 193.236C325.442 183.86 324.804 176.479 318.819 159.024C313.992 144.94 317.702 125.43 317.702 125.43V125.41Z" fill="white"/>
</mask>
<g mask="url(#mask1_6752_184)">
<path d="M329.233 191.34C327.737 190.343 326.28 189.904 324.884 190.024C323.687 190.123 322.53 190.662 321.433 191.58C307.209 203.649 306.571 285.039 312.695 298.485C313.493 300.26 314.431 300.998 315.548 300.859C318.919 300.36 321.852 292.001 323.727 285.079C326.061 276.441 328.156 264.851 329.452 253.301C331.547 234.689 331.726 213.962 325.921 211.708C324.744 211.249 323.647 211.369 322.67 212.087C314.57 217.912 316.845 266.627 316.964 268.701V268.941L318.361 268.881V268.641C318.321 268.143 316.007 218.61 323.488 213.224C324.086 212.785 324.704 212.725 325.423 213.005C329.532 214.62 330.609 230.739 328.076 253.161C325.323 277.658 319.498 298.884 315.329 299.502C314.949 299.542 314.431 298.924 313.972 297.926C310.94 291.263 309.583 268.262 310.82 244.424C312.236 216.934 316.545 197.584 322.35 192.657C324.246 191.061 326.24 191.001 328.495 192.517C339.526 199.898 339.726 227.487 337.95 249.351C335.995 273.369 331.287 296.031 331.248 296.25L331.208 296.47L332.564 296.749L332.604 296.53C332.644 296.31 337.392 273.609 339.347 249.75C342.02 217.274 338.609 197.624 329.253 191.38L329.233 191.34Z" fill="#00C9C4" fill-opacity="0.5"/>
<path d="M330.829 123.196C330.111 123.036 329.372 122.976 328.614 123.056C324.724 123.395 320.216 126.807 315.249 133.17C301.564 150.645 286.822 187.79 288.218 190.543C288.418 190.962 288.936 191.341 290.173 190.802C297.415 187.67 333.522 154.296 329.751 143.883C329.173 142.287 328.215 141.409 326.899 141.249C326.679 141.229 326.44 141.229 326.201 141.249C318.78 141.908 303.679 165.108 303.02 166.086L302.901 166.285L304.058 167.043L304.177 166.844C308.247 160.56 320.735 143.125 326.241 142.626C326.4 142.626 326.58 142.626 326.719 142.626C327.477 142.706 328.036 143.284 328.435 144.341C329.552 147.453 326.44 153.558 319.418 162.016C308.586 175.062 292.627 188.648 289.435 189.625C289.774 184.718 304.935 145.977 319.239 130.537C323.587 125.849 327.378 123.814 330.49 124.532C333.641 125.251 335.736 127.425 336.714 130.996C340.145 143.563 328.794 170.474 318.121 180.628C304.257 193.814 300.746 225.353 300.726 225.672V225.892L302.083 226.051V225.812C302.142 225.493 305.634 194.413 319.079 181.626C324.365 176.599 330.111 167.263 334.021 157.268C338.25 146.456 339.726 136.761 338.05 130.637C336.933 126.547 334.499 124.034 330.809 123.196H330.829Z" fill="#00C9C4" fill-opacity="0.5"/>
<path d="M285.266 106.399C291.969 109.252 303.2 104.524 310.82 98.3798C318.72 92.0162 322.75 84.5753 321.593 78.5109C320.974 75.2394 319.578 73.3243 317.463 72.8256C309.484 70.9703 293.784 91.5574 293.126 92.4351L292.986 92.6147L294.103 93.4525L294.243 93.273C294.383 93.0735 308.367 74.7606 315.887 74.0823C316.326 74.0424 316.765 74.0823 317.164 74.1621C318.7 74.5212 319.737 76.0573 320.256 78.7503C321.313 84.316 317.463 91.2382 309.982 97.2827C301.464 104.145 291.31 107.437 285.825 105.123C283.171 104.005 281.675 101.631 281.356 98.0806C280.199 85.2137 298.492 70.6711 313.733 68.2174C319.558 67.2798 329.752 67.4394 332.425 78.87C338.469 104.763 292.128 138.776 291.65 139.115L291.47 139.255L292.288 140.372L292.467 140.232C292.587 140.152 304.536 131.395 315.408 119.645C325.582 108.653 337.033 92.5947 333.761 78.5508C331.786 70.0926 325.183 65.7238 315.668 66.5617C314.97 66.6215 314.251 66.7213 313.513 66.841C297.714 69.3744 278.763 84.6551 279.98 98.1804C280.339 102.21 282.174 105.043 285.286 106.379L285.266 106.399Z" fill="#00C9C4" fill-opacity="0.5"/>
</g>
<g opacity="0.2">
<path d="M317.702 125.41C317.702 125.41 324.884 100.394 322.989 73.9622L322.59 69.5137C319.737 69.773 319.837 70.8502 316.984 71.1096C316.286 71.1694 315.747 71.1495 315.309 71.1096L315.628 74.6405C317.523 101.073 310.341 126.088 310.341 126.088C310.341 126.088 306.631 145.598 311.458 159.682C317.443 177.137 318.081 184.518 318.919 193.894C319.757 203.27 320.396 210.651 317.583 228.884C315.309 243.606 322.39 262.158 322.39 262.158C322.39 262.158 328.515 276.98 328.215 287.054C328.036 292.979 324.525 294.954 321.672 295.572C323.727 295.652 325.343 295.133 325.343 295.133C325.343 295.133 335.297 296.47 335.596 286.396C335.896 276.322 329.771 261.5 329.771 261.5C329.771 261.5 322.69 242.948 324.964 228.226C327.796 209.992 327.138 202.611 326.3 193.236C325.462 183.86 324.824 176.479 318.84 159.024C314.012 144.94 317.722 125.43 317.722 125.43L317.702 125.41Z" fill="#00C9C4" fill-opacity="0.5"/>
</g>
<path d="M272.04 102.089C262.305 102.209 253.348 93.3519 251.014 81.1832C248.48 67.7976 254.984 55.2699 265.517 53.275C276.05 51.2602 286.702 60.5363 289.256 73.9219C291.57 86.0906 286.483 97.6409 277.386 101.092L278.703 108.054L273.376 109.071L272.06 102.109L272.04 102.089ZM275.81 100.174L276.369 99.9749C285.166 97.0025 290.133 85.9111 287.879 74.1613C285.465 61.5138 275.551 52.7364 265.756 54.6115C255.981 56.4867 249.977 68.2764 252.37 80.9239C254.605 92.6737 263.282 101.172 272.559 100.693L273.157 100.653L274.454 107.416L277.087 106.917L275.79 100.154L275.81 100.174Z" fill="#587DA9"/>
<path d="M310.301 309.436L317.982 307.98L332.744 344.187L309.883 348.536L310.301 309.436ZM317.144 309.536L311.678 310.573L311.279 346.88L330.849 343.15L317.144 309.536Z" fill="#587DA9"/>
<path d="M311.736 313.304L318.085 312.095C320.206 311.691 321.598 309.644 321.195 307.523L283.14 107.656C282.736 105.535 280.689 104.143 278.568 104.547L272.219 105.756C270.097 106.16 268.705 108.207 269.109 110.328L307.163 310.194C307.567 312.316 309.614 313.708 311.736 313.304Z" fill="#153143"/>
<path opacity="0.2" d="M274.374 105.341L276.409 104.962C276.987 104.842 277.566 104.862 278.144 104.922C275.79 106.139 274.394 108.772 274.912 111.485L312.137 307.022C312.655 309.735 314.93 311.67 317.543 311.93C317.044 312.189 316.505 312.409 315.907 312.528L313.872 312.907C310.561 313.546 307.349 311.351 306.731 308.04L269.506 112.483C268.868 109.171 271.062 105.959 274.374 105.341Z" fill="#587DA9"/>
<path d="M272.778 137.838L281.296 136.222L289.814 134.606C289.814 134.606 301.464 163.033 309.663 206.162C317.862 249.271 317.483 279.992 317.483 279.992L308.965 281.608L300.447 283.224C300.447 283.224 288.797 254.797 280.598 211.668C272.399 168.559 272.778 137.838 272.778 137.838Z" fill="#587DA9"/>
<mask id="mask2_6752_184" style="mask-type:luminance" maskUnits="userSpaceOnUse" x="272" y="134" width="46" height="150">
<path d="M272.778 137.838L281.296 136.222L289.814 134.606C289.814 134.606 301.464 163.033 309.663 206.162C317.862 249.271 317.483 279.992 317.483 279.992L308.965 281.608L300.447 283.224C300.447 283.224 288.797 254.797 280.598 211.668C272.399 168.559 272.778 137.838 272.778 137.838Z" fill="white"/>
</mask>
<g mask="url(#mask2_6752_184)">
<path d="M305.214 199.598C303.898 200.815 302.521 201.494 301.105 201.573C299.908 201.653 298.671 201.314 297.434 200.576C281.476 190.861 268.13 110.408 272.08 96.1444C272.598 94.2692 273.396 93.3915 274.533 93.3516C277.945 93.3317 282.154 101.132 285.086 107.695C288.757 115.894 292.627 127.025 295.719 138.256C300.706 156.37 304.117 176.837 298.731 179.989C297.654 180.627 296.537 180.667 295.44 180.128C286.503 175.64 281.156 127.065 280.937 124.99V124.751L282.293 124.611V124.851C282.373 125.349 287.819 174.742 296.058 178.892C296.716 179.231 297.335 179.191 298.013 178.792C301.823 176.558 300.367 160.419 294.362 138.635C287.799 114.816 278.723 94.7281 274.493 94.748C274.114 94.768 273.696 95.4462 273.396 96.5234C271.441 103.585 273.696 126.566 278.623 149.966C284.328 176.957 291.609 195.429 298.133 199.399C300.247 200.696 302.242 200.416 304.237 198.581C313.992 189.564 309.882 162.215 304.716 140.849C299.03 117.37 290.831 95.7055 290.752 95.4861L290.672 95.2667L291.969 94.768L292.048 94.9874C292.128 95.2068 300.367 116.931 306.032 140.231C313.753 171.969 313.453 191.938 305.175 199.578L305.214 199.598Z" fill="#153143"/>
<path d="M317.443 266.786C316.765 267.065 316.027 267.225 315.269 267.285C311.359 267.544 306.372 264.891 300.447 259.365C284.169 244.204 263.781 209.753 264.719 206.8C264.858 206.361 265.317 205.902 266.614 206.242C274.274 208.216 315.229 235.586 313.134 246.498C312.815 248.154 311.997 249.191 310.72 249.55C310.501 249.61 310.282 249.65 310.022 249.67C302.581 250.169 283.989 229.582 283.211 228.704L283.052 228.524L284.089 227.587L284.248 227.766C289.256 233.352 304.357 248.652 309.863 248.273C310.042 248.273 310.202 248.234 310.341 248.194C311.079 247.994 311.558 247.336 311.758 246.219C312.376 242.967 308.347 237.401 300.068 230.14C287.301 218.929 269.387 207.957 266.075 207.498C267.172 212.306 288.238 248.273 304.816 261.32C309.863 265.29 313.912 266.686 316.904 265.509C319.917 264.292 321.632 261.819 322.051 258.148C323.488 245.161 308.047 220.325 295.879 211.927C280.099 201.035 271.701 170.374 271.621 170.055L271.561 169.835L272.898 169.476L272.958 169.696C273.037 169.995 281.356 200.217 296.657 210.77C302.681 214.919 309.823 223.278 315.269 232.554C321.154 242.588 324.126 251.964 323.428 258.288C322.969 262.517 320.934 265.369 317.423 266.786H317.443Z" fill="#153143"/>
<path d="M274.972 290.525C281.176 286.655 293.026 289.587 301.524 294.474C310.341 299.541 315.488 306.264 315.289 312.448C315.189 315.78 314.112 317.894 312.077 318.712C304.456 321.784 285.705 303.87 284.907 303.092L284.747 302.933L285.705 301.935L285.864 302.095C286.044 302.274 302.741 318.213 310.301 317.695C310.74 317.655 311.159 317.575 311.538 317.415C312.994 316.817 313.792 315.121 313.872 312.388C314.052 306.723 309.164 300.459 300.806 295.651C291.31 290.186 280.737 288.51 275.67 291.682C273.237 293.198 272.12 295.791 272.359 299.342C273.217 312.249 293.604 323.779 309.065 323.839C314.989 323.859 325.044 322.103 325.901 310.374C327.836 283.802 276.648 257.39 276.149 257.131L275.95 257.031L276.588 255.794L276.788 255.894C276.927 255.954 290.113 262.756 302.721 272.671C314.511 281.967 328.355 296.05 327.298 310.473C326.659 319.151 320.814 324.517 311.259 325.176C310.561 325.215 309.843 325.255 309.085 325.235C293.066 325.195 271.92 313.047 271.002 299.442C270.723 295.392 272.1 292.3 274.972 290.505V290.525Z" fill="#153143"/>
</g>
<path opacity="0.2" d="M272.778 137.837L280.857 136.301C280.857 136.301 280.478 167.022 288.677 210.131C296.876 253.241 308.526 281.687 308.526 281.687L300.447 283.223C300.447 283.223 288.797 254.797 280.598 211.667C272.399 168.558 272.778 137.837 272.778 137.837Z" fill="#587DA9"/>
<path d="M357.799 152.72C357.261 112.025 333.941 90.3005 331.088 91.5373C328.215 92.7742 326.639 252.843 326.639 252.843L318.919 349.514C318.54 354.361 322.171 358.631 327.018 359.029C331.866 359.409 336.135 355.778 336.534 350.93L344.513 250.967C344.513 250.967 358.338 193.435 357.799 152.74V152.72Z" fill="#BF7E00"/>
<mask id="mask3_6752_184" style="mask-type:luminance" maskUnits="userSpaceOnUse" x="318" y="91" width="40" height="269">
<path d="M357.799 152.72C357.261 112.025 333.941 90.3005 331.088 91.5373C328.215 92.7742 326.639 252.843 326.639 252.843L318.919 349.514C318.54 354.361 322.171 358.631 327.018 359.029C331.866 359.409 336.135 355.778 336.534 350.93L344.513 250.967C344.513 250.967 358.338 193.435 357.799 152.74V152.72Z" fill="white"/>
</mask>
<g mask="url(#mask3_6752_184)">
<path d="M326.739 201.055C328.295 202.531 329.951 203.349 331.627 203.489C333.063 203.609 334.539 203.21 336.035 202.332C355.286 190.901 372.382 94.6688 367.833 77.5329C367.235 75.2787 366.297 74.2015 364.941 74.1416C360.851 74.0618 355.705 83.3579 352.094 91.1778C347.586 100.953 342.798 114.239 338.948 127.644C332.724 149.268 328.375 173.745 334.778 177.596C336.075 178.374 337.392 178.453 338.708 177.795C349.461 172.529 356.543 114.398 356.842 111.924L356.882 111.645L355.226 111.446L355.186 111.725C355.106 112.323 347.905 171.431 337.99 176.299C337.192 176.698 336.454 176.638 335.656 176.159C331.108 173.426 333.083 154.116 340.564 128.083C348.743 99.6361 359.914 75.6777 364.961 75.7774C365.42 75.8173 365.898 76.6352 366.238 77.9319C368.492 86.43 365.48 113.939 359.236 141.907C352.034 174.164 343.057 196.208 335.197 200.876C332.644 202.392 330.25 202.053 327.896 199.818C316.326 188.867 321.612 156.151 328.096 130.636C335.217 102.588 345.351 76.715 345.451 76.4756L345.551 76.2163L343.995 75.5979L343.895 75.8572C343.795 76.1165 333.621 102.03 326.52 129.898C316.845 167.821 316.924 191.739 326.739 201.035V201.055Z" fill="#DD970F"/>
<path d="M311.179 281.408C311.997 281.747 312.875 281.947 313.772 282.027C318.46 282.406 324.465 279.274 331.627 272.75C351.336 254.797 376.232 213.782 375.135 210.251C374.975 209.712 374.436 209.154 372.861 209.553C363.644 211.807 314.211 244.064 316.585 257.17C316.944 259.165 317.902 260.402 319.438 260.861C319.697 260.941 319.977 260.981 320.256 261.001C329.173 261.719 351.715 237.282 352.672 236.244L352.852 236.045L351.615 234.928L351.436 235.127C345.351 241.75 327.058 259.883 320.455 259.365C320.256 259.365 320.056 259.305 319.877 259.265C318.979 259.006 318.44 258.228 318.201 256.891C317.503 252.981 322.41 246.378 332.425 237.78C347.865 224.514 369.489 211.628 373.459 211.109C372.083 216.854 346.349 259.684 326.32 275.064C320.216 279.752 315.348 281.388 311.798 279.912C308.207 278.416 306.172 275.423 305.733 271.015C304.177 255.435 323.029 225.871 337.711 215.996C356.782 203.169 367.255 166.524 367.355 166.164L367.434 165.905L365.839 165.446L365.759 165.706C365.659 166.065 355.286 202.172 336.793 214.62C329.512 219.527 320.854 229.422 314.211 240.473C307.03 252.403 303.339 263.614 304.097 271.194C304.596 276.261 306.99 279.712 311.179 281.468V281.408Z" fill="#DD970F"/>
<path d="M361.729 310.434C354.348 305.706 340.105 309.057 329.851 314.802C319.219 320.767 312.955 328.747 313.114 336.168C313.194 340.177 314.451 342.711 316.865 343.728C325.941 347.518 348.663 326.293 349.62 325.395L349.82 325.196L348.683 323.979L348.483 324.178C348.264 324.378 328.036 343.269 318.999 342.551C318.461 342.511 317.962 342.392 317.503 342.212C315.748 341.474 314.83 339.439 314.77 336.168C314.63 329.385 320.575 321.944 330.669 316.299C342.12 309.875 354.807 308.02 360.832 311.87C363.744 313.725 365.041 316.837 364.702 321.086C363.485 336.547 338.908 350.092 320.396 349.932C313.314 349.872 301.285 347.638 300.407 333.554C298.452 301.696 360.133 270.716 360.752 270.417L360.991 270.297L360.253 268.801L360.014 268.92C359.854 269 343.955 276.96 328.714 288.67C314.451 299.641 297.674 316.339 298.731 333.654C299.37 344.067 306.312 350.571 317.762 351.468C318.6 351.528 319.478 351.568 320.376 351.588C339.586 351.747 365.081 337.484 366.357 321.206C366.736 316.358 365.14 312.628 361.709 310.454L361.729 310.434Z" fill="#DD970F"/>
</g>
<path opacity="0.2" d="M357.799 152.72C357.261 112.025 333.941 90.3005 331.088 91.5373C330.789 91.677 330.49 93.632 330.21 97.0033C338.01 106.04 348.583 124.772 348.942 152.022C349.481 192.717 335.656 250.249 335.656 250.249L327.677 350.212C327.417 353.444 325.423 356.097 322.69 357.434C323.926 358.311 325.403 358.91 327.018 359.029C331.866 359.409 336.135 355.778 336.534 350.93L344.513 250.967C344.513 250.967 358.338 193.435 357.799 152.74V152.72Z" fill="#BF7E00"/>
<path d="M402.245 86.1706C402.744 82.4402 400.111 78.989 396.38 78.4903C392.65 77.9916 389.199 80.6248 388.7 84.3552C388.321 87.2079 389.757 89.881 392.131 91.1976C388.301 119.844 384.471 148.51 380.641 177.157C374.277 224.794 367.893 272.432 361.53 320.089L357.161 352.725C356.722 355.957 361.749 356.635 362.188 353.403C366.198 323.48 370.188 293.577 374.197 263.654C380.561 216.017 386.944 168.379 393.308 120.722C394.585 111.106 395.881 101.491 397.158 91.8759C399.791 91.2176 401.886 89.0232 402.265 86.1706H402.245Z" fill="#A7D4BD"/>
<path d="M373.22 309.377L365.619 308.359L358.019 307.342C358.019 307.342 357.779 268.382 365.24 212.625C372.701 156.889 383.174 119.345 383.174 119.345L390.775 120.363L398.375 121.38C398.375 121.38 398.614 160.34 391.154 216.096C383.693 271.833 373.22 309.377 373.22 309.377Z" fill="#A7D4BD"/>
<mask id="mask4_6752_184" style="mask-type:luminance" maskUnits="userSpaceOnUse" x="358" y="119" width="41" height="191">
<path d="M373.22 309.377L365.619 308.359L358.019 307.342C358.019 307.342 357.779 268.382 365.24 212.625C372.701 156.889 383.174 119.345 383.174 119.345L390.775 120.363L398.375 121.38C398.375 121.38 398.614 160.34 391.154 216.096C383.693 271.833 373.22 309.377 373.22 309.377Z" fill="white"/>
</mask>
<g mask="url(#mask4_6752_184)">
<path d="M366.776 222.261C368.272 221.223 369.629 220.904 370.826 221.283C371.843 221.602 372.761 222.46 373.519 223.797C383.513 241.332 367.973 344.666 359.994 360.765C358.936 362.879 357.979 363.677 357.041 363.338C354.208 362.161 353.311 351.109 353.032 342.033C352.712 330.702 353.171 315.681 354.328 300.819C356.183 276.86 360.133 250.568 365.639 248.613C366.756 248.214 367.674 248.553 368.392 249.61C374.297 258.268 362.667 319.69 362.168 322.304L362.108 322.603L360.911 322.304L360.971 322.004C361.091 321.366 372.9 258.907 367.454 250.907C367.016 250.269 366.497 250.089 365.799 250.329C361.909 251.725 357.779 272.013 355.545 300.839C353.091 332.338 353.989 360.186 357.48 361.622C357.799 361.722 358.378 361.044 358.976 359.827C362.926 351.848 368.671 322.882 372.302 292.46C376.511 257.371 376.571 232.155 372.501 224.974C371.165 222.64 369.429 222.261 367.175 223.817C356.104 231.437 350.478 266.407 347.705 294.415C344.653 325.196 344.274 354.66 344.274 354.94V355.239L343.037 355.398V355.099C343.037 354.8 343.396 325.276 346.409 294.695C350.518 253.082 357.36 228.704 366.736 222.241L366.776 222.261Z" fill="#5B78A8"/>
<path d="M378.865 135.584C379.524 135.484 380.182 135.544 380.82 135.743C384.152 136.8 387.403 141.808 390.475 150.665C398.934 174.982 404.44 224.415 402.664 227.707C402.405 228.205 401.886 228.604 400.909 227.727C395.223 222.62 370.367 174.603 375.713 161.976C376.531 160.041 377.549 159.083 378.726 159.103C378.925 159.103 379.125 159.143 379.324 159.203C385.648 161.198 394.226 192.996 394.605 194.352L394.685 194.612L393.528 195.39L393.448 195.13C391.154 186.532 383.713 162.434 379.025 160.958C378.885 160.918 378.746 160.878 378.606 160.878C377.928 160.878 377.329 161.497 376.771 162.794C375.175 166.564 376.691 174.803 381.139 186.632C388.002 204.885 399.213 224.635 401.786 226.37C402.465 220.106 396.919 168.559 387.503 146.735C384.63 140.092 381.738 136.94 378.885 137.359C375.993 137.778 373.758 140.212 372.202 144.58C366.717 159.981 371.305 195.888 378.586 210.451C388.062 229.362 384.87 269.918 384.83 270.317V270.616L383.573 270.596V270.297C383.633 269.898 386.725 229.901 377.549 211.568C373.938 204.347 370.786 191.599 369.35 178.314C367.794 163.951 368.432 151.403 371.105 143.902C372.901 138.895 375.514 136.082 378.885 135.603L378.865 135.584Z" fill="#5B78A8"/>
<path d="M421.875 121.44C415.471 123.994 406.614 116.234 401.188 107.237C395.562 97.9007 393.527 87.8665 395.722 80.3458C396.919 76.2963 398.495 74.082 400.45 73.7827C407.771 72.6855 417.366 101.272 417.785 102.489L417.865 102.748L416.728 103.646L416.648 103.387C416.548 103.107 408.01 77.6727 401.587 75.6579C401.208 75.5382 400.829 75.4983 400.47 75.5582C399.053 75.7776 397.856 77.573 396.879 80.8845C394.864 87.7668 396.839 97.1626 402.165 106C408.23 116.034 416.409 121.819 421.655 119.725C424.189 118.727 425.964 115.954 426.942 111.506C430.492 95.3872 417.426 74.0421 404.659 68.5562C399.771 66.4416 390.874 65.0452 386.266 79.1489C375.893 111.027 409.526 161.457 409.865 161.976L410.005 162.175L409.068 163.472L408.928 163.273C408.848 163.153 400.17 150.166 393.009 133.569C386.306 118.029 379.504 95.8659 385.149 78.5505C388.54 68.1372 395.163 63.6288 403.282 66.2022C403.881 66.3818 404.479 66.6211 405.098 66.8805C418.344 72.5858 431.849 94.9283 428.099 111.925C426.981 116.992 424.827 120.303 421.855 121.48L421.875 121.44Z" fill="#5B78A8"/>
</g>
<path opacity="0.2" d="M373.22 309.376L366.018 308.419C366.018 308.419 376.491 270.895 383.952 215.139C391.413 159.402 391.173 120.422 391.173 120.422L398.375 121.38C398.375 121.38 398.614 160.34 391.153 216.096C383.693 271.833 373.22 309.376 373.22 309.376Z" fill="#A7D4BD"/>
<path opacity="0.5" d="M391.213 354.86C390.575 362.062 384.132 367.946 376.91 367.946H287.7C280.478 367.946 274.035 362.062 273.396 354.86L256.959 169.856C256.32 162.654 261.706 156.77 268.928 156.77H395.662C402.883 156.77 408.27 162.654 407.631 169.856L391.193 354.86H391.213Z" fill="#DEB35C"/>
<path opacity="0.15" d="M395.682 156.77H385.528C389.318 170.215 391.393 184.638 391.393 199.659C391.393 272.612 342.898 331.74 283.072 331.74C279.082 331.74 275.152 331.46 271.282 330.942L273.416 354.86C274.055 362.062 280.498 367.946 287.72 367.946H376.91C384.132 367.946 390.575 362.062 391.213 354.86L407.651 169.856C408.29 162.654 402.903 156.77 395.682 156.77Z" fill="#BF7E00"/>
<path opacity="0.15" d="M256.959 169.856L266.494 277.16C305.035 260.004 332.305 217.733 332.305 168.3C332.305 164.41 332.125 160.56 331.806 156.77H268.948C261.726 156.77 256.34 162.654 256.978 169.856H256.959Z" fill="#DEB35C"/>
<path d="M193.012 192.956C190.297 164.371 219.946 152.959 219.946 152.959H71.8485C71.8485 152.959 101.497 164.371 98.782 192.956C96.0666 221.541 19.1925 241.833 50.4925 337.127C81.8293 432.422 98.892 441.999 145.897 441.999C192.902 441.999 209.965 432.422 241.302 337.127C272.639 241.833 195.728 221.577 193.012 192.956Z" fill="#EEBB5D"/>
<path opacity="0.2" d="M193.013 192.956C190.298 164.371 219.946 152.959 219.946 152.959H183.252C183.252 152.959 153.603 164.371 156.319 192.956C159.034 221.541 235.908 241.833 204.608 337.127C177.748 418.845 161.346 437.522 127.551 441.192C133.165 441.815 139.219 441.999 145.898 441.999C192.903 441.999 209.966 432.422 241.302 337.127C272.639 241.833 195.728 221.577 193.013 192.956Z" fill="#C0861D"/>
<path opacity="0.1" d="M83.077 216.807C61.5009 238.75 27.9258 268.472 50.4927 337.09C59.1158 363.29 66.6381 382.958 74.0136 397.782C96.7273 381.783 112.579 345.566 112.579 303.368C112.579 267.078 100.837 235.19 83.077 216.807Z" fill="#E4DCCF"/>
<path d="M146.044 157.62C187.305 157.62 220.753 155.189 220.753 152.19C220.753 149.19 187.305 146.759 146.044 146.759C104.783 146.759 71.3348 149.19 71.3348 152.19C71.3348 155.189 104.783 157.62 146.044 157.62Z" fill="#C0861D"/>
<path d="M123.147 336.357C122.193 341.164 121.679 346.118 121.679 351.145C121.679 400.792 169.602 441.045 228.716 441.045C287.83 441.045 335.753 400.792 335.753 351.145C335.753 346.118 335.239 341.164 334.285 336.357H123.184H123.147Z" fill="#E69D13"/>
<path opacity="0.2" d="M334.285 336.357H302.177C303.132 341.164 303.645 346.118 303.645 351.145C303.645 396.205 264.162 433.523 212.681 440.054C217.928 440.715 223.285 441.082 228.753 441.082C287.867 441.082 335.789 400.828 335.789 351.181C335.789 346.154 335.276 341.201 334.321 336.394L334.285 336.357Z" fill="#BF7E00"/>
<path opacity="0.1" d="M121.679 351.181C121.679 392.462 154.814 427.211 199.911 437.779C207.91 427.284 212.644 414.515 212.644 400.681C212.644 365.161 181.711 336.393 143.512 336.393C136.247 336.393 129.275 337.457 122.707 339.365C122.083 343.255 121.679 347.181 121.679 351.181Z" fill="#E4DCCF"/>
<path d="M334.285 336.357C334.285 339.366 287.023 341.788 228.716 341.788C170.409 341.788 123.147 339.366 123.147 336.357C123.147 333.349 170.409 330.927 228.716 330.927C287.023 330.927 334.285 333.349 334.285 336.357Z" fill="#BF7E00"/>
</svg>
