<svg width="567" height="430" viewBox="0 0 567 430" fill="none" xmlns="http://www.w3.org/2000/svg">
<path d="M477.107 309.499C480.768 312.67 483.352 316.823 484.178 321.359C485.58 329.094 486.19 337.019 480.118 343.577C479.197 344.581 478.565 345.853 477.732 346.942C472.262 354.052 465.579 359.541 457.216 363.037C450.549 365.84 444.055 369.05 437.483 372.044C435.863 372.781 434.266 373.598 432.56 374.012C425.337 375.709 418.272 378.078 410.937 379.438C405.744 380.397 400.576 381.371 395.394 382.37C393.065 382.8 390.791 383.192 388.404 382.599C387.087 382.282 385.647 382.235 384.312 382.42C379.409 383.171 374.541 382.68 369.669 382.256C365.97 381.928 362.24 381.651 358.578 381.14C356.531 380.845 354.199 381.102 352.577 379.244C352.346 379.111 352.12 378.912 351.905 378.754C352.146 378.927 352.412 379.115 352.639 379.314C351.201 380.326 349.66 379.982 348.085 379.756C346.155 379.494 344.178 379.137 342.236 379.074C332.603 378.8 323.033 377.709 313.465 376.791C312.953 376.733 312.38 377.017 311.815 377.168C311.487 379.094 311.967 380.804 312.799 382.376C315.917 388.202 316.772 394.699 318.584 400.897C318.706 401.275 318.815 401.678 318.765 402.059C318.052 409.085 320.073 416.221 318.437 423.191C316.849 430.018 316.403 437.232 312.473 443.389C311.83 444.383 311.444 445.524 310.945 446.567C310.161 448.161 309.403 449.77 308.557 451.294C307.98 452.292 307.396 453.422 306.532 454.151C303.093 456.975 301.158 461.214 297.036 463.508C291.298 466.711 286.252 465.878 281.525 459.943C277.43 454.747 274.029 448.997 271.616 442.657C269.277 436.428 265.825 430.649 263.148 424.531C261.167 420.045 259.286 415.445 258.006 410.748C255.712 402.431 253.569 394.029 252.027 385.532C251.205 380.929 251.241 376.14 250.368 371.508C249.938 369.179 249.388 366.882 248.903 364.59L248.754 364.435L248.936 364.711C248.205 365.858 247.383 366.987 246.729 368.179C244.135 373.026 241.556 377.848 239.038 382.74C238.037 384.652 237.152 386.598 236.268 388.544C233.418 394.779 230.605 401.069 227.756 407.305C227.023 408.928 226.137 410.464 225.342 412.017C223.39 415.871 220.937 419.47 219.782 423.715C219.387 425.227 218.687 426.734 217.74 427.961C214.67 431.92 212.964 436.529 210.987 441.017C209.084 445.376 205.701 448.813 203.389 452.937C203.211 453.244 202.753 453.388 202.437 453.581C201.349 454.283 199.926 453.735 199.712 452.451C199.169 449.136 199.012 445.804 199.544 442.461C200.274 438.004 201.295 433.579 203.054 429.409C206.454 421.274 209.064 412.854 212.739 404.775C215.51 398.734 217.975 392.515 220.45 386.337C222.196 381.954 223.74 377.626 226.363 373.614C229.031 369.525 230.935 364.928 233.131 360.533C233.386 360.032 233.554 359.446 233.058 358.887C232.438 358.188 231.646 358.14 230.934 358.548C224.71 362.119 217.74 363.792 211.047 365.931C203.395 368.371 195.913 371.522 187.864 372.64C185.341 372.992 182.767 373.552 180.504 374.634C173.211 378.167 165.327 378.528 157.551 379.292C152.998 379.733 148.61 378.292 144.367 376.661C141.429 375.545 138.587 374.381 136.307 372.008C132.748 368.247 131.086 363.739 130.419 358.749C130.302 357.828 130.472 356.767 130.816 355.874C133.63 348.697 136.951 341.881 143.604 337.33C144.901 336.441 145.966 335.248 147.227 334.304C149.584 332.527 152.024 330.899 154.956 330.136C157.039 329.599 159.026 328.699 160.918 327.608C162.454 326.721 164.066 325.878 165.736 325.409C172.722 323.472 179.791 321.686 186.798 319.83C187.752 319.596 188.732 319.377 189.58 318.911C192.302 317.447 195.032 316.737 198.09 317.821C198.621 318.025 199.295 318.039 199.835 317.872C200.884 317.591 202.382 317.774 202.656 316.295C202.855 315.181 201.747 314.678 201.087 313.99C197.994 310.601 193.999 308.363 190.446 305.595C186.056 302.208 182.101 298.423 178.245 294.525C167.986 284.167 159.011 272.709 150.673 260.799C147.283 255.976 143.377 251.572 140.057 246.687C133.977 237.718 128.61 228.343 123.519 218.785C122.399 216.706 121.376 214.58 120.161 212.548C119.248 210.997 118.617 209.371 118.259 207.629C116.462 198.745 113.617 190.143 111.039 181.491C110.216 178.662 109.675 175.757 109.054 172.874C108.874 172.122 108.754 171.267 108.944 170.524C110.134 165.685 109.757 160.725 109.68 155.837C109.591 150.259 111.441 145.459 113.884 140.695C116.42 135.712 120.229 132.247 125.597 130.571C126.353 130.325 127.142 130.2 127.814 129.804C135.077 125.673 142.789 125.316 150.722 126.996C154.552 127.809 158.464 128.123 162.33 128.99C169.97 130.706 176.739 133.932 182.741 138.898C184.571 140.398 186.529 141.733 188.417 143.13C189.038 143.591 189.971 143.925 190.305 144.528C192.387 148.663 196.421 150.481 199.928 152.915C200.563 153.35 201.25 153.815 201.717 154.425C204.985 158.632 208.802 162.302 212.703 165.885C213.594 166.706 214.238 167.658 214.687 168.771C216.84 174.142 220.441 178.54 224.042 182.939C224.549 183.539 225 184.175 225.437 184.836C229.154 190.394 233.047 195.882 236.547 201.519C241.182 208.971 246.177 216.392 248.216 225.211C248.341 225.761 248.79 226.225 249.067 226.691C249.47 226.583 250.027 226.564 250.09 226.395C252.922 217.591 256.836 209.275 261.536 201.311C262.319 199.955 262.795 198.422 263.476 197.007C264.733 194.356 265.746 191.597 267.724 189.294C268.848 187.998 269.548 186.253 270.24 184.64C271.307 182.083 272.988 179.881 274.27 177.483C276.58 173.187 279.806 169.49 281.798 164.976C282.964 162.306 284.65 159.8 286.394 157.43C289.292 153.474 292.431 149.691 295.467 145.85C295.954 145.244 296.506 144.642 296.865 143.962C300.21 137.399 305.506 132.303 309.838 126.514C311.696 124.005 314.062 121.857 316.31 119.675C321.386 114.725 326.818 110.22 333.023 106.741C334.735 105.785 336.556 104.994 338.374 104.269C342.753 102.533 347.227 100.988 351.574 99.1316C361.924 94.7363 372.745 93.0695 383.871 93.8299C390 94.264 395.852 96.005 400.267 100.942C401.693 102.55 403.553 103.76 405.218 105.131C409.365 108.583 411.789 112.302 413.374 117.652C413.825 119.175 414.211 120.694 414.772 122.144C419.07 133.017 417.256 143.842 414.232 154.514C412.918 159.213 411.157 163.859 408.547 168.084C408.034 168.913 407.583 169.813 407.34 170.765C405.868 176.328 402.936 181.288 400.331 186.333C396.297 194.205 391.943 201.925 387.562 209.63C385.598 213.033 383.07 216.111 381.222 219.548C377.793 225.96 373.217 231.642 369.367 237.777C366.88 241.731 363.449 245.072 360.491 248.72C358.991 250.549 357.543 252.408 356.197 254.326C354.168 257.249 352.293 260.26 348.878 261.802C348.184 262.118 347.453 262.617 347.017 263.252C343.617 268.078 338.943 271.861 335.897 276.959C335.823 277.087 335.928 277.319 335.957 277.506C337.031 278.126 338.234 277.933 339.342 277.788C346.158 276.913 353.106 277.582 359.875 275.963C360.975 275.711 362.25 275.867 363.388 276.081C365.743 276.553 368.084 276.575 370.413 276.146C370.989 276.035 371.609 275.847 372.158 275.959C377.661 277.123 383.109 275.663 388.587 275.688C389.95 275.69 391.335 275.773 392.701 275.948C397.928 276.646 403.161 277.449 408.391 278.081C412.555 278.609 416.173 280.732 420.096 281.973C421.772 282.498 423.33 283.226 425.173 283.165C429.048 283.014 432.022 285.72 435.613 286.532C436.946 286.823 438.181 287.639 439.507 287.824C445.439 288.657 450.745 291.345 456.154 293.615C460.145 295.271 463.895 297.402 467.173 300.352C469.633 302.591 472.362 304.541 475.006 306.58C475.981 307.313 476.794 308.09 476.983 309.359L476.936 309.263L477.107 309.499ZM188.745 290.046L189.032 289.904L188.801 289.771L188.745 290.046ZM307.782 133.207L307.908 133.519L308.107 133.293L307.782 133.207Z" fill="#A7D4BD"/>
<path d="M187.213 235.09C189.691 238.124 192.335 241.049 194.273 244.487C195.422 246.515 196.887 248.351 198.833 249.884C200.207 247.504 201.997 245.467 202.601 243.121C204.085 237.36 206.743 232.106 208.86 226.607C211.885 218.768 215.189 210.918 219.863 203.826C221.158 201.879 222.684 200.064 224.209 198.25C225.163 197.129 226.375 196.567 227.866 197.292C229.113 197.909 229.584 199.102 229.056 200.844C228.532 202.52 227.953 204.233 227.132 205.772C223.958 211.683 222.141 218.139 219.743 224.362C217.548 230.054 215.77 235.851 213.953 241.658C212.02 247.843 209.347 253.771 206.895 259.792C206.335 261.174 205.996 262.412 206.914 263.658C214.024 273.324 221.109 282.974 229.344 291.755C230.077 292.553 231.179 292.063 231.386 290.818C232.069 287.153 232.61 283.44 233.802 279.898C234.738 277.095 235.556 274.259 236.518 271.471C239.262 263.468 240.366 254.997 243.669 247.148C243.977 246.438 243.977 245.552 244.412 244.916C245.899 242.636 246.041 239.613 248.372 237.821C250.607 240.509 249.051 243.5 248.599 246.173C247.251 254.299 245.954 262.454 244.133 270.511C241.906 280.278 240.136 290.139 239.545 300.203C239.469 301.694 239.676 302.871 240.547 304.022C242.434 306.544 244.166 309.216 246.866 310.98C250.192 313.138 253.023 315.797 255.792 318.623C257.7 320.578 258.595 320.446 259.642 318.219C260.977 315.374 262.262 312.499 263.572 309.64C267.617 300.683 271.227 291.476 275.886 282.874C279.367 276.491 281.483 269.457 285.746 263.492C286.771 262.071 287.325 260.344 288.006 258.691C288.314 257.981 288.512 257.106 287.848 256.484C284.698 253.608 283.389 249.612 281.489 245.99C279.756 242.669 278.103 239.327 276.395 236.022C273.667 230.762 271.577 225.223 270.481 219.439C269.458 214.004 267.935 208.724 266.573 203.4C266.393 202.648 266.309 201.849 266.25 201.065C266.205 200.493 266.27 199.848 267.004 199.76C267.337 199.714 267.882 199.892 268.013 200.138C270.074 203.955 273.289 207.073 274.681 211.22C277.718 220.376 282.114 228.953 286.224 237.67C287.89 241.225 289.214 244.958 290.664 248.592C290.881 249.161 291.158 249.628 291.813 249.733C292.535 249.843 292.936 249.324 293.202 248.864C295.296 245.296 297.324 241.725 299.392 238.143C303.756 230.702 308.121 223.26 312.496 215.859C313.944 213.352 314.109 212.594 312.16 210.65C309.497 208.055 308.207 204.854 307.302 201.398C306.506 198.345 305.776 195.297 304.924 192.281C304.499 190.773 304.158 189.177 303.35 187.858C300.465 183.224 299.374 178.023 298.536 172.797C297.809 168.148 297.163 163.476 295.9 158.927C295.248 156.571 295.876 154.478 297.068 154.245C298.876 153.89 300.113 155.116 301.061 156.311C303.67 159.591 305.159 163.453 306.285 167.412C307.959 173.257 309.597 179.047 312.339 184.519C314.184 188.177 315.13 192.271 315.999 196.321C316.487 198.547 316.417 201.032 318.051 202.93C321.183 202.35 321.237 199.243 322.404 197.221C325.063 192.616 327.4 187.859 330.976 183.851C332.309 182.369 332.823 180.653 331.99 178.432C327.213 165.611 325.705 152.152 324.343 138.675C323.985 135.159 323.627 131.643 323.415 128.11C323.267 125.943 323.317 123.789 323.301 121.63C323.281 120.424 323.437 119.15 324.736 118.672C326.157 118.162 326.855 119.315 327.415 120.355C328.712 122.776 329.823 125.225 330.331 128.008C331.246 133.04 332.47 138.011 333.199 143.071C333.636 146.155 334.271 149.251 335.511 152.184C336.508 154.534 336.992 157.065 337.141 159.642C337.264 161.793 337.811 163.917 338.242 166.008C338.396 166.745 338.719 167.546 339.693 167.631C340.601 167.712 341.096 166.973 341.516 166.363C344.301 162.308 347.02 158.249 349.753 154.164C350.524 153.006 351.204 151.829 352.026 150.7C354.25 147.617 356.433 144.545 354.267 140.497C354.713 134.819 352.972 129.209 353.708 123.561C354.061 120.763 353.864 118.091 353.327 115.358C352.287 110.187 353.303 105.178 354.842 100.267C355.02 99.722 355.29 99.1955 355.611 98.6986C356.098 97.8543 357.55 97.7032 358.155 98.4278C358.636 99.0126 359.22 99.6565 359.429 100.357C359.786 101.689 360.047 103.068 360.045 104.431C359.958 109.191 360.538 113.859 361.76 118.419C362.279 120.356 362.285 122.236 361.822 124.22C361.355 126.27 361.184 128.457 361.691 130.592C361.925 131.546 361.916 132.803 362.874 133.152C364.48 133.738 364.624 132.013 365.217 131.161C368.784 125.988 372.669 121.033 376.312 115.904C380.262 110.304 385.252 105.441 390.684 101.174C391.434 100.584 392.226 99.7448 393.289 100.325C394.635 101.067 394.119 102.373 393.961 103.476C393.707 105.274 392.755 106.805 391.766 108.281C388.866 112.713 385.915 117.116 383.051 121.603C379.922 126.551 376.88 131.583 373.776 136.546C372.838 138.052 371.762 139.443 370.711 140.849C363.452 150.645 356.449 160.589 350.297 171.126C347.86 175.348 344.987 179.318 342.433 183.506C337.94 190.874 333.232 198.083 328.93 205.595C323.874 214.411 318.942 223.367 313.334 231.899C308.833 238.75 304.543 245.825 300.856 253.215C299.008 256.889 296.761 260.368 294.784 263.969C292.099 268.797 289.57 273.649 287.335 278.703C286.231 281.205 285.037 283.688 283.392 285.945C281.302 288.798 280.377 292.29 278.656 295.39C275.124 301.743 272.222 308.425 269.074 315C268.393 316.415 267.815 317.889 267.211 319.348C264.721 325.552 262.246 331.731 258.801 337.52C253.716 346.149 249.118 355.059 244.776 364.117C243.659 366.406 242.615 368.805 240.544 370.441C239.974 370.897 239.162 371.417 238.421 370.751C238.031 370.423 237.641 369.857 237.592 369.351C237.406 367.367 237.668 365.437 238.585 363.613C240.37 360.107 241.988 356.537 243.876 353.09C246.613 348.053 248.561 342.729 250.666 337.429C251.103 336.317 250.308 335.448 249.182 335.685C248.995 335.714 248.794 335.768 248.617 335.837C241.15 338.962 233.112 340.121 225.468 342.667C220.443 344.337 215.231 345.388 210.084 346.681C208.929 346.969 207.734 347.029 206.625 347.413C198.077 350.46 189.148 351.923 180.372 354.123C170.28 356.654 159.987 358.114 149.773 360.029C146.788 360.591 143.894 360.285 141.237 358.683C140.956 358.521 140.679 358.054 140.699 357.724C140.693 357.38 140.989 356.868 141.245 356.778C142.519 356.285 143.825 355.913 145.157 355.556C147.957 354.785 150.847 354.27 153.645 352.201C150.08 350.279 147.313 347.863 144.561 345.421C143.82 344.755 143.065 344.114 142.419 343.4C141.712 342.616 141.548 341.601 142.105 340.694C142.766 339.609 143.82 339.024 145.105 339.22C147.072 339.536 148.845 340.424 150.441 341.618C153.279 343.734 156.206 345.697 158.929 347.952C161.083 349.775 163.291 350.265 166.009 349.753C172.797 348.453 179.308 346.276 185.967 344.492C186.451 344.362 187.066 343.83 187.159 343.372C187.249 342.98 186.801 342.278 186.407 342.016C182.695 339.464 178.839 337.102 175.231 334.37C172.901 332.615 170.862 330.415 168.76 328.383C168.199 327.82 167.982 327.013 168.374 326.215C168.874 325.173 169.768 325.042 170.83 325.211C172.837 325.517 174.555 326.441 176.211 327.533C177.84 328.61 179.421 329.83 181.125 330.78C185.756 333.453 189.856 336.81 193.643 340.532C194.782 341.632 195.869 341.817 197.359 341.483C202.88 340.133 208.423 338.864 213.976 337.636C217.035 336.946 220.116 336.336 223.19 335.621C223.539 335.549 223.914 335.254 224.076 334.972C224.431 334.358 224.001 333.803 223.515 333.522C220.624 331.853 217.732 330.184 214.816 328.5C211.362 326.506 208.449 323.869 205.975 320.769C205.493 320.184 205.167 319.45 204.892 318.745C204.584 317.919 205.641 316.619 206.52 316.751C207.099 316.812 207.758 316.852 208.189 317.169C211.678 319.695 215.719 321.38 218.927 324.392C222.398 327.658 226.536 329.945 230.629 332.308C232.088 333.15 233.582 333.399 235.165 333.256C236.511 333.111 237.937 332.945 239.185 332.438C243.906 330.524 249.172 330.562 253.824 328.472C253.677 327.841 253.709 327.314 253.482 327.115C250.997 324.861 248.581 322.545 245.937 320.507C241.599 317.149 237.142 313.996 233.942 309.317C232.202 306.777 229.535 304.896 227.409 302.611C222.624 297.427 217.854 292.217 213.168 286.919C211.619 285.171 210.433 283.088 209.038 281.191C206.715 278.007 204.652 274.667 201.953 271.778C198.543 268.172 196.199 263.782 193.575 259.641C189.354 253.008 185.489 246.171 180.396 240.16C179.011 238.542 178.155 236.478 176.98 234.674C173.289 228.893 170.11 222.759 165.538 217.561C162.098 210.048 156.684 203.648 153.148 196.182C150.868 191.386 147.751 187.096 145.61 182.176C139.465 168.121 133.779 153.921 131.121 138.672C131.064 138.298 131.047 137.913 131.096 137.532C131.119 137.375 131.281 137.093 131.388 137.086C131.732 137.081 132.289 137.061 132.424 137.241C133.108 138.421 133.898 139.593 134.284 140.874C136.94 149.332 141.116 157.167 144.476 165.35C144.846 166.246 145.322 167.135 145.938 167.9C146.331 168.4 147.09 168.327 147.375 167.775C147.811 166.901 148.12 165.953 148.296 164.997C150.008 155.001 153.816 145.805 158.945 137.099C159.624 135.922 160.231 134.635 161.615 134.07C162.239 133.816 163.392 134.242 163.565 134.888C163.986 136.462 163.672 137.952 163.156 139.496C161.402 144.897 159.725 150.343 158.048 155.788C157.524 157.464 157.062 159.21 156.772 160.953C155.939 165.999 154.833 170.989 153.008 175.803C151.936 178.664 152.409 181.154 153.981 183.631C156.823 188.103 159.555 192.649 162.437 197.11C163.915 199.396 164.646 202.206 166.866 204.034C167.472 204.52 167.994 205.094 168.884 205.915C170.838 203.359 171.412 200.415 172.142 197.732C175.652 184.68 181.992 172.989 188.848 161.528C189.864 159.829 191.043 158.258 192.738 157.155C193.384 156.744 194.268 156.572 194.907 157.18C195.294 157.573 195.654 158.191 195.637 158.693C195.371 162.462 193.944 165.937 192.441 169.368C189.294 176.591 186.382 183.882 184.285 191.472C183.071 195.821 182.442 200.336 181.294 204.688C180.414 208.103 179.413 211.551 177.962 214.773C176.804 217.311 177.176 219.265 178.57 221.401C181.29 225.495 183.968 229.6 186.607 233.716C186.909 234.198 186.99 234.825 187.182 235.379L187.019 235.012L187.219 235.196L187.213 235.09Z" fill="#E4DCCF"/>
</svg>
