<svg width="269" height="276" viewBox="0 0 269 276" fill="none" xmlns="http://www.w3.org/2000/svg">
<path d="M45.8641 31.646C44.729 27.115 42.317 24.8496 38.628 24.8496C30.6116 24.8496 26.6033 30.5841 26.6033 42.0531C26.6033 48.1416 27.7384 52.3894 30.0085 54.7965C32.2077 57.2035 34.7617 58.4071 37.6703 58.4071C41.714 58.4071 44.4098 56.4956 45.7577 52.6726L46.7154 49.4867H55.0157C61.8971 49.4867 65.6925 49.5221 66.4019 49.5929L68.8494 49.8053L68.743 52.0354C68.1754 62.6549 64.2736 70.4425 57.0375 75.3982C50.4399 80 42.9555 82.3009 34.5843 82.3009C23.5173 82.3009 15.0043 78.938 9.04513 72.2124C3.01504 65.4867 0 56.0354 0 43.8584C0.0709422 24.7434 5.81726 12.0708 17.239 5.84071C23.0562 2.51327 29.6893 0.849558 37.1382 0.849558C47.7796 0.849558 55.9024 4.31858 61.5069 11.2566C66.4019 17.2743 68.8494 23.8938 68.8494 31.115L45.8641 31.646Z" fill="#DEB35C"/>
<path d="M124.286 17.8407C124.286 17.6991 120.597 17.9469 113.219 18.5841C110.524 18.7965 106.728 19.2566 101.833 19.9646V25.5929C101.833 28.4956 102.188 29.9823 102.897 30.0531C103.607 30.1947 104.316 30.2655 105.026 30.2655C106.232 30.2655 109.495 30.0531 114.816 29.6283L121.945 29.0973L121.733 46.5133L102.897 48L102.578 58.4071L113.007 57.8761C116.554 57.7345 120.065 57.6637 123.542 57.6637H124.18C124.677 57.6637 124.925 61.2389 124.925 68.3894V79.115L99.5986 79.2212C95.4839 79.2212 88.7444 79.3274 79.38 79.5398H73.953C73.882 79.5398 73.8466 79.4336 73.8466 79.2212L74.0594 75.292C74.2722 71.8938 74.4496 68.1062 74.5914 63.9292C74.8043 57.1327 74.9107 45.5221 74.9107 29.0973L74.8043 0C75.7265 0.283186 80.9762 0.424779 90.5534 0.424779C110.63 0.424779 122.194 0.283186 125.244 0L124.712 7.9646L124.286 17.8407Z" fill="#DEB35C"/>
<path d="M157.27 38.1239C157.341 38.4071 158.051 38.5487 159.399 38.5487C167.628 38.5487 171.743 35.5044 171.743 29.4159C171.743 26.3717 170.466 24.4956 167.912 23.7876C165.996 23.2212 163.797 22.9381 161.314 22.9381C159.257 22.9381 157.98 23.3274 157.483 24.1062C156.987 24.8142 156.738 26.6903 156.738 29.7345V30.4779C156.738 35.0089 156.916 37.5575 157.27 38.1239ZM132.37 5.41593C132.937 5.06195 139.996 4.88496 153.546 4.88496C168.869 4.88496 178.411 5.55752 182.171 6.90265C192.458 10.7257 197.601 17.3097 197.601 26.6549C197.601 36.2124 193.096 42.7965 184.086 46.4071L183.554 46.6195L184.831 46.5133C191.429 46.5133 194.87 55.2212 195.153 72.6372L195.26 83.6814C193.699 83.8938 191.819 84 189.62 84C186.498 84 183.483 83.8938 180.575 83.6814L171.317 83.1504L171.21 74.7611C171.139 64.6372 169.721 58.6903 166.954 56.9204C165.89 56.1416 164.294 55.6106 162.165 55.3274L159.186 54.7965L159.718 66.6903C159.931 70.7965 160.037 73.6991 160.037 75.3982C160.037 77.5929 159.647 78.6903 158.867 78.6903C157.731 78.6903 153.368 78.8319 145.778 79.115L134.179 79.5398L133.753 75.823L133.221 65.0973L132.263 39.7168C131.908 28.7434 131.731 20.885 131.731 16.1416C131.731 9.27434 131.944 5.69911 132.37 5.41593Z" fill="#DEB35C"/>
<path d="M235.905 26.2301C235.551 26.2301 235.267 26.6903 235.054 27.6106C234.912 27.9646 233.99 32.1062 232.287 40.0354C230.727 47.3274 229.946 51.2566 229.946 51.823C229.946 52.2478 232.11 52.4602 236.438 52.4602C239.417 52.4602 240.907 52.3186 240.907 52.0354L235.905 26.2301ZM251.761 5.30973C252.045 5.52212 253.18 10.3717 255.166 19.8584C256.869 28 259.281 38.7965 262.402 52.2478C265.24 64.708 267.404 73.2035 268.894 77.7345C268.965 77.8053 269 77.9469 269 78.1593C269 79.292 266.198 79.8584 260.593 79.8584H245.27L243.78 67.0089C242.574 66.6549 240.375 66.4779 237.182 66.4779C234.487 66.4779 231.081 66.6549 226.967 67.0089L225.264 78.1593L213.133 78.7965L200.895 79.0089C200.895 77.8053 202.243 71.6106 204.939 60.4248C207.209 51.5044 209.338 42.3717 211.324 33.0266C212.104 29.4159 212.92 25.3451 213.771 20.8142L215.581 12.1062C216.574 7.36283 217.177 4.81416 217.39 4.46018C217.602 4.10619 219.943 3.9292 224.413 3.9292C230.159 3.9292 235.905 4.0708 241.652 4.35398C248.037 4.63717 251.406 4.95575 251.761 5.30973Z" fill="#DEB35C"/>
<path d="M45.8641 127.646C44.729 123.115 42.317 120.85 38.628 120.85C30.6116 120.85 26.6033 126.584 26.6033 138.053C26.6033 144.142 27.7384 148.389 30.0085 150.796C32.2077 153.204 34.7617 154.407 37.6703 154.407C41.714 154.407 44.4098 152.496 45.7577 148.673L46.7154 145.487H55.0157C61.8971 145.487 65.6925 145.522 66.4019 145.593L68.8494 145.805L68.743 148.035C68.1754 158.655 64.2736 166.442 57.0375 171.398C50.4399 176 42.9555 178.301 34.5843 178.301C23.5173 178.301 15.0043 174.938 9.04513 168.212C3.01504 161.487 0 152.035 0 139.858C0.0709422 120.743 5.81726 108.071 17.239 101.841C23.0562 98.5133 29.6893 96.8496 37.1382 96.8496C47.7796 96.8496 55.9024 100.319 61.5069 107.257C66.4019 113.274 68.8494 119.894 68.8494 127.115L45.8641 127.646Z" fill="#A94C2E"/>
<path d="M124.286 113.841C124.286 113.699 120.597 113.947 113.219 114.584C110.524 114.796 106.728 115.257 101.833 115.965V121.593C101.833 124.496 102.188 125.982 102.897 126.053C103.607 126.195 104.316 126.265 105.026 126.265C106.232 126.265 109.495 126.053 114.816 125.628L121.945 125.097L121.733 142.513L102.897 144L102.578 154.407L113.007 153.876C116.554 153.735 120.065 153.664 123.542 153.664H124.18C124.677 153.664 124.925 157.239 124.925 164.389V175.115L99.5986 175.221C95.4839 175.221 88.7444 175.327 79.38 175.54H73.953C73.882 175.54 73.8466 175.434 73.8466 175.221L74.0594 171.292C74.2722 167.894 74.4496 164.106 74.5914 159.929C74.8043 153.133 74.9107 141.522 74.9107 125.097L74.8043 96C75.7265 96.2832 80.9762 96.4248 90.5534 96.4248C110.63 96.4248 122.194 96.2832 125.244 96L124.712 103.965L124.286 113.841Z" fill="#A94C2E"/>
<path d="M157.27 134.124C157.341 134.407 158.051 134.549 159.399 134.549C167.628 134.549 171.743 131.504 171.743 125.416C171.743 122.372 170.466 120.496 167.912 119.788C165.996 119.221 163.797 118.938 161.314 118.938C159.257 118.938 157.98 119.327 157.483 120.106C156.987 120.814 156.738 122.69 156.738 125.735V126.478C156.738 131.009 156.916 133.558 157.27 134.124ZM132.37 101.416C132.937 101.062 139.996 100.885 153.546 100.885C168.869 100.885 178.411 101.558 182.171 102.903C192.458 106.726 197.601 113.31 197.601 122.655C197.601 132.212 193.096 138.796 184.086 142.407L183.554 142.619L184.831 142.513C191.429 142.513 194.87 151.221 195.153 168.637L195.26 179.681C193.699 179.894 191.819 180 189.62 180C186.498 180 183.483 179.894 180.575 179.681L171.317 179.15L171.21 170.761C171.139 160.637 169.721 154.69 166.954 152.92C165.89 152.142 164.294 151.611 162.165 151.327L159.186 150.796L159.718 162.69C159.931 166.796 160.037 169.699 160.037 171.398C160.037 173.593 159.647 174.69 158.867 174.69C157.731 174.69 153.368 174.832 145.778 175.115L134.179 175.54L133.753 171.823L133.221 161.097L132.263 135.717C131.908 124.743 131.731 116.885 131.731 112.142C131.731 105.274 131.944 101.699 132.37 101.416Z" fill="#A94C2E"/>
<path d="M235.905 122.23C235.551 122.23 235.267 122.69 235.054 123.611C234.912 123.965 233.99 128.106 232.287 136.035C230.727 143.327 229.946 147.257 229.946 147.823C229.946 148.248 232.11 148.46 236.438 148.46C239.417 148.46 240.907 148.319 240.907 148.035L235.905 122.23ZM251.761 101.31C252.045 101.522 253.18 106.372 255.166 115.858C256.869 124 259.281 134.796 262.402 148.248C265.24 160.708 267.404 169.204 268.894 173.735C268.965 173.805 269 173.947 269 174.159C269 175.292 266.198 175.858 260.593 175.858H245.27L243.78 163.009C242.574 162.655 240.375 162.478 237.182 162.478C234.487 162.478 231.081 162.655 226.967 163.009L225.264 174.159L213.133 174.796L200.895 175.009C200.895 173.805 202.243 167.611 204.939 156.425C207.209 147.504 209.338 138.372 211.324 129.027C212.104 125.416 212.92 121.345 213.771 116.814L215.581 108.106C216.574 103.363 217.177 100.814 217.39 100.46C217.602 100.106 219.943 99.9292 224.413 99.9292C230.159 99.9292 235.905 100.071 241.652 100.354C248.037 100.637 251.406 100.956 251.761 101.31Z" fill="#A94C2E"/>
<path d="M45.8641 223.646C44.729 219.115 42.317 216.85 38.628 216.85C30.6116 216.85 26.6033 222.584 26.6033 234.053C26.6033 240.142 27.7384 244.389 30.0085 246.796C32.2077 249.204 34.7617 250.407 37.6703 250.407C41.714 250.407 44.4098 248.496 45.7577 244.673L46.7154 241.487H55.0157C61.8971 241.487 65.6925 241.522 66.4019 241.593L68.8494 241.805L68.743 244.035C68.1754 254.655 64.2736 262.442 57.0375 267.398C50.4399 272 42.9555 274.301 34.5843 274.301C23.5173 274.301 15.0043 270.938 9.04513 264.212C3.01504 257.487 0 248.035 0 235.858C0.0709422 216.743 5.81726 204.071 17.239 197.841C23.0562 194.513 29.6893 192.85 37.1382 192.85C47.7796 192.85 55.9024 196.319 61.5069 203.257C66.4019 209.274 68.8494 215.894 68.8494 223.115L45.8641 223.646Z" fill="#253E2E"/>
<path d="M124.286 209.841C124.286 209.699 120.597 209.947 113.219 210.584C110.524 210.796 106.728 211.257 101.833 211.965V217.593C101.833 220.496 102.188 221.982 102.897 222.053C103.607 222.195 104.316 222.265 105.026 222.265C106.232 222.265 109.495 222.053 114.816 221.628L121.945 221.097L121.733 238.513L102.897 240L102.578 250.407L113.007 249.876C116.554 249.735 120.065 249.664 123.542 249.664H124.18C124.677 249.664 124.925 253.239 124.925 260.389V271.115L99.5986 271.221C95.4839 271.221 88.7444 271.327 79.38 271.54H73.953C73.882 271.54 73.8466 271.434 73.8466 271.221L74.0594 267.292C74.2722 263.894 74.4496 260.106 74.5914 255.929C74.8043 249.133 74.9107 237.522 74.9107 221.097L74.8043 192C75.7265 192.283 80.9762 192.425 90.5534 192.425C110.63 192.425 122.194 192.283 125.244 192L124.712 199.965L124.286 209.841Z" fill="#253E2E"/>
<path d="M157.27 230.124C157.341 230.407 158.051 230.549 159.399 230.549C167.628 230.549 171.743 227.504 171.743 221.416C171.743 218.372 170.466 216.496 167.912 215.788C165.996 215.221 163.797 214.938 161.314 214.938C159.257 214.938 157.98 215.327 157.483 216.106C156.987 216.814 156.738 218.69 156.738 221.735V222.478C156.738 227.009 156.916 229.558 157.27 230.124ZM132.37 197.416C132.937 197.062 139.996 196.885 153.546 196.885C168.869 196.885 178.411 197.558 182.171 198.903C192.458 202.726 197.601 209.31 197.601 218.655C197.601 228.212 193.096 234.796 184.086 238.407L183.554 238.619L184.831 238.513C191.429 238.513 194.87 247.221 195.153 264.637L195.26 275.681C193.699 275.894 191.819 276 189.62 276C186.498 276 183.483 275.894 180.575 275.681L171.317 275.15L171.21 266.761C171.139 256.637 169.721 250.69 166.954 248.92C165.89 248.142 164.294 247.611 162.165 247.327L159.186 246.796L159.718 258.69C159.931 262.796 160.037 265.699 160.037 267.398C160.037 269.593 159.647 270.69 158.867 270.69C157.731 270.69 153.368 270.832 145.778 271.115L134.179 271.54L133.753 267.823L133.221 257.097L132.263 231.717C131.908 220.743 131.731 212.885 131.731 208.142C131.731 201.274 131.944 197.699 132.37 197.416Z" fill="#253E2E"/>
<path d="M235.905 218.23C235.551 218.23 235.267 218.69 235.054 219.611C234.912 219.965 233.99 224.106 232.287 232.035C230.727 239.327 229.946 243.257 229.946 243.823C229.946 244.248 232.11 244.46 236.438 244.46C239.417 244.46 240.907 244.319 240.907 244.035L235.905 218.23ZM251.761 197.31C252.045 197.522 253.18 202.372 255.166 211.858C256.869 220 259.281 230.796 262.402 244.248C265.24 256.708 267.404 265.204 268.894 269.735C268.965 269.805 269 269.947 269 270.159C269 271.292 266.198 271.858 260.593 271.858H245.27L243.78 259.009C242.574 258.655 240.375 258.478 237.182 258.478C234.487 258.478 231.081 258.655 226.967 259.009L225.264 270.159L213.133 270.796L200.895 271.009C200.895 269.805 202.243 263.611 204.939 252.425C207.209 243.504 209.338 234.372 211.324 225.027C212.104 221.416 212.92 217.345 213.771 212.814L215.581 204.106C216.574 199.363 217.177 196.814 217.39 196.46C217.602 196.106 219.943 195.929 224.413 195.929C230.159 195.929 235.905 196.071 241.652 196.354C248.037 196.637 251.406 196.956 251.761 197.31Z" fill="#253E2E"/>
</svg>
