<svg width="933" height="403" viewBox="0 0 933 403" fill="none" xmlns="http://www.w3.org/2000/svg">
<circle cx="17" cy="637.827" r="607" fill="#DEB35C"/>
<path fill-rule="evenodd" clip-rule="evenodd" d="M-295.445 402.715L-295.445 300.939H-375V300.116H-295.445L-295.445 194.5H-375V193.677H-295.445L-295.445 88.0592H-375V87.2362H-295.445V0L-294.622 2.98023e-08V87.2362H-207.11V0L-206.288 2.98023e-08V87.2362H-118.777V0L-117.954 2.98023e-08V87.2362H-30.443V0L-29.62 2.98023e-08V87.2362H57.8908V0L58.7138 2.98023e-08V87.2362H146.225V0L147.048 2.98023e-08V87.2362H234.559V0L235.382 2.98023e-08V87.2362H322.893V0L323.716 2.98023e-08V87.2362H411.227V0L412.05 2.98023e-08V87.2362H499.56V0L500.383 2.98023e-08V87.2362H587.894V0L588.717 2.98023e-08V87.2362H676.228V0L677.051 2.98023e-08V87.2362H764.562V0L765.385 2.98023e-08V87.2362H852.896V0L853.719 2.98023e-08V87.2362H933V88.0592H853.719V193.677H933V194.5H853.719V300.116H933V300.939H853.719V402.715H852.896V300.939H765.385V402.715H764.562V300.939H677.051V402.715H676.228V300.939H588.717V402.715H587.894V300.939H500.383V402.715H499.56V300.939H412.05V402.715H411.227V300.939H323.716V402.715H322.893V300.939H235.382V402.715H234.559V300.939H147.048V402.715H146.225V300.939H58.7138V402.715H57.8908V300.939H-29.62V402.715H-30.443V300.939H-117.954V402.715H-118.777V300.939H-206.288V402.715H-207.111V300.939H-294.622L-294.622 402.715H-295.445ZM852.896 300.116V194.5H765.385V300.116H852.896ZM852.896 193.677V88.0592H765.385V193.677H852.896ZM677.051 88.0592H764.562V193.677H677.051V88.0592ZM677.051 194.5H764.562V300.116H677.051V194.5ZM676.228 300.116V194.5H588.717V300.116H676.228ZM676.228 193.677V88.0592H588.717V193.677H676.228ZM500.383 88.0592H587.894V193.677H500.383V88.0592ZM500.383 194.5H587.894V300.116H500.383V194.5ZM499.56 300.116V194.5H412.05V300.116H499.56ZM499.56 193.677V88.0592H412.05V193.677H499.56ZM323.716 88.0592H411.227V193.677H323.716V88.0592ZM323.716 194.5H411.227V300.116H323.716V194.5ZM322.893 300.116V194.5H235.382V300.116H322.893ZM322.893 193.677V88.0592H235.382V193.677H322.893ZM147.048 88.0592H234.559V193.677H147.048V88.0592ZM147.048 194.5H234.559V300.116H147.048V194.5ZM146.225 300.116V194.5H58.7138L58.7138 300.116H146.225ZM146.225 193.677V88.0592H58.7138V193.677H146.225ZM-29.62 88.0592H57.8908V193.677H-29.62V88.0592ZM-29.62 194.5H57.8908V300.116H-29.62L-29.62 194.5ZM-30.443 300.116V194.5H-117.954L-117.954 300.116H-30.443ZM-30.443 193.677V88.0592H-117.954V193.677H-30.443ZM-206.288 88.0592H-118.777V193.677H-206.288V88.0592ZM-206.288 194.5H-118.777V300.116H-206.288L-206.288 194.5ZM-207.111 300.116L-207.11 194.5H-294.622V300.116H-207.111ZM-207.11 193.677V88.0592H-294.622L-294.622 193.677H-207.11Z" fill="url(#paint0_linear_6718_185)"/>
<rect x="783" y="0.827148" width="150" height="402" fill="url(#paint1_linear_6718_185)"/>
<defs>
<linearGradient id="paint0_linear_6718_185" x1="279" y1="0" x2="279" y2="402.715" gradientUnits="userSpaceOnUse">
<stop stop-color="#FEB833" stop-opacity="0"/>
<stop offset="1" stop-color="#FEB833" stop-opacity="0.6"/>
</linearGradient>
<linearGradient id="paint1_linear_6718_185" x1="783" y1="178.827" x2="933" y2="178.827" gradientUnits="userSpaceOnUse">
<stop stop-color="#253E2E" stop-opacity="0"/>
<stop offset="1" stop-color="#253E2E"/>
</linearGradient>
</defs>
</svg>
