<svg width="200" height="200" viewBox="0 0 200 200" fill="none" xmlns="http://www.w3.org/2000/svg">
<path d="M150 175.862C122.386 175.862 100 141.897 100 99.9998C100 58.1023 122.386 24.1377 150 24.1377C177.614 24.1377 200 58.1023 200 99.9998C200 141.897 177.614 175.862 150 175.862Z" fill="white"/>
<path d="M50 175.862C22.3858 175.862 0 141.897 0 99.9998C0 58.1023 22.3858 24.1377 50 24.1377C77.6142 24.1377 100 58.1023 100 99.9998C100 141.897 77.6142 175.862 50 175.862Z" fill="white"/>
<path d="M158.621 151.724C139.576 151.724 124.138 128.566 124.138 99.9995C124.138 71.4331 139.576 48.2754 158.621 48.2754C177.665 48.2754 193.104 71.4331 193.104 99.9995C193.104 128.566 177.665 151.724 158.621 151.724Z" fill="#00C9C4"/>
<path d="M58.6208 151.724C39.5765 151.724 24.138 128.566 24.138 99.9995C24.138 71.4331 39.5765 48.2754 58.6208 48.2754C77.6651 48.2754 93.1035 71.4331 93.1035 99.9995C93.1035 128.566 77.6651 151.724 58.6208 151.724Z" fill="#00C9C4"/>
<path d="M162.069 134.483C148.738 134.483 137.931 119.044 137.931 99.9998C137.931 80.9555 148.738 65.5171 162.069 65.5171C175.4 65.5171 186.207 80.9555 186.207 99.9998C186.207 119.044 175.4 134.483 162.069 134.483Z" fill="#18181B"/>
<path d="M62.0689 134.483C48.7378 134.483 37.9309 119.044 37.9309 99.9998C37.9309 80.9555 48.7378 65.5171 62.0689 65.5171C75.3999 65.5171 86.2068 80.9555 86.2068 99.9998C86.2068 119.044 75.3999 134.483 62.0689 134.483Z" fill="#18181B"/>
<path d="M144.828 86.2067C139.114 86.2067 134.483 81.5752 134.483 75.8619C134.483 70.1486 139.114 65.5171 144.828 65.5171C150.541 65.5171 155.172 70.1486 155.172 75.8619C155.172 81.5752 150.541 86.2067 144.828 86.2067Z" fill="white"/>
<path d="M44.8275 86.2067C39.1142 86.2067 34.4827 81.5752 34.4827 75.8619C34.4827 70.1486 39.1142 65.5171 44.8275 65.5171C50.5408 65.5171 55.1724 70.1486 55.1724 75.8619C55.1724 81.5752 50.5408 86.2067 44.8275 86.2067Z" fill="white"/>
<mask id="mask0_6701_2198" style="mask-type:alpha" maskUnits="userSpaceOnUse" x="100" y="174" width="100" height="2">
<rect x="100" y="174" width="100" height="2" fill="#D9D9D9"/>
</mask>
<g mask="url(#mask0_6701_2198)">
<path d="M150 175.862C122.386 175.862 100 141.897 100 99.9998C100 58.1023 122.386 24.1377 150 24.1377C177.614 24.1377 200 58.1023 200 99.9998C200 141.897 177.614 175.862 150 175.862Z" fill="white"/>
</g>
<mask id="mask1_6701_2198" style="mask-type:alpha" maskUnits="userSpaceOnUse" x="100" y="24" width="100" height="2">
<rect x="100" y="24" width="100" height="2" fill="#D9D9D9"/>
</mask>
<g mask="url(#mask1_6701_2198)">
<path d="M150 175.862C122.386 175.862 100 141.897 100 99.9998C100 58.1023 122.386 24.1377 150 24.1377C177.614 24.1377 200 58.1023 200 99.9998C200 141.897 177.614 175.862 150 175.862Z" fill="white"/>
</g>
<mask id="mask2_6701_2198" style="mask-type:alpha" maskUnits="userSpaceOnUse" x="0" y="174" width="100" height="2">
<rect y="174" width="100" height="2" fill="#D9D9D9"/>
</mask>
<g mask="url(#mask2_6701_2198)">
<path d="M50 175.862C22.3858 175.862 0 141.897 0 99.9998C0 58.1023 22.3858 24.1377 50 24.1377C77.6142 24.1377 100 58.1023 100 99.9998C100 141.897 77.6142 175.862 50 175.862Z" fill="white"/>
</g>
<mask id="mask3_6701_2198" style="mask-type:alpha" maskUnits="userSpaceOnUse" x="0" y="24" width="100" height="2">
<rect y="24" width="100" height="2" fill="#D9D9D9"/>
</mask>
<g mask="url(#mask3_6701_2198)">
<path d="M50 175.862C22.3858 175.862 0 141.897 0 99.9998C0 58.1023 22.3858 24.1377 50 24.1377C77.6142 24.1377 100 58.1023 100 99.9998C100 141.897 77.6142 175.862 50 175.862Z" fill="white"/>
</g>
</svg>
