<svg width="1404" height="107" viewBox="0 0 1404 107" fill="none" xmlns="http://www.w3.org/2000/svg">
<path d="M91.237 40.3206C91.237 40.3206 139.923 39.4279 159.433 43.2662C159.433 43.2662 159.191 84.9896 150.774 91.9009C142.97 98.3023 140.089 98.6721 140.968 106.718L112.315 106.642C112.315 106.642 114.266 100.534 110.951 97.0526C107.636 93.5714 89.1967 86.9916 91.237 40.3206Z" fill="#E59D13"/>
<path d="M144.564 49.2338C132.106 48.8895 119.622 48.9788 107.151 48.507C102.637 48.3412 98.1101 48.252 93.5961 48.0479C92.4867 47.9969 91.6833 47.9587 91.084 47.9204C91.1605 64.1533 93.9531 74.7754 97.4598 81.8908C102.675 81.8908 107.942 82.6559 113.144 82.8982C126.903 83.523 140.713 84.1478 154.409 85.729C157.864 75.9995 158.948 58.7211 159.293 49.4889C154.396 49.4634 149.474 49.3741 144.577 49.2338H144.564Z" fill="#E4DCCF"/>
<path d="M99.3851 56.8079C101.999 56.7441 104.601 56.7569 107.215 56.7951C118.168 56.9609 129.135 57.0374 140.088 57.3179C144.845 57.4454 149.55 57.8025 154.294 58.134C155.862 58.2361 157.303 58.3508 158.808 58.5166C158.884 57.3817 158.961 56.285 159.012 55.2267C152.738 54.9716 146.464 54.4106 140.19 54.13C129.976 53.6582 119.737 53.5689 109.51 53.5817C104.09 53.5817 98.6583 53.5434 93.2388 53.5817C92.4227 53.5817 91.7596 53.6072 91.2368 53.6455C91.2878 54.7166 91.3516 55.7495 91.4281 56.7569C94.0677 56.6421 96.7455 56.8716 99.3851 56.7951V56.8079Z" fill="#EEBB5D"/>
<path d="M118.908 72.7343C112.43 72.4921 105.94 72.3901 99.4617 72.4156C97.9442 72.4156 95.9295 72.5303 93.9912 72.5813C94.259 73.5632 94.5395 74.4941 94.8328 75.3867C95.1899 75.3867 95.5852 75.3867 96.057 75.3867C100.915 75.3229 105.799 75.5015 110.645 75.7947C124.595 76.6364 138.494 77.7457 152.381 79.4162C153.592 79.5565 154.804 79.7222 156.015 79.888C156.321 78.5236 156.602 77.1082 156.844 75.6417C144.233 74.2773 131.596 73.2189 118.895 72.7343H118.908Z" fill="#EEBB5D"/>
<path d="M95.8019 65.9511C99.8442 65.8746 103.848 65.9638 107.89 66.1169C120.336 66.5632 132.769 67.3155 145.202 68.1954C149.027 68.4632 152.827 68.7565 156.64 69.0625C157.023 69.088 157.418 69.139 157.813 69.1773C158.004 67.6216 158.17 66.0531 158.323 64.5102C154.102 64.2169 149.856 63.8343 145.635 63.7323C132.144 63.4135 118.666 62.7632 105.162 62.7377C101.757 62.7377 98.365 62.7504 94.9603 62.8014C93.4429 62.8269 92.5885 62.8014 92.0657 62.7759C92.2059 63.8598 92.3717 64.8927 92.5502 65.9001C93.7872 65.9128 94.9986 65.9511 95.8147 65.9383L95.8019 65.9511Z" fill="#EEBB5D"/>
<path d="M617.79 40.3206C617.79 40.3206 666.476 39.4279 685.986 43.2662C685.986 43.2662 685.743 84.9896 677.327 91.9009C669.523 98.3023 666.642 98.6721 667.521 106.718L638.868 106.642C638.868 106.642 640.819 100.534 637.504 97.0526C634.189 93.5714 615.75 86.9916 617.79 40.3206Z" fill="#E59D13"/>
<path d="M671.117 49.2338C658.659 48.8895 646.175 48.9788 633.704 48.507C629.19 48.3412 624.663 48.252 620.149 48.0479C619.04 47.9969 618.236 47.9587 617.637 47.9204C617.713 64.1533 620.506 74.7754 624.013 81.8908C629.228 81.8908 634.495 82.6559 639.697 82.8982C653.456 83.523 667.266 84.1478 680.962 85.729C684.417 75.9995 685.501 58.7211 685.846 49.4889C680.949 49.4634 676.027 49.3741 671.13 49.2338H671.117Z" fill="#E4DCCF"/>
<path d="M625.938 56.8079C628.552 56.7441 631.154 56.7569 633.768 56.7951C644.721 56.9609 655.688 57.0374 666.641 57.3179C671.398 57.4454 676.103 57.8025 680.847 58.134C682.415 58.2361 683.856 58.3508 685.361 58.5166C685.437 57.3817 685.514 56.285 685.565 55.2267C679.291 54.9716 673.017 54.4106 666.743 54.13C656.529 53.6582 646.29 53.5689 636.063 53.5817C630.643 53.5817 625.211 53.5434 619.792 53.5817C618.976 53.5817 618.313 53.6072 617.79 53.6455C617.841 54.7166 617.905 55.7495 617.981 56.7569C620.621 56.6421 623.299 56.8716 625.938 56.7951V56.8079Z" fill="#EEBB5D"/>
<path d="M645.461 72.7343C638.983 72.4921 632.492 72.3901 626.015 72.4156C624.497 72.4156 622.482 72.5303 620.544 72.5813C620.812 73.5632 621.093 74.4941 621.386 75.3867C621.743 75.3867 622.138 75.3867 622.61 75.3867C627.468 75.3229 632.352 75.5015 637.198 75.7947C651.148 76.6364 665.047 77.7457 678.934 79.4162C680.145 79.5565 681.357 79.7222 682.568 79.888C682.874 78.5236 683.155 77.1082 683.397 75.6417C670.786 74.2773 658.149 73.2189 645.448 72.7343H645.461Z" fill="#EEBB5D"/>
<path d="M622.355 65.9511C626.397 65.8746 630.401 65.9638 634.443 66.1169C646.889 66.5632 659.322 67.3155 671.755 68.1954C675.58 68.4632 679.38 68.7565 683.193 69.0625C683.576 69.088 683.971 69.139 684.366 69.1773C684.557 67.6216 684.723 66.0531 684.876 64.5102C680.655 64.2169 676.409 63.8343 672.188 63.7323C658.697 63.4135 645.219 62.7632 631.715 62.7377C628.31 62.7377 624.918 62.7504 621.513 62.8014C619.996 62.8269 619.141 62.8014 618.619 62.7759C618.759 63.8598 618.925 64.8927 619.103 65.9001C620.34 65.9128 621.552 65.9511 622.368 65.9383L622.355 65.9511Z" fill="#EEBB5D"/>
<path d="M1121.51 40.3206C1121.51 40.3206 1170.19 39.4279 1189.7 43.2662C1189.7 43.2662 1189.46 84.9896 1181.05 91.9009C1173.24 98.3023 1170.36 98.6721 1171.24 106.718L1142.59 106.642C1142.59 106.642 1144.54 100.534 1141.22 97.0526C1137.91 93.5714 1119.47 86.9916 1121.51 40.3206Z" fill="#E59D13"/>
<path d="M1174.84 49.2338C1162.38 48.8895 1149.89 48.9788 1137.42 48.507C1132.91 48.3412 1128.38 48.252 1123.87 48.0479C1122.76 47.9969 1121.95 47.9587 1121.35 47.9204C1121.43 64.1533 1124.22 74.7754 1127.73 81.8908C1132.95 81.8908 1138.21 82.6559 1143.41 82.8982C1157.17 83.523 1170.98 84.1478 1184.68 85.729C1188.13 75.9995 1189.22 58.7211 1189.56 49.4889C1184.67 49.4634 1179.74 49.3741 1174.85 49.2338H1174.84Z" fill="#E4DCCF"/>
<path d="M1129.66 56.8079C1132.27 56.7441 1134.87 56.7569 1137.49 56.7951C1148.44 56.9609 1159.41 57.0374 1170.36 57.3179C1175.12 57.4454 1179.82 57.8025 1184.56 58.134C1186.13 58.2361 1187.57 58.3508 1189.08 58.5166C1189.16 57.3817 1189.23 56.285 1189.28 55.2267C1183.01 54.9716 1176.73 54.4106 1170.46 54.13C1160.25 53.6582 1150.01 53.5689 1139.78 53.5817C1134.36 53.5817 1128.93 53.5434 1123.51 53.5817C1122.69 53.5817 1122.03 53.6072 1121.51 53.6455C1121.56 54.7166 1121.62 55.7495 1121.7 56.7569C1124.34 56.6421 1127.02 56.8716 1129.66 56.7951V56.8079Z" fill="#EEBB5D"/>
<path d="M1149.18 72.7343C1142.7 72.4921 1136.21 72.3901 1129.73 72.4156C1128.21 72.4156 1126.2 72.5303 1124.26 72.5813C1124.53 73.5632 1124.81 74.4941 1125.1 75.3867C1125.46 75.3867 1125.86 75.3867 1126.33 75.3867C1131.19 75.3229 1136.07 75.5015 1140.92 75.7947C1154.87 76.6364 1168.77 77.7457 1182.65 79.4162C1183.86 79.5565 1185.07 79.7222 1186.29 79.888C1186.59 78.5236 1186.87 77.1082 1187.11 75.6417C1174.5 74.2773 1161.87 73.2189 1149.17 72.7343H1149.18Z" fill="#EEBB5D"/>
<path d="M1126.07 65.9511C1130.11 65.8746 1134.12 65.9638 1138.16 66.1169C1150.61 66.5632 1163.04 67.3155 1175.47 68.1954C1179.3 68.4632 1183.1 68.7565 1186.91 69.0625C1187.29 69.088 1187.69 69.139 1188.08 69.1773C1188.28 67.6216 1188.44 66.0531 1188.59 64.5102C1184.37 64.2169 1180.13 63.8343 1175.91 63.7323C1162.41 63.4135 1148.94 62.7632 1135.43 62.7377C1132.03 62.7377 1128.64 62.7504 1125.23 62.8014C1123.71 62.8269 1122.86 62.8014 1122.34 62.7759C1122.48 63.8598 1122.64 64.8927 1122.82 65.9001C1124.06 65.9128 1125.27 65.9511 1126.09 65.9383L1126.07 65.9511Z" fill="#EEBB5D"/>
<path d="M43.1376 0.0127516L11.3987 0.459059L12.2148 15.251C12.2148 15.251 1.06988 18.0436 0.0369951 29.2778C-0.995888 40.512 19.9423 106.795 19.9423 106.795H44.8845C44.8845 106.795 53.0201 71.9193 54.9583 51.0321C56.8966 30.1321 55.0348 21.2442 44.6805 16.0671L43.1376 0V0.0127516Z" fill="#EEBB5D"/>
<path d="M54.9583 51.0322C55.4811 45.396 55.7234 40.6396 55.5959 36.5846L0.738281 36.7121C1.54163 41.29 2.91881 47.2577 4.57653 53.7738L54.4482 55.6355C54.6395 54.0416 54.8053 52.4986 54.9455 51.0195L54.9583 51.0322Z" fill="#E7A627"/>
<path d="M8.10857 66.9462L52.3695 69.777C52.8158 67.1757 53.2239 64.5998 53.5937 62.075L6.24683 60.124C6.84615 62.3811 7.47098 64.6636 8.10857 66.9462Z" fill="#DD970F"/>
<path d="M544.185 0.0127516L512.447 0.459059L513.263 15.251C513.263 15.251 502.118 18.0436 501.085 29.2778C500.052 40.512 520.99 106.795 520.99 106.795H545.932C545.932 106.795 554.068 71.9193 556.006 51.0321C557.944 30.1321 556.083 21.2442 545.728 16.0671L544.185 0V0.0127516Z" fill="#EEBB5D"/>
<path d="M556.006 51.0322C556.529 45.396 556.771 40.6396 556.644 36.5846L501.786 36.7121C502.589 41.29 503.967 47.2577 505.624 53.7738L555.496 55.6355C555.687 54.0416 555.853 52.4986 555.993 51.0195L556.006 51.0322Z" fill="#E7A627"/>
<path d="M509.156 66.9462L553.417 69.777C553.864 67.1757 554.272 64.5998 554.642 62.075L507.295 60.124C507.894 62.3811 508.519 64.6636 509.156 66.9462Z" fill="#DD970F"/>
<path d="M935.768 0.0127516L904.029 0.459059L904.845 15.251C904.845 15.251 893.7 18.0436 892.668 29.2778C891.635 40.512 912.573 106.795 912.573 106.795H937.515C937.515 106.795 945.651 71.9193 947.589 51.0321C949.527 30.1321 947.665 21.2442 937.311 16.0671L935.768 0V0.0127516Z" fill="#EEBB5D"/>
<path d="M947.589 51.0322C948.112 45.396 948.354 40.6396 948.227 36.5846L893.369 36.7121C894.172 41.29 895.55 47.2577 897.207 53.7738L947.079 55.6355C947.27 54.0416 947.436 52.4986 947.576 51.0195L947.589 51.0322Z" fill="#E7A627"/>
<path d="M900.739 66.9462L945 69.777C945.447 67.1757 945.855 64.5998 946.225 62.075L898.878 60.124C899.477 62.3811 900.102 64.6636 900.739 66.9462Z" fill="#DD970F"/>
<path d="M36.6341 61.0296C36.6341 61.0296 36.2898 82.2228 45.114 106.795H80.6018C80.6018 106.795 88.5588 82.2993 88.1635 61.1826C88.1635 61.1826 59.5106 56.643 36.6341 61.0296Z" fill="#C0861D"/>
<path d="M1181.87 61.0296C1181.87 61.0296 1181.53 82.2228 1190.35 106.795H1225.84C1225.84 106.795 1233.79 82.2993 1233.4 61.1826C1233.4 61.1826 1204.75 56.643 1181.87 61.0296Z" fill="#C0861D"/>
<path d="M679.772 61.0296C679.772 61.0296 679.428 82.2228 688.252 106.795H723.74C723.74 106.795 731.697 82.2993 731.302 61.1826C731.302 61.1826 702.649 56.643 679.772 61.0296Z" fill="#C0861D"/>
<path d="M295.378 1.53196C295.378 1.53196 283.803 -1.67974 274.596 1.19741L272.923 20.2401C272.923 20.2401 260.023 26.3022 258.377 38.6806C256.731 51.0456 264.493 86.5215 269.551 106.688L304.385 106.795C304.385 106.795 312.507 50.7512 311.035 35.5492C309.563 20.3471 296.783 20.0394 296.783 20.0394L295.378 1.54534V1.53196Z" fill="#C0861D"/>
<path d="M291.832 65.043C278.222 64.1331 272.053 74.4774 267.276 77.5285C265.71 78.5322 264.372 78.9738 263.275 79.121C263.837 81.8777 264.426 84.621 265.014 87.3242C274.783 87.4714 276.309 76.4044 284.525 73.5139C294.535 69.981 301.133 75.9896 305.348 79.3351C306.218 80.031 307.034 80.593 307.77 81.0614C308.078 78.5188 308.386 75.8825 308.68 73.2329C303.742 71.7475 301.614 65.7121 291.832 65.0564V65.043Z" fill="#E7A627"/>
<path d="M296.034 10.2437L295.378 1.53196C295.378 1.53196 283.803 -1.67974 274.596 1.19741L273.887 9.30694C279.427 8.65122 288.353 8.1427 296.047 10.2437H296.034Z" fill="#E59D13"/>
<path d="M1316.99 1.53196C1316.99 1.53196 1305.41 -1.67974 1296.21 1.19741L1294.53 20.2401C1294.53 20.2401 1281.63 26.3022 1279.99 38.6806C1278.34 51.0456 1286.1 86.5215 1291.16 106.688L1326 106.795C1326 106.795 1334.12 50.7512 1332.65 35.5492C1331.17 20.3471 1318.39 20.0394 1318.39 20.0394L1316.99 1.54534V1.53196Z" fill="#C0861D"/>
<path d="M1313.44 65.043C1299.83 64.1331 1293.66 74.4774 1288.89 77.5285C1287.32 78.5322 1285.98 78.9738 1284.89 79.121C1285.45 81.8777 1286.04 84.621 1286.63 87.3242C1296.39 87.4714 1297.92 76.4044 1306.14 73.5139C1316.15 69.981 1322.74 75.9896 1326.96 79.3351C1327.83 80.031 1328.65 80.593 1329.38 81.0614C1329.69 78.5188 1330 75.8825 1330.29 73.2329C1325.35 71.7475 1323.23 65.7121 1313.44 65.0564V65.043Z" fill="#E7A627"/>
<path d="M1317.65 10.2437L1316.99 1.53196C1316.99 1.53196 1305.41 -1.67974 1296.21 1.19741L1295.5 9.30694C1301.04 8.65122 1309.96 8.1427 1317.66 10.2437H1317.65Z" fill="#E59D13"/>
<path d="M885.489 1.53196C885.489 1.53196 873.914 -1.67974 864.707 1.19741L863.034 20.2401C863.034 20.2401 850.134 26.3022 848.488 38.6806C846.842 51.0456 854.604 86.5215 859.662 106.688L894.496 106.795C894.496 106.795 902.619 50.7512 901.146 35.5492C899.674 20.3471 886.895 20.0394 886.895 20.0394L885.489 1.54534V1.53196Z" fill="#C0861D"/>
<path d="M881.943 65.043C868.334 64.1331 862.164 74.4774 857.387 77.5285C855.821 78.5322 854.483 78.9738 853.386 79.121C853.948 81.8777 854.537 84.621 855.126 87.3242C864.894 87.4714 866.42 76.4044 874.637 73.5139C884.646 69.981 891.244 75.9896 895.459 79.3351C896.329 80.031 897.145 80.593 897.881 81.0614C898.189 78.5188 898.497 75.8825 898.791 73.2329C893.853 71.7475 891.725 65.7121 881.943 65.0564V65.043Z" fill="#E7A627"/>
<path d="M886.145 10.2437L885.489 1.53196C885.489 1.53196 873.914 -1.67974 864.707 1.19741L863.998 9.30694C869.538 8.65122 878.464 8.1427 886.158 10.2437H886.145Z" fill="#E59D13"/>
<path d="M204.624 28.6308C204.624 28.6308 210.19 79.1213 216.774 106.608L245.76 106.635C245.76 106.635 253.736 54.1236 253.562 28.3364C253.562 28.3364 228.444 24.2548 204.637 28.6442L204.624 28.6308Z" fill="#EEBB5D"/>
<path d="M246.175 46.2815C242.307 46.2279 238.775 68.6697 233.729 68.2816C228.684 67.8935 227.748 50.2961 223.787 49.908C219.812 49.5199 215.597 67.4519 212.519 69.2183C211.676 69.7001 210.806 69.6867 209.976 69.4191C210.632 73.7548 211.315 78.1575 212.051 82.5067C218.902 80.3388 219.692 68.6697 222.85 68.5358C226.276 68.3886 229.367 82.9885 234.024 83.5371C238.681 84.0724 240.889 67.5589 244.756 68.2414C247.031 68.6429 248.838 72.3631 249.935 75.3607C250.444 71.0918 250.939 66.6356 251.407 62.1526C249.815 55.4214 248.784 46.3082 246.188 46.2815H246.175Z" fill="#E7A627"/>
<path d="M1226.37 28.6308C1226.37 28.6308 1231.93 79.1213 1238.52 106.608L1267.5 106.635C1267.5 106.635 1275.48 54.1236 1275.3 28.3364C1275.3 28.3364 1250.19 24.2548 1226.38 28.6442L1226.37 28.6308Z" fill="#EEBB5D"/>
<path d="M1267.92 46.2815C1264.05 46.2279 1260.52 68.6697 1255.47 68.2816C1250.43 67.8935 1249.49 50.2961 1245.53 49.908C1241.55 49.5199 1237.34 67.4519 1234.26 69.2183C1233.42 69.7001 1232.55 69.6867 1231.72 69.4191C1232.37 73.7548 1233.06 78.1575 1233.79 82.5067C1240.64 80.3388 1241.43 68.6697 1244.59 68.5358C1248.02 68.3886 1251.11 82.9885 1255.77 83.5371C1260.42 84.0724 1262.63 67.5589 1266.5 68.2414C1268.77 68.6429 1270.58 72.3631 1271.68 75.3607C1272.19 71.0918 1272.68 66.6356 1273.15 62.1526C1271.56 55.4214 1270.53 46.3082 1267.93 46.2815H1267.92Z" fill="#E7A627"/>
<path d="M794.735 28.6308C794.735 28.6308 800.302 79.1213 806.886 106.608L835.871 106.635C835.871 106.635 843.847 54.1236 843.673 28.3364C843.673 28.3364 818.555 24.2548 794.748 28.6442L794.735 28.6308Z" fill="#EEBB5D"/>
<path d="M836.286 46.2815C832.419 46.2279 828.886 68.6697 823.841 68.2816C818.796 67.8935 817.859 50.2961 813.898 49.908C809.923 49.5199 805.708 67.4519 802.63 69.2183C801.787 69.7001 800.917 69.6867 800.088 69.4191C800.743 73.7548 801.426 78.1575 802.162 82.5067C809.013 80.3388 809.803 68.6697 812.961 68.5358C816.387 68.3886 819.478 82.9885 824.135 83.5371C828.792 84.0724 831 67.5589 834.868 68.2414C837.143 68.6429 838.949 72.3631 840.046 75.3607C840.555 71.0918 841.05 66.6356 841.519 62.1526C839.926 55.4214 838.896 46.3082 836.3 46.2815H836.286Z" fill="#E7A627"/>
<path d="M153.859 66.0464C153.859 66.0464 151.249 86.2399 174.668 98.0429L175.136 106.621L208.203 106.581L208.444 98.1098C208.444 98.1098 224.248 86.6414 221.987 64.4807L153.859 66.0464Z" fill="#E59D13"/>
<path d="M221.96 64.4807L153.859 66.0464C153.859 66.0464 153.457 69.1377 154.38 73.6073L222.067 71.8676C222.254 69.5927 222.241 67.1437 221.973 64.4807H221.96Z" fill="#BF7E00"/>
<path d="M935.435 66.0464C935.435 66.0464 932.826 86.2399 956.245 98.0429L956.713 106.621L989.78 106.581L990.021 98.1098C990.021 98.1098 1005.83 86.6414 1003.56 64.4807L935.435 66.0464Z" fill="#E59D13"/>
<path d="M1003.54 64.4807L935.435 66.0464C935.435 66.0464 935.034 69.1377 935.957 73.6073L1003.64 71.8676C1003.83 69.5927 1003.82 67.1437 1003.55 64.4807H1003.54Z" fill="#BF7E00"/>
<path d="M559.872 66.0464C559.872 66.0464 557.263 86.2399 580.681 98.0429L581.15 106.621L614.217 106.581L614.458 98.1098C614.458 98.1098 630.262 86.6414 628 64.4807L559.872 66.0464Z" fill="#E59D13"/>
<path d="M627.973 64.4807L559.872 66.0464C559.872 66.0464 559.471 69.1377 560.394 73.6073L628.08 71.8676C628.268 69.5927 628.254 67.1437 627.987 64.4807H627.973Z" fill="#BF7E00"/>
<path d="M401.682 1.4835C401.682 1.4835 416.198 -1.7911 431.167 1.38994C431.167 1.38994 431.114 15.21 435.778 27.5733C440.443 39.9366 447.406 76.7724 435.818 102.247C435.818 102.247 418.643 113.127 399.303 101.232C399.303 101.232 388.785 78.8441 391.137 58.1139C393.476 37.3837 405.077 19.7277 401.682 1.4835Z" fill="#C0861D"/>
<path d="M413.244 92.9713C412.869 89.3492 410.597 86.1147 410.45 82.4659C410.397 81.009 410.744 79.4586 411.239 78.0953C413.645 71.5862 418.296 66.2533 420.501 59.6506C421.824 55.6543 422.052 51.0565 419.298 47.5948C417.28 45.0553 413.671 44.5875 410.704 44.0663C406.574 43.3445 402.27 43.1975 398.421 41.4733C397.472 41.0456 396.309 40.4442 395.24 39.6957C393.462 45.6167 391.859 51.7248 391.123 58.127C388.771 78.8571 399.29 101.245 399.29 101.245C401.736 102.742 404.142 103.878 406.481 104.733C410.156 101.779 413.792 98.2641 413.244 92.9846V92.9713Z" fill="#E7A627"/>
<path d="M1019.23 1.4835C1019.23 1.4835 1033.74 -1.7911 1048.71 1.38994C1048.71 1.38994 1048.66 15.21 1053.32 27.5733C1057.99 39.9366 1064.95 76.7724 1053.36 102.247C1053.36 102.247 1036.19 113.127 1016.85 101.232C1016.85 101.232 1006.33 78.8441 1008.68 58.1139C1011.02 37.3837 1022.62 19.7277 1019.23 1.4835Z" fill="#C0861D"/>
<path d="M1030.79 92.9713C1030.41 89.3492 1028.14 86.1147 1028 82.4659C1027.94 81.009 1028.29 79.4586 1028.78 78.0953C1031.19 71.5862 1035.84 66.2533 1038.05 59.6506C1039.37 55.6543 1039.6 51.0565 1036.84 47.5948C1034.83 45.0553 1031.22 44.5875 1028.25 44.0663C1024.12 43.3445 1019.82 43.1975 1015.97 41.4733C1015.02 41.0456 1013.85 40.4442 1012.79 39.6957C1011.01 45.6167 1009.4 51.7248 1008.67 58.127C1006.32 78.8571 1016.83 101.245 1016.83 101.245C1019.28 102.742 1021.69 103.878 1024.03 104.733C1027.7 101.779 1031.34 98.2641 1030.79 92.9846V92.9713Z" fill="#E7A627"/>
<path d="M496.396 53.3224L429.541 54.6723C429.541 54.6723 429.528 72.6224 446.903 98.2979L447.411 105.649H478.74L478.794 100.356C478.794 100.356 495.808 83.5957 496.396 53.3224Z" fill="#EEBB5D"/>
<path d="M1113.94 53.4535L1047.09 54.8034C1047.09 54.8034 1047.07 72.7535 1064.45 98.429L1064.96 105.78H1096.29L1096.34 100.487C1096.34 100.487 1113.35 83.7268 1113.94 53.4535Z" fill="#EEBB5D"/>
<path d="M337.647 97.708C340.825 100.669 338.962 105.876 338.962 105.876L366.415 105.94C365.573 99.0864 368.33 98.7801 375.809 93.3175C383.862 87.4337 384.105 51.9013 384.105 51.9013C365.407 48.6467 318.758 49.3997 318.758 49.3997C316.805 89.144 334.469 94.747 337.647 97.708Z" fill="#E59D13"/>
<path d="M324.705 84.7662C320.851 77.8231 317.89 66.9362 318.758 49.3997C318.758 49.3997 332.682 49.17 348.355 49.5018C346.709 57.7723 343.174 65.6599 338.056 72.3478C334.342 77.1977 329.798 81.3968 324.705 84.7662Z" fill="#C0861D"/>
<path d="M324.705 84.7661C329.798 81.3967 334.342 77.1976 338.056 72.3476C343.186 65.6598 346.709 57.7594 348.355 49.5017C350.193 49.54 352.057 49.5911 353.92 49.6421C353.295 59.6739 349.913 69.527 344.195 77.772C340.379 83.2728 335.529 88.0462 330.002 91.8369C328.228 90.0756 326.377 87.8037 324.705 84.7661Z" fill="#EEBB5D"/>
<path d="M1357.54 97.708C1360.72 100.669 1358.86 105.876 1358.86 105.876L1386.31 105.94C1385.47 99.0864 1388.22 98.7801 1395.7 93.3175C1403.76 87.4337 1404 51.9013 1404 51.9013C1385.3 48.6467 1338.65 49.3997 1338.65 49.3997C1336.7 89.144 1354.36 94.747 1357.54 97.708Z" fill="#E59D13"/>
<path d="M1344.6 84.7662C1340.75 77.8231 1337.79 66.9362 1338.65 49.3997C1338.65 49.3997 1352.58 49.17 1368.25 49.5018C1366.6 57.7723 1363.07 65.6599 1357.95 72.3478C1354.24 77.1977 1349.69 81.3968 1344.6 84.7662Z" fill="#C0861D"/>
<path d="M1344.6 84.7661C1349.69 81.3967 1354.24 77.1976 1357.95 72.3476C1363.08 65.6598 1366.6 57.7594 1368.25 49.5017C1370.09 49.54 1371.95 49.5911 1373.82 49.6421C1373.19 59.6739 1369.81 69.527 1364.09 77.772C1360.27 83.2728 1355.42 88.0462 1349.9 91.8369C1348.12 90.0756 1346.27 87.8037 1344.6 84.7661Z" fill="#EEBB5D"/>
<path d="M783.345 97.708C780.167 100.669 782.03 105.876 782.03 105.876L754.577 105.94C755.419 99.0864 752.663 98.7801 745.183 93.3175C737.13 87.4337 736.887 51.9013 736.887 51.9013C755.585 48.6467 802.234 49.3997 802.234 49.3997C804.187 89.144 786.523 94.747 783.345 97.708Z" fill="#E59D13"/>
<path d="M796.287 84.7662C800.141 77.8231 803.102 66.9362 802.234 49.3997C802.234 49.3997 788.31 49.17 772.637 49.5018C774.283 57.7723 777.819 65.6599 782.937 72.3478C786.651 77.1977 791.194 81.3968 796.287 84.7662Z" fill="#C0861D"/>
<path d="M796.287 84.7661C791.194 81.3967 786.651 77.1976 782.937 72.3476C777.806 65.6598 774.283 57.7594 772.637 49.5017C770.799 49.54 768.936 49.5911 767.072 49.6421C767.698 59.6739 771.08 69.527 776.798 77.772C780.614 83.2728 785.464 88.0462 790.99 91.8369C792.764 90.0756 794.615 87.8037 796.287 84.7661Z" fill="#EEBB5D"/>
</svg>
