<svg width="101" height="100" viewBox="0 0 101 100" fill="none" xmlns="http://www.w3.org/2000/svg">
<path d="M83.5702 53.8795L98.0089 62.5629C97.521 64.3609 96.9317 66.1307 96.2438 67.864L79.3897 66.4478L89.3434 80.0185C88.2076 81.506 86.9874 82.9276 85.6891 84.2761L70.7355 76.5142L74.7053 92.9309C73.0917 93.8719 71.4285 94.7238 69.7232 95.483L58.9437 82.5276L56.3131 99.2776C54.4681 99.5358 52.611 99.687 50.7509 99.7305L45.7792 83.6077L36.942 98.1538C35.1498 97.6844 33.3867 97.114 31.6609 96.4453L33.263 79.5708L19.5828 89.6736C18.1078 88.5534 16.6996 87.3482 15.3654 86.064L23.2867 71.0273L6.83028 75.17C5.90654 73.567 5.07419 71.9124 4.33714 70.2139L17.3822 59.2775L0.658544 56.86C0.422444 55.0171 0.29125 53.1611 0.2656 51.3011L16.4389 46.1592L1.99056 37.4758C2.4777 35.6777 3.06702 33.9078 3.75564 32.1748L20.6098 33.591L10.6561 20.0155C11.7932 18.5305 13.0133 17.1106 14.3104 15.7627L29.264 23.5149L25.2943 7.09341C26.908 6.15405 28.5712 5.3037 30.2763 4.54619L41.0704 17.4775L43.7011 0.722613C45.5462 0.466794 47.4032 0.315588 49.2632 0.269728L54.2301 16.3925L63.0721 1.85121C64.8649 2.31678 66.6282 2.88563 68.3532 3.55496L66.7559 20.4294L80.4361 10.3218C81.9111 11.442 83.3193 12.6472 84.6536 13.9314L76.7322 28.9729L93.1887 24.8302C94.1124 26.4332 94.9448 28.0878 95.6818 29.7863L82.6368 40.7179L99.3554 43.1691C99.5915 45.0136 99.7227 46.8712 99.7483 48.7328L83.5702 53.8795Z" fill="#A7D4BD"/>
<path d="M73.6106 39.1066L74.573 38.8392C74.5645 38.8086 74.5546 38.7785 74.5432 38.7489L73.6106 39.1066ZM70.7674 37.8852L71.0914 38.8301C71.0992 38.8274 71.107 38.8246 71.1148 38.8217L70.7674 37.8852ZM47.3002 45.932L46.9762 44.9872L46.9755 44.9874L47.3002 45.932ZM46.5739 41.0629L45.5809 41.1713L45.581 41.1716L46.5739 41.0629ZM44.1424 35.4327L43.4688 36.1703L43.4704 36.1718L44.1424 35.4327ZM41.7414 34.8788L41.1971 34.0412L41.1958 34.0421L41.7414 34.8788ZM41.447 37.7495L40.4962 38.0558L40.4989 38.0638L41.447 37.7495ZM39.7239 48.8314L40.4626 49.5038L40.4638 49.5024L39.7239 48.8314ZM33.2724 55.2343L32.4545 55.8078L32.4548 55.8082L33.2724 55.2343ZM38.7772 66.4235L37.8234 66.7202L37.8234 66.7204L38.7772 66.4235ZM39.2303 66.642L39.6556 67.5458L39.6573 67.545L39.2303 66.642ZM51.8041 62.8689L51.5335 61.9074C51.5133 61.9131 51.4932 61.9194 51.4734 61.9264L51.8041 62.8689ZM59.04 60.8323L59.3106 61.7938L59.3131 61.7931L59.04 60.8323ZM60.8076 57.9736L61.7688 57.7017L61.7666 57.694L60.8076 57.9736ZM58.1006 56.5305L57.8357 55.5674C57.8287 55.5693 57.8218 55.5713 57.8149 55.5733L58.1006 56.5305ZM57.1306 56.8201L56.1643 57.0731C56.2329 57.3351 56.4049 57.558 56.641 57.6907C56.8771 57.8235 57.1569 57.8547 57.4164 57.7772L57.1306 56.8201ZM57.1249 56.7412L56.8542 55.7797C56.3901 55.9104 56.0855 56.354 56.1304 56.8341L57.1249 56.7412ZM60.1375 55.8932L60.4082 56.8547L60.4106 56.854L60.1375 55.8932ZM61.9052 53.0344L62.8715 52.7815C62.8696 52.7741 62.8676 52.7668 62.8655 52.7595L61.9052 53.0344ZM59.1779 51.5879L58.9046 50.6271L58.8928 50.6306L59.1779 51.5879ZM56.9395 52.2544L55.9731 52.5074C56.0417 52.7693 56.2136 52.9921 56.4495 53.1249C56.6854 53.2577 56.9651 53.289 57.2245 53.2118L56.9395 52.2544ZM56.9022 52.1522L56.6312 51.1908C56.3336 51.2746 56.0916 51.4916 55.9759 51.7784C55.8602 52.0651 55.8838 52.3893 56.0399 52.6563L56.9022 52.1522ZM59.0032 51.5599L59.2742 52.5214L59.2752 52.5211L59.0032 51.5599ZM60.7712 48.7026L59.8105 48.9762L59.8117 48.9803L60.7712 48.7026ZM58.1908 47.2181L57.9807 46.2416C57.9673 46.2444 57.954 46.2476 57.9407 46.251L58.1908 47.2181ZM56.8489 47.5652L56.5113 46.6251C56.0089 46.8055 55.7371 47.3492 55.8943 47.8594C56.0516 48.3695 56.5822 48.6659 57.099 48.5322L56.8489 47.5652ZM72.1007 42.088L72.4383 43.0281C72.4544 43.0223 72.4704 43.0161 72.4862 43.0095L72.1007 42.088ZM55.5293 48.1168L55.6762 49.1048L55.7283 49.097L55.7794 49.0838L55.5293 48.1168ZM55.4713 47.8952L55.1643 46.9446L55.1423 46.9517L55.1207 46.9599L55.4713 47.8952ZM58.1493 47.0305L58.4562 47.981L58.4573 47.9807L58.1493 47.0305ZM58.2995 47.102L57.3543 47.4251L57.3559 47.4295L58.2995 47.102ZM58.2227 47.2481L57.919 46.2965L57.9158 46.2975L58.2227 47.2481ZM55.5433 48.1132L55.7934 49.0802L55.822 49.0728L55.8502 49.0637L55.5433 48.1132ZM56.482 52.5019L56.2319 51.5348L56.2179 51.5384L56.204 51.5424L56.482 52.5019ZM56.4166 52.2806L56.6946 53.2401L56.7091 53.2358L56.7235 53.2312L56.4166 52.2806ZM59.0961 51.4155L58.7997 50.4615L58.7891 50.4649L59.0961 51.4155ZM59.2466 51.4884L60.1947 51.1737L60.1919 51.1656L59.2466 51.4884ZM59.1684 51.6349L58.8645 50.6834L58.8615 50.6843L59.1684 51.6349ZM56.489 52.5L56.7391 53.4671L56.7677 53.4597L56.7959 53.4506L56.489 52.5ZM58.8485 56.4319L58.5984 55.4649V55.4649L58.8485 56.4319ZM56.1226 57.1369L56.3727 58.1039V58.1039L56.1226 57.1369ZM56.0642 56.914L56.3143 57.8811V57.8811L56.0642 56.914ZM58.7901 56.2091L58.54 55.242V55.242L58.7901 56.2091ZM73.6106 39.1066L74.5432 38.7489C74.394 38.3597 74.1668 38.0058 73.8763 37.7068L73.1599 38.4028L72.4435 39.0989C72.5474 39.2059 72.6265 39.3302 72.678 39.4643L73.6106 39.1066ZM73.1599 38.4028L73.8763 37.7068C73.586 37.4079 73.2386 37.1704 72.8556 37.0058L72.4613 37.9236L72.067 38.8414C72.212 38.9036 72.3394 38.9918 72.4435 39.0989L73.1599 38.4028ZM72.4613 37.9236L72.8556 37.0058C72.4726 36.8413 72.0608 36.7526 71.6438 36.7432L71.6212 37.7418L71.5985 38.7404C71.7628 38.7442 71.922 38.779 72.067 38.8414L72.4613 37.9236ZM71.6212 37.7418L71.6438 36.7432C71.2268 36.7337 70.8112 36.8036 70.4201 36.9487L70.7674 37.8852L71.1148 38.8217C71.2697 38.7643 71.4342 38.7367 71.5985 38.7404L71.6212 37.7418ZM70.7674 37.8852L70.4434 36.9403L46.9762 44.9872L47.3002 45.932L47.6242 46.8769L71.0914 38.8301L70.7674 37.8852ZM47.3002 45.932L46.9755 44.9874C47.2577 44.8904 47.544 44.9516 47.7446 45.0856C47.8985 45.1884 47.9599 45.3038 47.9638 45.3108C47.9751 45.3311 47.9458 45.2775 47.9031 45.0872C47.8244 44.7365 47.7606 44.2083 47.7116 43.6135C47.6635 43.0304 47.6329 42.4266 47.6122 41.9434C47.5934 41.508 47.5802 41.0763 47.5669 40.9542L46.5739 41.0629L45.581 41.1716C45.5804 41.1665 45.584 41.2268 45.5913 41.4108C45.5976 41.5681 45.6057 41.7832 45.6163 42.0292C45.6374 42.5219 45.6693 43.1559 45.7206 43.7777C45.7709 44.3878 45.8432 45.0314 45.9538 45.5245C46.0058 45.7561 46.0844 46.0424 46.2189 46.2837C46.2845 46.4012 46.4113 46.5974 46.6347 46.7467C46.9048 46.9272 47.2648 47.0005 47.625 46.8767L47.3002 45.932ZM46.5739 41.0629L47.5669 40.9546C47.332 38.8019 46.6856 36.3949 44.8143 34.6936L44.1424 35.4327L43.4704 36.1718C44.803 37.3832 45.3652 39.1941 45.5809 41.1713L46.5739 41.0629ZM44.1424 35.4327L44.8159 34.6951C44.4083 34.3228 43.8658 33.9725 43.2636 33.7948C42.6548 33.6152 41.89 33.591 41.1971 34.0412L41.7414 34.8788L42.2856 35.7164C42.341 35.6804 42.4547 35.6391 42.6983 35.7109C42.9486 35.7848 43.2325 35.9545 43.4688 36.1703L44.1424 35.4327ZM41.7414 34.8788L41.1958 34.0421C40.3616 34.5861 40.1431 35.45 40.1407 36.1577C40.1383 36.8447 40.3309 37.5423 40.4963 38.0558L41.447 37.7495L42.3978 37.4433C42.2441 36.9662 42.1372 36.5197 42.1384 36.1646C42.1396 35.8302 42.2279 35.754 42.287 35.7155L41.7414 34.8788ZM41.447 37.7495L40.4989 38.0638C41.7118 41.7237 41.5707 45.3082 38.984 48.1603L39.7239 48.8314L40.4638 49.5024C43.7042 45.9295 43.7422 41.4999 42.3952 37.4353L41.447 37.7495ZM39.7239 48.8314L38.9852 48.159C38.937 48.212 38.7993 48.3354 38.5343 48.5448C38.2854 48.7414 37.972 48.9771 37.6104 49.2467C36.8958 49.7796 36.0081 50.434 35.1783 51.1023C34.3586 51.7625 33.5391 52.4804 32.9814 53.1501C32.7066 53.4799 32.442 53.8602 32.2962 54.2655C32.1456 54.6842 32.0794 55.2729 32.4545 55.8078L33.2724 55.2343L34.0902 54.6608C34.2239 54.8515 34.1507 55.0121 34.1761 54.9417C34.2062 54.8578 34.3006 54.6877 34.5164 54.4286C34.9399 53.9201 35.628 53.3052 36.4315 52.6582C37.2249 52.0191 38.0759 51.3916 38.8047 50.8482C39.1647 50.5797 39.4991 50.3285 39.7728 50.1123C40.0304 49.9088 40.2901 49.6933 40.4626 49.5038L39.7239 48.8314ZM33.2724 55.2343L32.4548 55.8082C34.8057 59.1573 36.6152 62.8357 37.8234 66.7202L38.7772 66.4235L39.731 66.1268C38.4609 62.0434 36.5592 58.1782 34.0899 54.6604L33.2724 55.2343ZM38.7772 66.4235L37.8234 66.7204C37.884 66.915 38.0545 67.3932 38.5667 67.6077C39.0704 67.8187 39.5217 67.6088 39.6556 67.5458L39.2303 66.642L38.8049 65.7382C38.7843 65.7479 38.8236 65.7261 38.9013 65.7124C38.9897 65.6967 39.1531 65.6874 39.3385 65.7651C39.5249 65.8431 39.6334 65.9671 39.6846 66.0435C39.7298 66.1108 39.739 66.1527 39.7309 66.1266L38.7772 66.4235ZM39.2303 66.642L39.6573 67.545C42.3315 66.2805 44.6035 65.637 46.6154 65.1698C48.5821 64.7131 50.4703 64.3953 52.1347 63.8115L51.8041 62.8689L51.4734 61.9264C49.9454 62.4624 48.306 62.7263 46.1636 63.2238C44.0664 63.7108 41.6478 64.3939 38.8033 65.739L39.2303 66.642ZM51.8041 62.8689L52.0747 63.8304L59.3106 61.7938L59.04 60.8323L58.7694 59.8708L51.5335 61.9074L51.8041 62.8689ZM59.04 60.8323L59.3131 61.7931C60.1764 61.5478 60.8874 60.9396 61.3314 60.2348C61.7735 59.533 62.0259 58.6105 61.7688 57.7017L60.8076 57.9736L59.8465 58.2455C59.9101 58.4703 59.8682 58.8095 59.6411 59.1699C59.416 59.5273 59.0828 59.7817 58.7669 59.8715L59.04 60.8323ZM60.8076 57.9736L61.7666 57.694C61.5322 56.89 60.9792 56.2224 60.2411 55.8288L59.7712 56.7103L59.3013 57.5917C59.5768 57.7386 59.7687 57.9789 59.8487 58.2532L60.8076 57.9736ZM59.7712 56.7103L60.2411 55.8288C59.5044 55.4361 58.6407 55.3459 57.8357 55.5674L58.1006 56.5305L58.3656 57.4936C58.6874 57.405 59.0242 57.444 59.3013 57.5917L59.7712 56.7103ZM58.1006 56.5305L57.8149 55.5733L56.8448 55.863L57.1306 56.8201L57.4164 57.7772L58.3864 57.4876L58.1006 56.5305ZM57.1306 56.8201L58.0969 56.5671C58.1114 56.6223 58.1179 56.6688 58.1211 56.7009C58.1243 56.7319 58.1247 56.7548 58.1249 56.7598C58.1249 56.7624 58.1249 56.7641 58.1249 56.7603C58.1249 56.7581 58.1248 56.7502 58.1246 56.7418C58.1243 56.7247 58.1234 56.6903 58.1195 56.6484L57.1249 56.7412L56.1304 56.8341C56.1277 56.8055 56.1273 56.7845 56.1272 56.7807C56.1272 56.7788 56.1272 56.7776 56.1272 56.782C56.1273 56.7849 56.1274 56.7931 56.1276 56.8023C56.1282 56.8337 56.1302 56.9428 56.1643 57.0731L57.1306 56.8201ZM57.1249 56.7412L57.3956 57.7027L60.4082 56.8547L60.1375 55.8932L59.8669 54.9316L56.8542 55.7797L57.1249 56.7412ZM60.1375 55.8932L60.4106 56.854C61.2336 56.6201 61.9432 56.0434 62.3979 55.3477C62.8555 54.6476 63.1184 53.7248 62.8715 52.7815L61.9052 53.0344L60.9389 53.2874C61.0109 53.5627 60.9511 53.9098 60.7257 54.2547C60.4974 54.6039 60.1637 54.8473 59.8644 54.9323L60.1375 55.8932ZM61.9052 53.0344L62.8655 52.7595C62.7506 52.3582 62.5547 51.9854 62.2903 51.6623L61.5173 52.2949L60.7442 52.9274C60.8377 53.0417 60.9054 53.1715 60.9449 53.3093L61.9052 53.0344ZM61.5173 52.2949L62.2903 51.6623C62.026 51.3393 61.6993 51.0732 61.3305 50.8776L60.8624 51.7601L60.3944 52.6425C60.5323 52.7156 60.6506 52.813 60.7442 52.9274L61.5173 52.2949ZM60.8624 51.7601L61.3305 50.8776C60.9617 50.682 60.5578 50.5605 60.1423 50.5181L60.0408 51.5118L59.9392 52.5055C60.1019 52.5221 60.2564 52.5693 60.3944 52.6425L60.8624 51.7601ZM60.0408 51.5118L60.1423 50.5181C59.7268 50.4756 59.3064 50.5129 58.9046 50.6272L59.1779 51.5879L59.4512 52.5487C59.6105 52.5034 59.7766 52.4889 59.9392 52.5055L60.0408 51.5118ZM59.1779 51.5879L58.8928 50.6306L56.6544 51.2971L56.9395 52.2544L57.2245 53.2118L59.4629 52.5453L59.1779 51.5879ZM56.9395 52.2544L57.9058 52.0015C57.9018 51.9862 57.8637 51.8176 57.7646 51.6481L56.9022 52.1522L56.0399 52.6563C56.0057 52.5977 55.9871 52.5483 55.9782 52.5221C55.971 52.5007 55.9671 52.4842 55.9731 52.5074L56.9395 52.2544ZM56.9022 52.1522L57.1732 53.1136L59.2742 52.5214L59.0032 51.5599L58.7322 50.5985L56.6312 51.1908L56.9022 52.1522ZM59.0032 51.5599L59.2752 52.5211C60.139 52.2767 60.8519 51.6681 61.2969 50.9633C61.7399 50.2617 61.9945 49.336 61.7307 48.4248L60.7712 48.7026L59.8117 48.9803C59.8752 49.1996 59.8356 49.5357 59.6077 49.8967C59.3818 50.2545 59.047 50.5095 58.7312 50.5988L59.0032 51.5599ZM60.7712 48.7026L61.7319 48.4289C61.5107 47.6523 60.9917 46.9994 60.2924 46.597L59.7942 47.4629L59.2961 48.3287C59.5555 48.4779 59.7352 48.7115 59.8105 48.9762L60.7712 48.7026ZM59.7942 47.4629L60.2924 46.597C59.5944 46.1955 58.7681 46.0721 57.9807 46.2416L58.1908 47.2181L58.4009 48.1946C58.7151 48.127 59.0354 48.1787 59.2961 48.3287L59.7942 47.4629ZM58.1908 47.2181L57.9407 46.251L56.5988 46.5981L56.8489 47.5652L57.099 48.5322L58.441 48.1851L58.1908 47.2181ZM56.8489 47.5652L57.1865 48.5053L72.4383 43.0281L72.1007 42.088L71.7631 41.1479L56.5113 46.6251L56.8489 47.5652ZM72.1007 42.088L72.4862 43.0095C73.2798 42.6775 73.9346 42.0779 74.3223 41.3125L73.4312 40.8612L72.54 40.4099C72.3724 40.741 72.0818 41.0132 71.7152 41.1666L72.1007 42.088ZM73.4312 40.8612L74.3223 41.3125C74.7105 40.5459 74.8028 39.6664 74.573 38.8392L73.6106 39.1066L72.6482 39.374C72.7423 39.7127 72.7071 40.0801 72.54 40.4099L73.4312 40.8612ZM55.5293 48.1168L55.3824 47.1288C55.5852 47.0986 55.7985 47.1401 55.9813 47.2561L55.446 48.0994L54.9107 48.9428C55.1423 49.0898 55.415 49.1436 55.6762 49.1048L55.5293 48.1168ZM55.446 48.0994L55.9813 47.2561C56.1651 47.3728 56.305 47.5576 56.3632 47.7797L55.3969 48.0327L54.4305 48.2857C54.5031 48.5628 54.6779 48.795 54.9107 48.9428L55.446 48.0994ZM55.3969 48.0327L56.3632 47.7797C56.4214 48.0021 56.3901 48.2328 56.2856 48.4259L55.407 47.9507L54.5285 47.4754C54.3965 47.7193 54.358 48.0085 54.4305 48.2857L55.3969 48.0327ZM55.407 47.9507L56.2856 48.4259C56.1818 48.6179 56.0143 48.7584 55.8219 48.8305L55.4713 47.8952L55.1207 46.9599C54.873 47.0527 54.6597 47.2327 54.5285 47.4754L55.407 47.9507ZM55.4713 47.8952L55.7782 48.8457L58.4562 47.981L58.1493 47.0305L57.8424 46.0799L55.1643 46.9446L55.4713 47.8952ZM58.1493 47.0305L58.4573 47.9807C58.2485 48.0483 58.017 48.0363 57.8106 47.9379L58.2402 47.0362L58.6699 46.1344C58.4072 46.0093 58.1103 45.9931 57.8414 46.0802L58.1493 47.0305ZM58.2402 47.0362L57.8106 47.9379C57.6027 47.8388 57.4338 47.6576 57.3543 47.425L58.2995 47.102L59.2447 46.779C59.1456 46.4889 58.9341 46.2603 58.6699 46.1344L58.2402 47.0362ZM58.2995 47.102L57.3559 47.4295C57.3156 47.3134 57.2998 47.1904 57.3094 47.0682L58.3052 47.1466L59.301 47.2249C59.313 47.0725 59.2934 46.9192 59.2432 46.7745L58.2995 47.102ZM58.3052 47.1466L57.3094 47.0682C57.319 46.9464 57.3535 46.8299 57.4085 46.7251L58.2926 47.1901L59.1767 47.655C59.2461 47.5231 59.2891 47.3769 59.301 47.2249L58.3052 47.1466ZM58.2926 47.1901L57.4085 46.7251C57.4636 46.6204 57.538 46.5299 57.6255 46.4573L58.2636 47.2257L58.9017 47.9942C59.0132 47.9016 59.1073 47.7869 59.1767 47.655L58.2926 47.1901ZM58.2636 47.2257L57.6255 46.4573C57.7129 46.3847 57.8127 46.3304 57.919 46.2965L58.2227 47.2481L58.5265 48.1996C58.6627 48.1562 58.7903 48.0867 58.9017 47.9942L58.2636 47.2257ZM58.2227 47.2481L57.9158 46.2975L55.2364 47.1626L55.5433 48.1132L55.8502 49.0637L58.5296 48.1986L58.2227 47.2481ZM55.5433 48.1132L55.2932 47.1461L55.2792 47.1497L55.5293 48.1168L55.7794 49.0838L55.7934 49.0802L55.5433 48.1132ZM56.482 52.5019L56.204 51.5424C56.4158 51.4811 56.6485 51.5008 56.853 51.6075L56.3909 52.4931L55.9288 53.3786C56.1888 53.5143 56.487 53.5404 56.76 53.4613L56.482 52.5019ZM56.3909 52.4931L56.853 51.6075C57.059 51.715 57.2218 51.9043 57.2919 52.1415L56.334 52.4247L55.3761 52.7078C55.4635 53.0036 55.6673 53.2422 55.9288 53.3786L56.3909 52.4931ZM56.334 52.4247L57.2919 52.1415C57.3621 52.3789 57.3287 52.6286 57.2112 52.8335L56.3447 52.3367L55.4781 51.8398C55.3297 52.0987 55.2886 52.4117 55.3761 52.7078L56.334 52.4247ZM56.3447 52.3367L57.2112 52.8335C57.0947 53.0367 56.9066 53.1786 56.6946 53.2401L56.4166 52.2806L56.1386 51.3212C55.8655 51.4004 55.6256 51.5826 55.4781 51.8398L56.3447 52.3367ZM56.4166 52.2806L56.7235 53.2312L59.403 52.366L59.0961 51.4155L58.7891 50.4649L56.1097 51.3301L56.4166 52.2806ZM59.0961 51.4155L59.3925 52.3694C59.1849 52.4339 58.9557 52.4198 58.7518 52.321L59.1873 51.422L59.6228 50.5231C59.3626 50.397 59.0679 50.3782 58.7997 50.4616L59.0961 51.4155ZM59.1873 51.422L58.7518 52.321C58.5465 52.2215 58.38 52.0415 58.3014 51.8112L59.2466 51.4884L60.1919 51.1656C60.0935 50.8775 59.8844 50.6498 59.6228 50.5231L59.1873 51.422ZM59.2466 51.4884L58.2986 51.8031C58.2602 51.6873 58.2462 51.5654 58.2569 51.445L59.2518 51.5332L60.2468 51.6214C60.2602 51.4707 60.2426 51.3183 60.1946 51.1737L59.2466 51.4884ZM59.2518 51.5332L58.2569 51.445C58.2675 51.3248 58.3024 51.2097 58.3577 51.1063L59.2388 51.5768L60.1199 52.0472C60.1897 51.9166 60.2335 51.772 60.2468 51.6214L59.2518 51.5332ZM59.2388 51.5768L58.3577 51.1063C58.4128 51.003 58.4868 50.9138 58.5736 50.8422L59.2095 51.6125L59.8454 52.3828C59.9563 52.2912 60.0503 52.1777 60.1199 52.0472L59.2388 51.5768ZM59.2095 51.6125L58.5736 50.8422C58.6605 50.7705 58.7594 50.7169 58.8645 50.6834L59.1684 51.6349L59.4724 52.5864C59.6075 52.5432 59.7344 52.4745 59.8454 52.3828L59.2095 51.6125ZM59.1684 51.6349L58.8615 50.6843L56.182 51.5495L56.489 52.5L56.7959 53.4506L59.4754 52.5854L59.1684 51.6349ZM56.489 52.5L56.2389 51.533L56.2319 51.5348L56.482 52.5019L56.7321 53.4689L56.7391 53.4671L56.489 52.5ZM58.8485 56.4319L58.5984 55.4649L55.8725 56.1698L56.1226 57.1369L56.3727 58.1039L59.0985 57.399L58.8485 56.4319ZM56.1226 57.1369L55.8725 56.1698C56.0857 56.1147 56.3181 56.1409 56.52 56.254L56.0319 57.1255L55.5438 57.997C55.8002 58.1406 56.0978 58.175 56.3727 58.1039L56.1226 57.1369ZM56.0319 57.1255L56.52 56.254C56.7236 56.368 56.8809 56.563 56.9436 56.8025L55.9773 57.0555L55.011 57.3085C55.0892 57.6071 55.2857 57.8524 55.5438 57.997L56.0319 57.1255ZM55.9773 57.0555L56.9436 56.8025C57.0064 57.0423 56.9648 57.2905 56.8416 57.491L55.9907 56.9679L55.1397 56.4448C54.9838 56.6983 54.9327 57.0096 55.011 57.3085L55.9773 57.0555ZM55.9907 56.9679L56.8416 57.491C56.7193 57.6899 56.5276 57.8259 56.3143 57.8811L56.0642 56.914L55.8141 55.947C55.5392 56.0181 55.2946 56.1928 55.1397 56.4448L55.9907 56.9679ZM56.0642 56.914L56.3143 57.8811L59.0402 57.1761L58.7901 56.2091L58.54 55.242L55.8141 55.947L56.0642 56.914ZM58.7901 56.2091L59.0402 57.1761C58.827 57.2313 58.5946 57.2051 58.3926 57.092L58.8808 56.2205L59.3689 55.349C59.1124 55.2053 58.8148 55.171 58.54 55.242L58.7901 56.2091ZM58.8808 56.2205L58.3926 57.092C58.1891 56.978 58.0319 56.7831 57.9691 56.5435L58.9354 56.2905L59.9017 56.0375C59.8235 55.7388 59.6269 55.4935 59.3689 55.349L58.8808 56.2205ZM58.9354 56.2905L57.9691 56.5435C57.9064 56.3037 57.9478 56.0555 58.0711 55.8549L58.922 56.3781L59.773 56.9012C59.9289 56.6476 59.98 56.3363 59.9017 56.0375L58.9354 56.2905ZM58.922 56.3781L58.0711 55.8549C58.1933 55.6561 58.385 55.52 58.5984 55.4649L58.8485 56.4319L59.0985 57.399C59.3735 57.3279 59.6181 57.1531 59.773 56.9012L58.922 56.3781Z" fill="#253E2E"/>
</svg>
