<svg width="1440" height="709" viewBox="0 0 1440 709" fill="none" xmlns="http://www.w3.org/2000/svg">
<path d="M1318.46 109.696C1274.72 151.653 1390.32 244.465 1419 351.481C1310.78 157.961 1207.87 143.475 1207.01 206.951C1206.14 270.428 1335.59 266.014 1411.29 394.24C1330.73 293.442 1187.84 273.961 1181.14 315.652C1174.44 357.342 1183.76 376.824 1303.25 391.548C1422.73 406.273 1451.44 503.202 1451.44 503.202L1479.65 495.643C1448.96 201.446 1362.24 67.6942 1318.46 109.696Z" fill="#DEB35C"/>
<path d="M1464.83 494.858C1463.84 495.124 1462.76 494.652 1462.34 493.661C1387.55 323.397 1205.04 323.812 1203.22 323.843C1202.05 323.853 1201.08 322.934 1201.07 321.758C1201.06 320.582 1201.98 319.613 1203.15 319.602C1205.01 319.562 1390.32 319.118 1466.22 491.939C1466.7 493.026 1466.2 494.265 1465.14 494.737C1465.04 494.765 1464.93 494.794 1464.82 494.822L1464.83 494.858Z" fill="#A94C2E"/>
<path d="M1456.85 452.426C1455.78 452.712 1454.68 452.133 1454.32 451.088C1388.12 269.888 1230.02 189.794 1228.44 189.001C1227.39 188.484 1226.96 187.19 1227.48 186.139C1228 185.088 1229.26 184.674 1230.34 185.182C1231.96 185.966 1391.53 266.846 1458.34 449.63C1458.75 450.737 1458.17 451.959 1457.1 452.36C1457.03 452.379 1456.99 452.388 1456.92 452.407L1456.85 452.426Z" fill="#A94C2E"/>
<path d="M1457.74 422.257C1457.74 422.257 1457.7 422.266 1457.67 422.276C1456.52 422.545 1455.38 421.824 1455.11 420.679C1406.26 209.542 1334.75 123.625 1334.03 122.791C1333.26 121.895 1333.4 120.565 1334.26 119.802C1335.15 119.029 1336.48 119.167 1337.24 120.028C1337.96 120.862 1410.13 207.401 1459.22 419.692C1459.48 420.802 1458.8 421.936 1457.7 422.231L1457.74 422.257Z" fill="#A94C2E"/>
<path d="M-184.22 221.492C-184.599 219.975 -185.016 218.496 -185.395 216.98C-65.5498 295.499 -42.1192 360.255 -42.1192 360.255C-42.1192 360.255 -68.2796 262.438 -7.69358 143.996C61.1955 212.885 34.3147 363.744 34.3147 363.744C34.3147 363.744 66.7309 232.145 172.775 161.891C200.301 252.808 103.773 387.932 103.773 387.932C103.773 387.932 203.068 282.419 314.004 282.419C271.957 401.581 120.682 459.665 120.682 459.665C120.682 459.665 232.414 419.06 299.938 486.584C210.007 548.99 97.0618 529.692 97.0618 529.692C97.0618 529.692 177.932 544.44 220.85 664.474C196.054 656.209 171.448 645.631 147.639 633.727C-17.2099 551.151 -137.662 399.913 -184.182 221.529L-184.22 221.492Z" fill="#153143"/>
<path d="M-20.8502 486.167L-9.24864 436.045L-65.9296 440.708L-39.4658 384.217L-104.298 388.918L-77.7965 331.1L-134.591 340.503L-110.706 292.276L-151.652 297.509L-137.624 267.329L-160.941 262.893L-160.372 259.822L-133.113 265.017L-146.458 293.679L-105.36 288.447L-129.094 336.446L-72.5644 327.081L-99.2935 385.43L-34.4233 380.691L-60.8112 437.182L-5.19188 432.595L-17.8172 486.849L-20.8502 486.167Z" fill="#A7D4BD"/>
<path d="M-1.05847 420.273L18.9599 387.971L-29.0766 364.806L23.32 323.859L-34.3467 293.035L22.4101 269.339L-27.1052 238.857L15.1686 219.483L-19.4845 197.948L8.49577 187.408L-8.64121 174.062L-6.7455 171.636L14.7515 188.356L-12.4326 198.63L21.7276 219.9L-20.5082 239.236L29.2345 269.87L-27.1051 293.376L29.007 323.404L-23.2001 364.161L23.4337 386.682L1.63336 421.904L-1.05847 420.273Z" fill="#A7D4BD"/>
<path d="M-3.3709 500.233L7.77568 440.936L54.0682 433.846L36.0213 398.889L91.5269 391.686L51.983 339.251L118.446 339.517L72.7218 288.409L146.426 280.675L109.688 236.202L158.103 239.956L135.696 203.52L164.928 206.516L157.155 186.004L160.075 184.905L169.591 210.117L141.687 207.236L163.904 243.557L116.74 239.842L152.492 283.177L79.1292 290.874L125.422 342.701L58.2767 342.36L97.1761 394.074L40.8364 401.354L58.8454 436.272L10.4296 443.741L-0.299919 500.801L-3.3709 500.233Z" fill="#A7D4BD"/>
<path d="M24.0786 464.366L24.6852 461.333L81.5936 473.655L71.319 436.385L134.976 441.807L128.152 387.894L183.657 406.547L170.729 343.952L224.528 377.506L212.775 319.043L256.262 346.833L256.224 298.039L285.796 318.284L292.507 295.878L295.464 296.787L287.541 323.289L259.333 303.953L259.371 352.521L217.249 325.64L229.002 383.951L175.24 350.435L187.79 411.211L131.829 392.406L138.578 445.257L75.4894 439.874L85.9536 477.787L24.0786 464.366Z" fill="#A7D4BD"/>
<path d="M33.5182 480.328L34.9968 477.56L88.6446 506.413L120.189 468.423L153.363 512.365L180.092 460.31L209.779 508.953L230.745 469.636L253.114 498.147L273.663 477.598L275.862 479.797L252.811 502.849L231.276 475.323L210.006 515.247L180.358 466.641L153.856 518.242L120.037 473.428L89.4408 510.394L33.5182 480.328Z" fill="#A7D4BD"/>
<path d="M22.3727 537.729L22.3727 489.276L25.4816 489.276L25.4815 533.407L69.3477 518.735L75.755 578.07L130.275 556.762L125.574 602.713L161.629 583.795L157.649 624.021L190.558 613.784L192.946 644.987L189.837 645.215L187.79 617.917L154.123 628.381L157.99 589.254L121.858 608.173L126.673 561.501L73.1011 582.468L66.6937 522.905L22.3727 537.729Z" fill="#A7D4BD"/>
<g opacity="0.3">
<path d="M828.495 581.396C831.88 581.461 835.265 581.636 838.65 581.57C843.542 581.483 848.412 581.396 853.304 582.007C856.012 582.335 858.807 582.007 861.559 581.985C861.93 581.985 862.323 581.811 862.673 581.876C867.412 582.706 872.173 581.614 876.912 582.204C879.664 582.553 882.415 582.597 885.189 582.466C888.203 582.335 891.216 582.641 894.165 583.187C895.431 583.427 896.611 583.449 897.877 583.405C903.381 583.274 908.906 583.318 914.322 584.562C915.785 584.89 917.248 584.977 918.777 585.021C920.874 585.086 922.948 585.764 925.001 586.331C926.574 586.768 928.081 587.401 929.609 587.969C930.068 588.144 930.526 588.384 930.92 588.69C931.749 589.345 932.317 590.197 932.055 591.311C931.837 592.228 931.16 592.861 930.264 593.08C927.949 593.669 925.613 594.215 923.189 593.844C918.362 593.101 913.427 593.429 908.644 592.337C908.273 592.25 907.879 592.162 907.53 592.25C904.538 592.992 901.568 592.097 898.576 592.075C895.584 592.053 892.57 591.747 889.578 591.551C884.446 591.201 879.314 590.459 874.182 590.546C866.385 590.721 858.654 589.913 850.88 589.826C846.032 589.782 841.161 589.018 836.27 588.755C830.373 588.45 824.52 587.795 818.624 587.358C814.103 587.008 809.757 585.851 805.411 584.672C804.952 584.541 804.516 584.257 804.101 583.973C803.686 583.711 803.795 583.252 804.057 583.034C805.258 582.051 806.7 581.614 808.206 581.439C814.955 580.719 821.725 580.937 828.473 581.374L828.495 581.396Z" fill="#DEB35C"/>
<path d="M833.758 629.289C836.75 627.455 839.982 627.324 843.192 627.324C851.36 627.28 859.463 628.022 867.587 628.852C872.828 629.398 878.047 630.01 883.289 630.49C890.911 631.167 898.532 631.691 906.154 632.412C908.644 632.652 911.112 633.176 913.579 633.635C914.3 633.766 915.021 634.072 915.72 634.356C917.292 634.967 917.794 635.513 917.554 636.321C917.248 637.391 916.331 637.457 915.458 637.544C914.453 637.632 913.448 637.741 912.444 637.763C907.443 637.828 902.42 637.894 897.419 637.894C896.174 637.894 894.929 637.61 893.706 637.479C889.709 637.107 885.691 636.955 881.716 636.387C868.067 634.443 854.374 632.914 840.812 630.403C838.475 629.966 836.117 629.66 833.78 629.311L833.758 629.289Z" fill="#DEB35C"/>
<path d="M920.458 606.752C923.931 607.123 927.425 607.494 930.897 607.865C932.557 608.04 934.064 608.608 935.353 609.722C936.335 610.551 936.139 611.84 935.003 612.539C934.326 612.954 933.584 613.041 932.841 613.019C929.827 612.932 926.814 613.412 923.822 613.434C917.335 613.522 910.806 614.22 904.319 613.128C903.577 612.997 902.812 612.932 902.07 612.976C900.694 613.063 899.34 613.369 897.964 612.976C893.88 611.796 889.556 611.425 885.691 609.46C885.385 609.307 884.992 609.088 885.188 608.608C885.276 608.389 885.451 608.171 885.647 608.084C886.215 607.822 886.805 607.538 887.416 607.45C891.631 606.817 895.802 606.053 900.104 606.249C904.232 606.446 908.36 606.795 912.531 606.533C915.13 606.38 917.794 606.883 920.415 607.079C920.415 606.97 920.415 606.861 920.437 606.752H920.458Z" fill="#DEB35C"/>
<path d="M822.139 640.295C825.524 640.557 828.909 640.907 832.294 641.06C834.456 641.169 836.509 641.78 838.606 642.152C839.195 642.261 839.785 642.567 840.309 642.872C840.855 643.2 841.205 643.746 841.074 644.445C840.986 645.013 840.593 645.384 840.113 645.515C839.043 645.821 837.929 646.17 836.837 646.257C832.578 646.563 828.32 646.978 824.083 647C817.422 647 810.761 646.585 804.188 645.493C802.222 645.165 800.3 644.445 798.837 642.916C798.335 642.414 798.357 641.759 798.903 641.3C800.322 640.099 802.026 639.837 803.773 639.575C809.32 638.723 814.78 639.99 820.283 640.121C820.894 640.121 821.528 640.295 822.139 640.405C822.139 640.361 822.139 640.317 822.139 640.274V640.295Z" fill="#DEB35C"/>
<path d="M842.712 614.33C836.772 614.199 831.312 613.675 825.831 613.063C821.463 612.561 817.161 611.775 812.924 610.573C812.094 610.333 811.286 609.94 810.521 609.547C810.238 609.394 809.91 609.023 809.866 608.717C809.779 608.062 810.434 607.996 810.849 607.865C812.793 607.319 814.802 607.123 816.811 607.167C823.821 607.319 830.832 607.232 837.82 608.149C842.69 608.783 847.429 609.896 852.125 611.25C852.605 611.381 853.086 611.556 853.522 611.775C854.811 612.408 855.532 613.412 855.182 613.958C854.571 614.876 853.588 614.635 852.78 614.614C849.286 614.504 845.77 615.16 842.712 614.352V614.33Z" fill="#DEB35C"/>
<path d="M795.147 625.511C792.089 625.555 789.141 625.183 786.193 624.594C785.079 624.375 783.965 624.201 782.895 623.851C781.759 623.502 779.99 623.371 780.078 621.951C780.143 620.684 781.847 620.401 783.026 620.007C784.336 619.549 785.712 619.33 787.088 619.374C792.701 619.549 798.313 619.702 803.904 619.986C806.132 620.095 808.359 620.597 810.587 620.881C812.072 621.078 813.579 621.23 815.064 621.427C815.566 621.492 816.199 621.427 816.505 621.711C817.204 622.366 818.471 622.606 818.514 623.676C818.58 625.03 817.269 624.987 816.374 625.336C815.413 625.707 814.43 625.773 813.426 625.773C810.303 625.773 807.18 625.686 804.057 625.882C801.043 626.079 798.051 626.166 795.125 625.489L795.147 625.511Z" fill="#DEB35C"/>
<path d="M841.336 566.305C843.957 566.611 846.556 566.96 849.176 567.222C850.574 567.354 851.884 567.703 853.173 568.205C854.461 568.708 854.701 570.411 853.566 571.241C852.43 572.071 851.12 572.42 849.744 572.66C845.398 573.447 841.008 573.206 836.641 573.032C835.265 572.988 833.911 572.944 832.513 572.988C829.871 573.075 827.272 572.66 824.957 571.241C823.778 570.52 823.69 569.406 824.695 568.424C825.896 567.266 827.272 566.524 828.975 566.305C833.103 565.759 837.208 566.065 841.336 566.305Z" fill="#DEB35C"/>
<path d="M784.38 596.246C787.023 596.268 789.905 597.12 792.854 597.709C793.312 597.797 793.749 598.124 794.142 598.408C794.623 598.757 794.557 599.718 794.033 600.002C793.596 600.221 793.138 600.461 792.657 600.526C786.084 601.444 779.466 601.618 772.849 601.072C771.626 600.963 770.359 600.876 769.42 599.849C768.874 599.26 768.831 598.364 769.464 597.862C770.774 596.857 772.238 596.115 773.919 596.115C777.282 596.093 780.646 595.678 784.38 596.246ZM775.863 598.168C775.776 597.971 775.732 597.644 775.579 597.578C775.426 597.513 775.055 597.6 774.946 597.753C774.684 598.168 774.967 598.408 775.361 598.474C775.513 598.495 775.688 598.277 775.863 598.168Z" fill="#DEB35C"/>
<path d="M904.014 571.721C902.289 571.11 900.825 571.547 899.34 571.59C896.654 571.656 894.143 571.066 891.762 569.843C891.194 569.559 890.605 569.21 890.758 568.467C890.889 567.79 891.456 567.441 892.068 567.266C892.658 567.092 893.269 566.939 893.902 566.873C900.672 566.131 907.355 566.699 913.929 568.533C914.3 568.642 914.693 568.664 914.999 568.861C915.283 569.057 915.632 569.385 915.676 569.712C915.741 570.215 915.414 570.651 914.911 570.87C914.453 571.066 913.994 571.328 913.514 571.35C910.282 571.525 907.028 571.634 904.036 571.765L904.014 571.721Z" fill="#DEB35C"/>
<path d="M860.314 605.529C858.632 605.005 856.623 605.158 854.68 604.874C854.352 604.83 853.981 604.568 853.828 604.284C853.566 603.825 853.762 603.323 854.09 602.908C855.4 601.292 857.322 600.921 859.157 600.899C863.022 600.899 866.888 601.095 870.622 602.209C870.862 602.275 871.124 602.34 871.321 602.471C871.736 602.755 872.02 603.148 872.063 603.694C872.107 604.262 871.736 604.677 871.299 604.874C870.163 605.42 868.94 605.638 867.674 605.616C865.315 605.594 862.935 605.551 860.314 605.529Z" fill="#DEB35C"/>
</g>
</svg>
