<svg width="461" height="425" viewBox="0 0 461 425" fill="none" xmlns="http://www.w3.org/2000/svg">
<path fill-rule="evenodd" clip-rule="evenodd" d="M214.206 0.560792C252.645 -0.908283 285.943 24.5449 318.633 44.7864C350.487 64.5103 379.125 87.5154 402.227 116.983C427.948 149.791 464.184 183.883 460.197 225.354C456.166 267.28 407.577 288.487 382.482 322.345C360.681 351.757 354.112 394.106 322.02 411.779C289.992 429.416 250.764 413.823 214.206 415.01C176.242 416.243 137.549 432.956 102.264 418.917C65.6818 404.363 37.1618 372.714 19.5347 337.559C2.33654 303.258 6.36159 263.695 5.21116 225.354C4.02735 185.902 -8.40054 142.591 12.6826 109.201C33.7247 75.8762 79.5747 71.3135 114.295 52.5958C147.92 34.4688 176.02 2.02021 214.206 0.560792Z" stroke="black"/>
</svg>
