<svg width="517" height="425" viewBox="0 0 517 425" fill="none" xmlns="http://www.w3.org/2000/svg">
<path fill-rule="evenodd" clip-rule="evenodd" d="M259.991 2.48049C297.74 2.10565 335.118 -3.11611 371.175 8.06492C412.928 21.0124 457.091 36.7131 483.266 71.7175C510.228 107.775 520.462 155.89 515.14 200.595C510.025 243.561 482.711 280.038 454.553 312.898C429.654 341.955 396.054 359.687 362.715 378.475C329.693 397.085 297.67 418.394 259.991 422.545C220.093 426.941 176.404 425.356 143.307 402.649C110.681 380.265 107.122 334.323 84.2991 302.006C58.5778 265.586 3.29884 245.097 0.609185 200.595C-2.04735 156.64 44.3988 126.487 71.5977 91.8515C95.3072 61.6593 115.388 26.7157 150.076 10.2604C183.835 -5.75445 222.626 2.85153 259.991 2.48049Z" stroke="black"/>
</svg>
