<svg width="434" height="425" viewBox="0 0 434 425" fill="none" xmlns="http://www.w3.org/2000/svg">
<path fill-rule="evenodd" clip-rule="evenodd" d="M204.267 1.7194C241.211 6.90618 266.157 40.0396 299.263 57.2505C334.265 75.4466 380.391 75.0621 404.878 106.009C429.81 137.52 427.424 181.798 429.569 221.936C431.812 263.888 441.739 310.835 417.666 345.252C393.629 379.616 345.39 383.878 306.094 398.463C272.682 410.863 239.889 425.447 204.267 424.452C169.175 423.471 136.816 409.076 105.671 392.862C73.4153 376.071 38.0452 360.009 19.9002 328.475C1.75999 296.95 9.26892 258.263 7.31811 221.936C5.25666 183.547 -7.38597 143.756 8.09135 108.572C24.0116 72.3806 57.8264 47.1278 92.5292 28.2261C126.734 9.59565 165.703 -3.69476 204.267 1.7194Z" stroke="black"/>
</svg>
