<svg width="80" height="80" viewBox="0 0 80 80" fill="none" xmlns="http://www.w3.org/2000/svg">
<g clip-path="url(#clip0_6754_17)">
<path d="M79.5689 32.0889C80.4142 31.2249 79.9471 29.7202 78.7783 29.5421L53.608 25.7124C53.3759 25.6748 53.1567 25.5808 52.9695 25.4385C52.7823 25.2963 52.6329 25.1103 52.5346 24.8967L41.1564 0.751436C41.0569 0.527888 40.8947 0.337979 40.6895 0.2047C40.4843 0.0714215 40.2449 0.000488281 40.0002 0.000488281C39.7555 0.000488281 39.516 0.0714215 39.3108 0.2047C39.1056 0.337979 38.9434 0.527888 38.8439 0.751436L27.4658 24.8967C27.3674 25.1103 27.2181 25.2963 27.0309 25.4385C26.8437 25.5808 26.6244 25.6748 26.3924 25.7124L1.22205 29.5421C0.0533047 29.7202 -0.413883 31.2249 0.43143 32.0889L18.6971 50.7311C18.8477 50.8877 18.9596 51.0773 19.0239 51.2849C19.0882 51.4924 19.1031 51.7121 19.0674 51.9264L14.7564 78.2514C14.5564 79.4702 15.7783 80.4014 16.8236 79.8249L39.3377 67.4311C39.5405 67.319 39.7684 67.2601 40.0002 67.2601C40.2319 67.2601 40.4599 67.319 40.6627 67.4311L63.1767 79.8249C64.2221 80.4014 65.4439 79.4702 65.2439 78.2514L60.9377 51.9264C60.902 51.7121 60.9169 51.4924 60.9811 51.2849C61.0454 51.0773 61.1574 50.8877 61.308 50.7311L79.5689 32.0889Z" fill="#FEB833"/>
<path d="M64.2189 71.9672C41.8611 68.1437 24.5314 49.4391 22.5517 26.2969L1.22205 29.5422C0.0533047 29.7203 -0.413883 31.225 0.43143 32.0891L18.6971 50.7312C18.8477 50.8878 18.9596 51.0775 19.0239 51.285C19.0882 51.4925 19.1031 51.7122 19.0674 51.9266L14.7564 78.2516C14.5564 79.4703 15.7783 80.4016 16.8236 79.825L39.3377 67.4313C39.5405 67.3191 39.7684 67.2602 40.0002 67.2602C40.2319 67.2602 40.4599 67.3191 40.6627 67.4313L63.1767 79.825C64.2221 80.4016 65.4439 79.4703 65.2439 78.2516L64.2189 71.9672Z" fill="#EA9D0A"/>
<path d="M40.261 63.0159C37.7722 62.9712 35.3178 62.4265 33.0438 61.4144C31.167 60.5853 29.4645 59.4077 28.0266 57.944C26.3078 56.18 24.9797 53.9925 24.0938 51.4394C24.0047 51.2034 23.4813 49.6581 24.2719 48.5112C24.6 48.0331 25.2782 47.4644 26.6328 47.4644C26.737 47.4644 26.8464 47.4675 26.961 47.4737C27.02 47.4784 27.0785 47.4878 27.136 47.5019C31.6853 48.5731 36.342 49.1214 41.0157 49.1362C45.0438 49.1362 48.7266 48.6831 51.9625 47.7894C52.4745 47.6372 53.0051 47.5568 53.5391 47.5503C54.7063 47.5503 55.3313 48.019 55.6485 48.4128C56.1422 49.0237 56.2735 49.8769 56.0469 50.9487C56.0469 50.9581 56.0469 50.969 56.0391 50.9784C55.4146 53.1205 54.3839 55.1225 53.0032 56.8753C50.8907 59.58 47.0047 62.8409 40.4797 63.0206C40.4578 63.0128 40.3828 63.0159 40.261 63.0159Z" fill="#EA9D0A"/>
<path d="M55.1564 50.7598C55.1564 50.7598 52.4017 61.7817 40.4454 62.1082C40.4454 62.1082 28.9095 62.577 24.9392 51.1332C24.9392 51.1332 24.1579 49.0676 25.711 48.5083C26.0949 48.3844 26.5 48.3397 26.9017 48.377C26.9017 48.377 40.3985 51.927 52.2142 48.6582C52.2142 48.6582 53.4017 48.277 54.2907 48.5598C54.9626 48.7707 55.4689 49.3567 55.1564 50.7598Z" fill="#3F3F46"/>
<path d="M54.189 49.8442C54.1015 50.2582 53.5062 53.8864 50.7656 54.7254C50.7656 54.7254 44.3484 56.4989 32.2515 55.1051C31.4921 55.0176 29.3078 54.6161 28.1625 53.7832C27.406 53.1277 26.7969 52.3194 26.3751 51.4116C25.9534 50.5038 25.7286 49.517 25.7156 48.5161C26.0995 48.3922 26.5045 48.3476 26.9062 48.3848C26.9062 48.3848 40.4031 51.9348 52.2187 48.6661C52.2187 48.6661 53.4062 48.2848 54.2953 48.5676C54.3749 48.8489 54.2937 49.3411 54.189 49.8442Z" fill="white"/>
<path d="M44.8657 37.5002C44.8657 37.5002 43.2486 38.8424 44.6829 40.3377C44.6829 40.3377 45.9032 42.0768 47.1829 40.7643L50.4204 37.5002C50.4204 37.5002 51.1829 36.9205 51.9829 37.5002L56.4673 41.2502C56.4673 41.2502 59.0923 42.1877 57.2314 39.244C57.2314 39.244 53.8439 34.5049 51.8611 33.4361C51.8611 33.4361 49.6017 32.0018 47.8626 34.1377L44.8657 37.5002Z" fill="#18181B"/>
<path d="M36.0938 37.5002C36.0938 37.5002 37.711 38.8424 36.2782 40.3377C36.2782 40.3377 35.0563 42.0768 33.7782 40.7643L30.5376 37.5002C30.5376 37.5002 29.7751 36.9205 28.9751 37.5002L24.4891 41.2502C24.4891 41.2502 21.8657 42.1877 23.7266 39.244C23.7266 39.244 27.1141 34.5049 29.0969 33.4361C29.0969 33.4361 31.3547 32.0018 33.0954 34.1377L36.0938 37.5002Z" fill="#18181B"/>
</g>
<defs>
<clipPath id="clip0_6754_17">
<rect width="80" height="80" fill="white"/>
</clipPath>
</defs>
</svg>
