<svg width="289" height="452" viewBox="0 0 289 452" fill="none" xmlns="http://www.w3.org/2000/svg">
<path d="M61.4272 3.11396L71.308 8.05622L70.7909 9.09015C70.6673 9.33725 70.4689 9.43314 70.1958 9.37783L69.118 8.99723C69.3845 9.58581 69.5486 10.176 69.6103 10.7678C69.6688 11.3661 69.5484 11.9644 69.2491 12.5626C68.9141 13.2324 68.4588 13.6794 67.8833 13.9037C67.3044 14.1345 66.6541 14.1832 65.9323 14.0497C66.2216 14.3652 66.4411 14.6985 66.5906 15.0497C66.7368 15.4074 66.8246 15.7683 66.8538 16.1325C66.883 16.4967 66.8586 16.8544 66.7805 17.2055C66.6991 17.5632 66.5771 17.9046 66.4145 18.2297C66.1543 18.75 65.8388 19.1694 65.4681 19.488C65.1006 19.8163 64.6877 20.0406 64.2292 20.1609C63.7674 20.2876 63.265 20.3087 62.722 20.2241C62.1855 20.1427 61.6182 19.9524 61.0199 19.6532L54.7285 16.5063L55.597 14.7701L61.8883 17.9169C62.6622 18.304 63.332 18.4276 63.8978 18.2879C64.4701 18.1514 64.9172 17.7613 65.2392 17.1175C65.3823 16.8314 65.4669 16.5323 65.493 16.2201C65.5223 15.9177 65.4882 15.6202 65.3907 15.3275C65.2932 15.0349 65.1241 14.7552 64.8836 14.4886C64.6462 14.2316 64.3325 14.0056 63.9423 13.8105L57.6509 10.6636L58.5194 8.92739L64.8108 12.0742C65.6041 12.471 66.2755 12.6077 66.8251 12.4842C67.3746 12.3608 67.8022 11.9934 68.108 11.3821C68.3227 10.953 68.4056 10.4945 68.3569 10.0067C68.3115 9.52875 68.1669 9.03774 67.9231 8.5337L60.5587 4.85018L61.4272 3.11396Z" fill="#253E2E"/>
<path d="M48.7944 30.4658L49.1242 29.6699C49.1966 29.4952 49.2819 29.3653 49.3802 29.2801C49.4785 29.1949 49.6219 29.1717 49.8104 29.2105L50.841 29.4015C50.7106 29.0326 50.6008 28.6802 50.5118 28.3442C50.4295 28.011 50.3796 27.6755 50.3622 27.3378C50.3515 27.0028 50.3794 26.6601 50.4458 26.3099C50.5095 25.9664 50.622 25.5998 50.7835 25.2102C50.9477 24.8139 51.1559 24.4634 51.4081 24.1587C51.6643 23.8634 51.9561 23.6341 52.2835 23.4707C52.6109 23.3074 52.9746 23.218 53.3744 23.2027C53.7782 23.1969 54.2119 23.29 54.6753 23.4821C55.0783 23.6491 55.4186 23.92 55.6962 24.2947C55.9805 24.6723 56.1654 25.166 56.2511 25.7761C56.3339 26.3928 56.3004 27.1384 56.1505 28.0129C56.0073 28.8901 55.7098 29.912 55.2579 31.0784L56.0539 31.4082C56.8464 31.7367 57.5152 31.8132 58.0602 31.6376C58.6091 31.4716 59.0213 31.0561 59.2969 30.3911C59.4778 29.9545 59.5738 29.5614 59.5849 29.2118C59.5999 28.8717 59.5828 28.5616 59.5336 28.2815C59.4884 28.0109 59.442 27.7714 59.3947 27.5628C59.3512 27.3638 59.3615 27.187 59.4255 27.0326C59.4756 26.9117 59.5504 26.8167 59.6498 26.7477C59.7532 26.6882 59.863 26.6511 59.9793 26.6364L60.6872 26.5519C60.9975 27.3416 61.1519 28.1179 61.1506 28.8808C61.1493 29.6437 60.9844 30.4214 60.6559 31.214C60.4193 31.7849 60.1151 32.2531 59.7433 32.6184C59.3715 32.9838 58.9551 33.248 58.494 33.4111C58.0329 33.5742 57.5319 33.6342 56.991 33.591C56.45 33.5479 55.8941 33.408 55.3232 33.1714L48.7944 30.4658ZM51.8216 26.2661C51.6908 26.5818 51.6013 26.8832 51.5532 27.1702C51.5118 27.46 51.5009 27.7427 51.5204 28.0184C51.5439 28.3036 51.5964 28.5851 51.6781 28.8629C51.7569 29.1475 51.8621 29.435 51.9935 29.7256L54.1194 30.6066C54.4349 29.7693 54.6586 29.0395 54.7905 28.4173C54.9292 27.7979 54.9897 27.2721 54.9721 26.8398C54.9544 26.4075 54.8663 26.0601 54.7075 25.7975C54.5459 25.5416 54.3241 25.3553 54.042 25.2384C53.7733 25.127 53.5234 25.0746 53.2925 25.0812C53.0615 25.0878 52.8516 25.1386 52.6627 25.2335C52.4806 25.3311 52.3175 25.4682 52.1736 25.6446C52.0363 25.8239 51.919 26.031 51.8216 26.2661Z" fill="#253E2E"/>
<path d="M60.7824 44.2445L51.8525 41.1351L51.6876 41.6089C51.6398 41.7462 51.6175 41.8655 51.6207 41.9667C51.6308 42.0703 51.6751 42.1974 51.7536 42.3479L54.1388 46.8739C54.2128 47.0152 54.2662 47.1493 54.299 47.2762C54.3318 47.4031 54.3183 47.5524 54.2585 47.724L53.6775 49.3926L50.9263 44.127C50.843 43.9902 50.7735 43.8582 50.7177 43.731C50.6595 43.6107 50.6164 43.4802 50.5884 43.3395C50.4629 43.4344 50.3286 43.5108 50.1852 43.5687C50.0464 43.6358 49.8927 43.6901 49.7243 43.7316L43.1543 46.0171L43.7281 44.3691C43.7807 44.218 43.8536 44.0971 43.9468 44.0064C44.0444 43.9249 44.1718 43.8576 44.3289 43.8046L49.7975 41.8631C49.9776 41.8103 50.1061 41.7396 50.1832 41.651C50.2671 41.5647 50.3449 41.4186 50.4167 41.2126L50.596 40.6976L45.611 38.9618L46.2529 37.1181L61.4243 42.4009L60.7824 44.2445Z" fill="#253E2E"/>
<path d="M51.0681 58.7238C50.887 59.3602 50.6114 59.9167 50.2414 60.3935C49.8783 60.8723 49.4383 61.2497 48.9212 61.5259C48.4111 61.8041 47.8281 61.967 47.1719 62.0146C46.5208 62.0712 45.8177 61.992 45.0624 61.777C44.7687 61.6934 44.5818 61.6062 44.5019 61.5154C44.4219 61.4246 44.4067 61.2918 44.4565 61.117L46.4687 54.047C45.7934 53.8699 45.1836 53.7946 44.6393 53.8211C44.095 53.8477 43.6133 53.96 43.194 54.1582C42.7818 54.3583 42.434 54.6373 42.1507 54.9952C41.8744 55.355 41.6646 55.7867 41.5213 56.2902C41.388 56.7587 41.326 57.1757 41.3354 57.5412C41.3497 57.9158 41.385 58.2433 41.4412 58.5239C41.4974 58.8045 41.5551 59.0401 41.6142 59.2308C41.6783 59.4305 41.6935 59.5898 41.6596 59.7086C41.6159 59.8625 41.5226 59.9645 41.3798 60.0145L40.5487 60.345C40.3347 60.0346 40.1685 59.6887 40.0503 59.3073C39.9391 58.9279 39.8697 58.534 39.8424 58.1255C39.813 57.7241 39.8226 57.3186 39.8711 56.9091C39.9126 56.4975 39.9881 56.0995 40.0976 55.7148C40.3066 54.9806 40.622 54.3371 41.0439 53.7844C41.4708 53.2406 41.9867 52.8091 42.5916 52.4899C43.2015 52.1797 43.8954 51.9992 44.6734 51.9485C45.4513 51.8978 46.2983 52.0028 47.2144 52.2635C47.9557 52.4745 48.6162 52.7834 49.1958 53.1903C49.7735 53.6042 50.2359 54.0911 50.5831 54.651C50.9372 55.2129 51.1595 55.8394 51.2501 56.5304C51.3477 57.2234 51.287 57.9546 51.0681 58.7238ZM49.682 58.3747C49.9388 57.4726 49.8785 56.6881 49.5013 56.0214C49.1311 55.3566 48.5024 54.8299 47.6151 54.4413L45.9702 60.2211C46.4037 60.3445 46.8158 60.3975 47.2062 60.3801C47.6037 60.3647 47.9647 60.2785 48.2891 60.1213C48.6205 59.9662 48.9039 59.7407 49.1393 59.4448C49.3797 59.158 49.5606 58.8012 49.682 58.3747Z" fill="#253E2E"/>
<path d="M43.208 83.279C43.1405 83.2067 43.0908 83.1379 43.059 83.0725C43.0272 83.0071 43.0216 82.9209 43.0423 82.8138C43.0629 82.7067 43.1285 82.5972 43.239 82.4852C43.3552 82.3818 43.4854 82.244 43.6297 82.0719C43.774 81.8998 43.9158 81.6828 44.0552 81.4209C44.2004 81.1675 44.3115 80.8409 44.3886 80.4411C44.4905 79.9128 44.4844 79.4266 44.3701 78.9825C44.263 78.5398 44.0579 78.1448 43.7546 77.7975C43.45 77.4573 43.058 77.1669 42.5787 76.9264C42.098 76.6929 41.5435 76.5156 40.9153 76.3944C40.2585 76.2677 39.6586 76.2297 39.1157 76.2805C38.5798 76.3326 38.1109 76.4605 37.7087 76.6643C37.3137 76.8695 36.9862 77.147 36.7262 77.4967C36.472 77.8549 36.298 78.2767 36.2043 78.7622C36.1148 79.2262 36.0947 79.6185 36.1439 79.939C36.2003 80.2609 36.277 80.5349 36.3741 80.7609C36.4712 80.987 36.5609 81.1746 36.6431 81.3238C36.7326 81.4743 36.7649 81.6138 36.7401 81.7423C36.7084 81.9065 36.6243 82.0162 36.4878 82.0713L35.6884 82.4725C35.2011 81.8897 34.8899 81.2188 34.755 80.4597C34.6272 79.7019 34.6391 78.9304 34.7906 78.1451C34.9214 77.4669 35.1683 76.8592 35.5311 76.322C35.8925 75.7919 36.3502 75.3581 36.904 75.0207C37.4649 74.6846 38.1158 74.4585 38.8565 74.3422C39.5958 74.2331 40.4081 74.2639 41.2934 74.4347C42.1001 74.5903 42.8248 74.8449 43.4674 75.1985C44.1087 75.5592 44.6343 76.0012 45.0443 76.5246C45.46 77.0565 45.7458 77.667 45.9016 78.3561C46.0575 79.0452 46.0562 79.8002 45.8978 80.6212C45.7518 81.378 45.4974 82.025 45.1346 82.5622C44.7789 83.1007 44.3328 83.5515 43.7963 83.9145L43.208 83.279Z" fill="#253E2E"/>
<path d="M33.2865 87.7237L44.2253 89.2728L44.0693 90.3742C44.0398 90.583 43.9798 90.7214 43.8894 90.7893C43.799 90.8573 43.6545 90.8919 43.4561 90.8932L41.7316 90.7812C42.4417 91.2636 42.9703 91.8084 43.3176 92.4157C43.671 93.0312 43.7953 93.7097 43.6902 94.4512C43.6474 94.7535 43.5727 95.022 43.466 95.2565C43.3666 95.4921 43.2409 95.7057 43.0889 95.8971L41.6879 95.4453C41.5151 95.3695 41.4409 95.2451 41.4654 95.0724C41.4796 94.9716 41.534 94.8214 41.6283 94.6218C41.7299 94.4232 41.8071 94.1368 41.8602 93.7624C41.955 93.0929 41.8401 92.5039 41.5156 91.9953C41.1901 91.4939 40.678 91.0395 39.9793 90.6321L33.0143 89.6458L33.2865 87.7237Z" fill="#253E2E"/>
<path d="M30.97 108.13L31.0459 107.272C31.0625 107.084 31.1049 106.934 31.1731 106.823C31.2413 106.713 31.3711 106.648 31.5626 106.628L32.603 106.501C32.3679 106.188 32.1575 105.885 31.9718 105.591C31.7933 105.298 31.6451 104.993 31.5271 104.676C31.4164 104.36 31.3402 104.024 31.2985 103.67C31.2561 103.324 31.2535 102.94 31.2906 102.52C31.3284 102.093 31.4218 101.696 31.571 101.329C31.7268 100.971 31.9363 100.665 32.1996 100.411C32.463 100.157 32.7831 99.9622 33.1599 99.8276C33.5434 99.7009 33.9849 99.6596 34.4847 99.7038C34.9192 99.7422 35.3251 99.8985 35.7023 100.173C36.0868 100.448 36.4114 100.863 36.6761 101.419C36.9402 101.983 37.1319 102.704 37.2513 103.583C37.3779 104.463 37.4007 105.527 37.3196 106.775L38.1778 106.851C39.0324 106.927 39.6934 106.799 40.1606 106.468C40.6343 106.145 40.9029 105.625 40.9663 104.908C41.0079 104.437 40.9815 104.033 40.8872 103.697C40.7995 103.368 40.6901 103.077 40.5592 102.824C40.4348 102.58 40.3187 102.365 40.211 102.181C40.1098 102.004 40.0666 101.832 40.0813 101.665C40.0928 101.535 40.1356 101.422 40.2098 101.326C40.2905 101.239 40.3842 101.17 40.4907 101.121L41.1406 100.828C41.6735 101.489 42.0538 102.183 42.2814 102.911C42.509 103.639 42.5851 104.43 42.5096 105.285C42.4552 105.901 42.3054 106.439 42.0604 106.899C41.8154 107.359 41.4974 107.736 41.1065 108.03C40.7155 108.324 40.2556 108.531 39.7267 108.652C39.1977 108.773 38.6254 108.807 38.0098 108.752L30.97 108.13ZM32.5977 103.216C32.5676 103.556 32.5727 103.871 32.6129 104.159C32.6604 104.448 32.7348 104.721 32.8362 104.978C32.9441 105.243 33.0787 105.496 33.24 105.736C33.4006 105.984 33.5871 106.227 33.7997 106.464L36.092 106.667C36.1417 105.773 36.1362 105.01 36.0753 104.377C36.0217 103.745 35.9217 103.225 35.7752 102.818C35.6287 102.411 35.4403 102.106 35.21 101.903C34.9792 101.707 34.7116 101.596 34.4074 101.569C34.1177 101.544 33.8637 101.569 33.6453 101.644C33.427 101.72 33.242 101.831 33.0903 101.978C32.9458 102.126 32.8314 102.306 32.747 102.517C32.6699 102.729 32.6201 102.962 32.5977 103.216Z" fill="#253E2E"/>
<path d="M30.5529 115.587L39.9362 115.946L40.1246 114.731C40.1668 114.58 40.2261 114.455 40.3027 114.356C40.3862 114.264 40.5006 114.222 40.6459 114.227L41.4415 114.258L41.3748 116.001L42.4428 116.042C43.0749 116.066 43.631 116.175 44.1112 116.368C44.5983 116.568 45.0027 116.839 45.3244 117.178C45.6531 117.526 45.8957 117.935 46.0523 118.407C46.2089 118.878 46.2761 119.405 46.2538 119.986C46.2349 120.48 46.1448 120.935 45.9834 121.351L45.0151 121.27C44.8701 121.257 44.7852 121.192 44.7606 121.075C44.736 120.958 44.7277 120.793 44.7358 120.583L44.7487 120.245C44.7615 119.911 44.7296 119.604 44.6529 119.325C44.576 119.052 44.4432 118.814 44.2546 118.611C44.0659 118.407 43.8138 118.245 43.4983 118.123C43.1825 118.009 42.7885 117.943 42.3162 117.925L41.3027 117.887L41.1806 121.08L39.7747 121.026L39.8943 117.898L30.4783 117.538L30.5529 115.587Z" fill="#253E2E"/>
<path d="M30.1287 129.532C30.1242 128.66 30.3643 127.986 30.8491 127.511C31.3338 127.043 32.0342 126.807 32.9503 126.802L39.7121 126.767L39.7053 125.437C39.7047 125.32 39.7369 125.222 39.8019 125.142C39.8742 125.061 39.9831 125.021 40.1285 125.02L40.9028 125.016L41.1411 126.825L44.557 127.255C44.6661 127.269 44.7536 127.316 44.8195 127.395C44.8926 127.475 44.9295 127.577 44.9301 127.7L44.9351 128.682L41.1289 128.701L41.1451 131.864L39.7382 131.871L39.722 128.709L33.0912 128.742C32.6258 128.745 32.2811 128.859 32.0568 129.086C31.8326 129.312 31.7214 129.604 31.7232 129.96C31.7242 130.164 31.7506 130.338 31.8022 130.483C31.8612 130.636 31.9236 130.766 31.9896 130.875C32.0556 130.984 32.1143 131.074 32.1655 131.147C32.2241 131.226 32.2535 131.295 32.2538 131.353C32.2544 131.455 32.193 131.546 32.0698 131.627L31.1457 132.199C30.8314 131.866 30.5821 131.464 30.3979 130.992C30.221 130.52 30.1312 130.034 30.1287 129.532Z" fill="#253E2E"/>
<path d="M40.0344 143.745C39.8701 143.666 39.7832 143.536 39.7737 143.355C39.768 143.246 39.8014 143.12 39.8741 142.978C39.9467 142.836 40.0249 142.661 40.1086 142.452C40.2 142.251 40.2784 142.01 40.3437 141.73C40.4164 141.45 40.4428 141.121 40.423 140.743C40.4059 140.416 40.3469 140.125 40.2461 139.868C40.1525 139.611 40.0281 139.391 39.873 139.21C39.7183 139.036 39.5402 138.904 39.3388 138.812C39.1451 138.728 38.9357 138.692 38.7106 138.703C38.4274 138.718 38.1957 138.81 38.0153 138.98C37.8352 139.157 37.6833 139.383 37.5594 139.659C37.4356 139.935 37.3281 140.247 37.2371 140.594C37.1534 140.94 37.0591 141.295 36.9543 141.657C36.8572 142.026 36.745 142.385 36.6177 142.734C36.4903 143.083 36.3248 143.397 36.1211 143.677C35.9174 143.957 35.6599 144.186 35.3488 144.362C35.0454 144.545 34.6722 144.649 34.2293 144.672C33.721 144.699 33.2443 144.633 32.7992 144.474C32.3612 144.315 31.9732 144.066 31.6351 143.727C31.3042 143.387 31.0345 142.965 30.8259 142.459C30.6174 141.953 30.4954 141.362 30.46 140.687C30.4196 139.917 30.5065 139.214 30.7206 138.576C30.9419 137.939 31.2373 137.392 31.6065 136.935L32.3711 137.354C32.4685 137.407 32.5447 137.472 32.5998 137.549C32.6548 137.627 32.6857 137.731 32.6926 137.861C32.6994 137.992 32.6558 138.133 32.5618 138.283C32.4678 138.434 32.3644 138.614 32.2516 138.824C32.1392 139.041 32.0398 139.297 31.9534 139.593C31.8673 139.896 31.8359 140.269 31.8592 140.712C31.879 141.089 31.9435 141.417 32.0527 141.695C32.1693 141.973 32.316 142.202 32.4929 142.382C32.6698 142.562 32.8694 142.69 33.0918 142.766C33.3146 142.849 33.5494 142.884 33.7963 142.871C34.1012 142.855 34.3473 142.758 34.5346 142.581C34.7295 142.411 34.8889 142.187 35.0128 141.912C35.1439 141.635 35.2512 141.32 35.3345 140.966C35.4256 140.619 35.5196 140.261 35.6168 139.892C35.7143 139.53 35.8265 139.171 35.9534 138.815C36.088 138.466 36.2608 138.151 36.4718 137.871C36.6828 137.59 36.9473 137.358 37.2652 137.174C37.5909 136.996 37.9896 136.895 38.4616 136.871C38.8827 136.849 39.2903 136.915 39.6842 137.069C40.0855 137.222 40.44 137.459 40.748 137.777C41.0632 138.096 41.3207 138.494 41.5205 138.971C41.7203 139.448 41.8365 139.999 41.8693 140.624C41.9074 141.35 41.8253 142.006 41.623 142.591C41.4284 143.184 41.1425 143.701 40.7652 144.144L40.0344 143.745Z" fill="#253E2E"/>
<path d="M48.3956 159.017L39.0295 160.316L39.0984 160.813C39.1184 160.957 39.1529 161.073 39.2019 161.162C39.2581 161.249 39.3554 161.342 39.4938 161.441L43.6785 164.384C43.8087 164.476 43.9173 164.571 44.0043 164.669C44.0913 164.767 44.1473 164.906 44.1722 165.086L44.4149 166.836L39.5674 163.401C39.431 163.317 39.309 163.232 39.2014 163.144C39.0948 163.063 38.997 162.967 38.908 162.854C38.8396 162.996 38.7547 163.125 38.6535 163.242C38.5604 163.365 38.4484 163.483 38.3173 163.597L33.5091 168.624L33.2694 166.895C33.2474 166.737 33.2573 166.596 33.2989 166.473C33.3487 166.356 33.4315 166.238 33.5471 166.119L37.5315 161.9C37.6678 161.771 37.75 161.649 37.7782 161.535C37.8137 161.42 37.8164 161.255 37.7865 161.039L37.7116 160.499L32.483 161.224L32.2149 159.29L48.1274 157.083L48.3956 159.017Z" fill="#253E2E"/>
<path d="M34.4777 174.227L45.3123 172.066L45.5384 173.2C45.5925 173.471 45.4947 173.668 45.2451 173.792L44.0985 174.176C44.7128 174.543 45.2381 174.983 45.6741 175.497C46.1116 176.018 46.4065 176.659 46.5587 177.422C46.6767 178.014 46.6807 178.555 46.5707 179.044C46.4692 179.538 46.2665 179.972 45.9626 180.344C45.6672 180.721 45.2821 181.039 44.8071 181.297C44.3321 181.555 43.788 181.745 43.1748 181.867L36.2762 183.243L35.8965 181.34L42.7951 179.963C43.6151 179.8 44.212 179.484 44.5858 179.017C44.9682 178.555 45.0826 177.939 44.929 177.169C44.8166 176.606 44.5759 176.105 44.2068 175.667C43.8391 175.236 43.3823 174.86 42.8363 174.539L34.8575 176.131L34.4777 174.227Z" fill="#253E2E"/>
<path d="M49.771 191.207C49.9764 191.988 50.0313 192.725 49.9359 193.419C49.8422 194.121 49.6137 194.752 49.2503 195.314C48.8887 195.883 48.3974 196.373 47.7764 196.785C47.1643 197.201 46.4399 197.52 45.6032 197.74C44.7594 197.962 43.9685 198.042 43.2306 197.981C42.4945 197.926 41.8291 197.741 41.2344 197.423C40.6416 197.113 40.1318 196.676 39.7051 196.112C39.2873 195.552 38.9757 194.883 38.7704 194.102C38.565 193.322 38.5056 192.582 38.5922 191.882C38.6877 191.188 38.9162 190.556 39.2778 189.988C39.6394 189.419 40.1262 188.926 40.7383 188.509C41.3504 188.093 42.0784 187.773 42.9221 187.551C43.7589 187.331 44.5462 187.252 45.2841 187.313C46.0291 187.373 46.6989 187.561 47.2936 187.878C47.8883 188.195 48.3981 188.633 48.8229 189.19C49.2496 189.754 49.5656 190.427 49.771 191.207ZM40.2364 193.716C40.5139 194.771 41.0727 195.466 41.9128 195.801C42.7599 196.135 43.8163 196.135 45.0819 195.802C46.3546 195.467 47.2776 194.946 47.8509 194.239C48.4241 193.532 48.572 192.651 48.2944 191.596C48.1538 191.062 47.9403 190.622 47.6538 190.276C47.3674 189.93 47.0168 189.669 46.6019 189.493C46.1889 189.323 45.7117 189.238 45.1703 189.238C44.6378 189.243 44.0551 189.328 43.4222 189.495C42.7894 189.661 42.24 189.873 41.7741 190.131C41.31 190.396 40.94 190.704 40.6639 191.055C40.3967 191.411 40.2235 191.81 40.1443 192.252C40.0651 192.694 40.0958 193.182 40.2364 193.716Z" fill="#253E2E"/>
<path d="M51.9732 200.153L52.4636 201.599C52.5149 201.751 52.5191 201.888 52.476 202.01C52.433 202.132 52.3656 202.228 52.274 202.297L46.2193 206.584C45.9901 206.724 45.7666 206.857 45.5488 206.984C45.3379 207.11 45.1213 207.229 44.8988 207.343C45.1516 207.319 45.4033 207.303 45.6539 207.294C45.9113 207.284 46.1769 207.274 46.4504 207.266L53.9754 207.179C54.0904 207.178 54.1963 207.208 54.2932 207.267C54.3924 207.333 54.4642 207.432 54.5086 207.562L54.7782 208.358C54.8249 208.495 54.829 208.621 54.7905 208.734C54.752 208.846 54.687 208.938 54.5954 209.007L48.5518 213.463C48.3365 213.621 48.1211 213.767 47.9057 213.901C47.6926 214.042 47.4818 214.179 47.2732 214.311C47.5121 214.269 47.7648 214.233 48.0314 214.204C48.298 214.175 48.5485 214.155 48.783 214.145L56.2106 213.906C56.3325 213.903 56.4442 213.939 56.5457 214.012C56.6541 214.082 56.7305 214.183 56.7749 214.314L57.2442 215.698L45.6326 215.858L45.1388 214.402C45.0781 214.223 45.1531 214.059 45.3639 213.911L51.6751 209.191C51.8148 209.082 51.958 208.984 52.1047 208.896C52.2583 208.805 52.4084 208.716 52.5551 208.628C52.3851 208.647 52.2116 208.668 52.0346 208.689C51.8577 208.711 51.6807 208.721 51.5037 208.72L43.6233 208.778C43.3635 208.781 43.1985 208.68 43.1285 208.473L42.6592 207.089L51.9732 200.153Z" fill="#253E2E"/>
<path d="M48.9084 224.523L59.0991 220.256L59.5456 221.322C59.6523 221.577 59.5956 221.79 59.3755 221.961L58.3279 222.565C59.0028 222.803 59.6049 223.13 60.1342 223.547C60.6662 223.97 61.0825 224.541 61.383 225.259C61.6161 225.815 61.7272 226.344 61.7163 226.845C61.715 227.35 61.6022 227.815 61.3781 228.24C61.1636 228.669 60.8491 229.057 60.4347 229.404C60.0203 229.751 59.5247 230.045 58.9479 230.286L52.4593 233.003L51.7095 231.213L58.1982 228.496C58.9694 228.173 59.4919 227.745 59.7656 227.213C60.0488 226.684 60.0387 226.058 59.7354 225.334C59.5136 224.804 59.1784 224.361 58.7298 224.005C58.2839 223.656 57.7616 223.378 57.1628 223.171L49.6581 226.314L48.9084 224.523Z" fill="#253E2E"/>
<path d="M62.6629 253.666L62.2596 252.905C62.1711 252.738 62.1253 252.589 62.1223 252.459C62.1192 252.329 62.1927 252.204 62.3427 252.083L63.1465 251.411C62.7791 251.276 62.4375 251.136 62.1219 250.991C61.8126 250.842 61.5223 250.667 61.2508 250.465C60.9858 250.26 60.7395 250.02 60.5119 249.746C60.2876 249.478 60.0768 249.157 59.8794 248.785C59.6786 248.406 59.5411 248.022 59.4669 247.633C59.4025 247.248 59.4117 246.877 59.4944 246.52C59.5771 246.164 59.7399 245.827 59.9828 245.509C60.2356 245.194 60.5837 244.919 61.027 244.684C61.4125 244.48 61.8381 244.39 62.3038 244.415C62.7759 244.436 63.2743 244.608 63.7991 244.931C64.3272 245.26 64.8805 245.761 65.459 246.434C66.044 247.103 66.642 247.983 67.2531 249.075L68.0145 248.671C68.7726 248.27 69.2577 247.803 69.4696 247.271C69.6913 246.742 69.6337 246.16 69.2967 245.524C69.0755 245.106 68.8337 244.782 68.5713 244.55C68.3187 244.322 68.0688 244.138 67.8216 243.997C67.5842 243.86 67.37 243.743 67.1791 243.646C66.998 243.553 66.8683 243.433 66.7901 243.285C66.7288 243.169 66.7032 243.051 66.7134 242.93C66.7334 242.813 66.7748 242.705 66.8375 242.606L67.2235 242.006C68.0298 242.27 68.7265 242.646 69.3137 243.133C69.9008 243.62 70.3952 244.242 70.7968 245.001C71.0861 245.547 71.2532 246.079 71.2979 246.599C71.3427 247.118 71.281 247.607 71.1129 248.067C70.9448 248.526 70.6718 248.95 70.294 249.34C69.9161 249.729 69.4541 250.069 68.9079 250.358L62.6629 253.666ZM61.3547 248.657C61.5146 248.959 61.6899 249.22 61.8805 249.44C62.0775 249.657 62.2884 249.845 62.5134 250.006C62.7482 250.169 62.9986 250.308 63.2648 250.422C63.5343 250.543 63.8229 250.645 64.1306 250.729L66.1641 249.652C65.7198 248.875 65.2998 248.238 64.9043 247.74C64.5152 247.238 64.1485 246.856 63.8041 246.595C63.4596 246.333 63.1357 246.179 62.8321 246.134C62.532 246.096 62.247 246.148 61.9771 246.291C61.7202 246.427 61.5206 246.586 61.3785 246.769C61.2365 246.951 61.1418 247.145 61.0946 247.351C61.0539 247.554 61.0556 247.767 61.0999 247.99C61.1506 248.21 61.2355 248.432 61.3547 248.657Z" fill="#253E2E"/>
<path d="M66.1347 259.814L75.5748 254.075L76.1754 255.062C76.3189 255.298 76.2946 255.517 76.1025 255.719L75.1567 256.473C75.8596 256.607 76.5037 256.841 77.0893 257.174C77.6786 257.514 78.1753 258.016 78.5795 258.681C78.893 259.196 79.0817 259.703 79.1458 260.2C79.2198 260.699 79.1777 261.176 79.0195 261.63C78.8712 262.086 78.6181 262.516 78.2601 262.921C77.9021 263.326 77.456 263.691 76.9217 264.015L70.911 267.67L69.9025 266.011L75.9132 262.357C76.6276 261.922 77.0805 261.421 77.2717 260.854C77.4729 260.289 77.3695 259.672 76.9616 259.001C76.6631 258.51 76.2656 258.122 75.7689 257.837C75.276 257.558 74.718 257.361 74.0951 257.246L67.1432 261.473L66.1347 259.814Z" fill="#253E2E"/>
<path d="M78.9813 279.646C78.8238 279.419 78.8348 279.199 79.0143 278.986L80.0169 278.078C79.2756 278.017 78.5874 277.836 77.9525 277.533C77.3277 277.232 76.7914 276.759 76.3437 276.114C75.983 275.594 75.7541 275.054 75.6569 274.493C75.5657 273.928 75.6105 273.361 75.7915 272.793C75.9725 272.225 76.2967 271.659 76.7642 271.096C77.2317 270.532 77.8417 269.99 78.5944 269.467C79.2634 269.003 79.9468 268.661 80.6445 268.443C81.3483 268.22 82.0283 268.128 82.6846 268.169C83.345 268.215 83.9625 268.397 84.5372 268.715C85.1179 269.029 85.6218 269.493 86.0487 270.108C86.4343 270.664 86.6683 271.205 86.7507 271.732C86.8392 272.255 86.8209 272.79 86.696 273.336L91.7314 269.842L92.8383 271.437L79.6404 280.596L78.9813 279.646ZM78.0008 275.747C78.3615 276.267 78.796 276.638 79.3044 276.86C79.8169 277.088 80.4052 277.216 81.0692 277.242L85.4595 274.195C85.6507 273.628 85.7016 273.115 85.6123 272.655C85.5331 272.196 85.3464 271.755 85.052 271.331C84.4634 270.483 83.7099 270.041 82.7915 270.006C81.8732 269.971 80.8555 270.341 79.7385 271.116C79.1472 271.526 78.6747 271.929 78.321 272.325C77.9734 272.717 77.7306 273.107 77.5926 273.495C77.4606 273.878 77.4314 274.257 77.5049 274.631C77.5785 275.004 77.7438 275.377 78.0008 275.747Z" fill="#253E2E"/>
<path d="M100.022 291.635C99.843 291.67 99.6955 291.618 99.5793 291.478C99.5096 291.394 99.4614 291.274 99.4346 291.116C99.4078 290.959 99.3657 290.772 99.3083 290.555C99.2611 290.339 99.1799 290.099 99.0649 289.835C98.9554 289.567 98.7798 289.288 98.5382 288.997C98.329 288.745 98.1073 288.547 97.8729 288.401C97.6441 288.251 97.4133 288.149 97.1807 288.097C96.9527 288.05 96.7306 288.05 96.5146 288.098C96.3088 288.146 96.1192 288.242 95.9459 288.386C95.7278 288.567 95.5972 288.78 95.554 289.023C95.5155 289.273 95.5291 289.545 95.5948 289.84C95.6605 290.136 95.7606 290.449 95.8952 290.782C96.0353 291.11 96.1717 291.45 96.3043 291.803C96.4472 292.157 96.5719 292.512 96.6785 292.868C96.7851 293.224 96.8405 293.575 96.8447 293.921C96.8488 294.267 96.779 294.604 96.6352 294.932C96.5017 295.26 96.2643 295.566 95.9232 295.85C95.5318 296.175 95.1102 296.407 94.6585 296.546C94.2124 296.68 93.7525 296.713 93.2788 296.643C92.8106 296.569 92.3417 296.392 91.8719 296.111C91.4022 295.83 90.9512 295.429 90.519 294.909C90.0264 294.317 89.6754 293.701 89.4659 293.062C89.2619 292.418 89.1715 291.803 89.1947 291.217L90.0578 291.095C90.1677 291.08 90.2677 291.086 90.358 291.115C90.4483 291.144 90.5352 291.209 90.6189 291.31C90.7025 291.41 90.7517 291.549 90.7663 291.726C90.781 291.903 90.8058 292.109 90.8409 292.345C90.8806 292.586 90.9542 292.851 91.0618 293.14C91.1741 293.434 91.3719 293.752 91.6554 294.093C91.8971 294.383 92.1449 294.608 92.3988 294.765C92.6583 294.918 92.9128 295.014 93.1622 295.053C93.4117 295.091 93.6481 295.074 93.8717 295.002C94.0998 294.935 94.309 294.823 94.4991 294.665C94.734 294.47 94.8734 294.245 94.9175 293.991C94.9719 293.738 94.9662 293.464 94.9005 293.168C94.8404 292.869 94.7379 292.552 94.5932 292.219C94.4586 291.886 94.3199 291.543 94.177 291.189C94.0388 290.84 93.9141 290.486 93.8029 290.124C93.7019 289.764 93.6521 289.408 93.6535 289.057C93.6549 288.706 93.728 288.362 93.8727 288.024C94.0277 287.687 94.2869 287.368 94.6504 287.066C94.9747 286.796 95.3409 286.606 95.7488 286.493C96.1622 286.377 96.5877 286.354 97.0252 286.425C97.4682 286.492 97.9125 286.657 98.358 286.92C98.8036 287.183 99.2262 287.555 99.6259 288.036C100.091 288.595 100.417 289.17 100.605 289.761C100.804 290.352 100.884 290.938 100.846 291.518L100.022 291.635Z" fill="#253E2E"/>
<path d="M97.3801 302.66L109.15 291.727L110.472 293.149L105.709 297.573C106.398 297.578 107.048 297.689 107.657 297.907C108.272 298.12 108.834 298.501 109.343 299.049C109.754 299.492 110.041 299.95 110.203 300.424C110.376 300.898 110.431 301.374 110.367 301.85C110.313 302.326 110.152 302.799 109.883 303.267C109.613 303.736 109.249 304.183 108.791 304.609L103.637 309.396L102.316 307.974L107.47 303.186C108.083 302.617 108.426 302.036 108.499 301.442C108.583 300.848 108.357 300.263 107.823 299.688C107.432 299.267 106.965 298.967 106.421 298.787C105.882 298.613 105.296 298.532 104.662 298.545L98.7013 304.082L97.3801 302.66Z" fill="#253E2E"/>
<path d="M114.187 319.741L113.564 319.146C113.427 319.015 113.337 318.888 113.293 318.766C113.25 318.643 113.28 318.501 113.384 318.34L113.935 317.448C113.544 317.436 113.176 317.411 112.83 317.372C112.49 317.328 112.159 317.254 111.838 317.148C111.522 317.036 111.213 316.886 110.91 316.698C110.613 316.514 110.312 316.276 110.007 315.985C109.697 315.688 109.446 315.368 109.253 315.022C109.07 314.676 108.962 314.321 108.928 313.957C108.894 313.593 108.943 313.221 109.073 312.843C109.214 312.465 109.458 312.094 109.804 311.731C110.106 311.416 110.482 311.197 110.931 311.074C111.386 310.945 111.913 310.952 112.513 311.093C113.118 311.239 113.801 311.54 114.562 311.996C115.328 312.447 116.173 313.094 117.097 313.937L117.692 313.315C118.285 312.695 118.599 312.099 118.632 311.527C118.676 310.955 118.438 310.421 117.918 309.923C117.576 309.597 117.244 309.365 116.922 309.228C116.611 309.091 116.316 308.995 116.037 308.939C115.768 308.883 115.528 308.84 115.316 308.809C115.115 308.777 114.954 308.704 114.833 308.588C114.739 308.498 114.677 308.394 114.649 308.276C114.631 308.158 114.636 308.042 114.664 307.928L114.842 307.238C115.69 307.234 116.47 307.371 117.18 307.649C117.891 307.926 118.556 308.361 119.176 308.954C119.623 309.381 119.949 309.834 120.156 310.313C120.362 310.792 120.457 311.276 120.442 311.765C120.428 312.253 120.302 312.742 120.066 313.231C119.83 313.72 119.499 314.187 119.072 314.634L114.187 319.741ZM111.367 315.399C111.614 315.635 111.863 315.828 112.113 315.977C112.368 316.12 112.628 316.233 112.892 316.314C113.166 316.395 113.447 316.448 113.736 316.473C114.03 316.502 114.336 316.508 114.654 316.491L116.245 314.828C115.579 314.231 114.979 313.758 114.447 313.41C113.92 313.057 113.451 312.81 113.042 312.67C112.633 312.53 112.277 312.486 111.975 312.539C111.678 312.597 111.424 312.737 111.212 312.957C111.011 313.168 110.872 313.382 110.795 313.599C110.717 313.817 110.689 314.031 110.709 314.241C110.734 314.447 110.803 314.648 110.915 314.846C111.033 315.039 111.183 315.223 111.367 315.399Z" fill="#253E2E"/>
<path d="M119.419 324.451L126.626 316.077L127.469 316.802C127.629 316.94 127.713 317.065 127.721 317.178C127.73 317.29 127.681 317.431 127.575 317.598L126.55 318.99C127.34 318.652 128.084 318.501 128.782 318.537C129.491 318.571 130.129 318.833 130.697 319.321C130.929 319.52 131.114 319.728 131.254 319.944C131.399 320.155 131.511 320.376 131.59 320.608L130.454 321.543C130.297 321.648 130.152 321.643 130.02 321.53C129.942 321.463 129.845 321.336 129.728 321.149C129.616 320.957 129.416 320.737 129.13 320.49C128.617 320.049 128.059 319.828 127.456 319.827C126.858 319.83 126.199 320.016 125.479 320.385L120.891 325.717L119.419 324.451Z" fill="#253E2E"/>
<path d="M139.254 326.244C139.778 326.649 140.192 327.112 140.497 327.632C140.807 328.147 140.994 328.696 141.058 329.279C141.126 329.856 141.061 330.458 140.861 331.084C140.672 331.71 140.337 332.333 139.857 332.955C139.67 333.196 139.52 333.337 139.406 333.378C139.292 333.418 139.163 333.383 139.019 333.272L133.203 328.776C132.788 329.337 132.491 329.875 132.314 330.391C132.136 330.906 132.061 331.395 132.089 331.858C132.122 332.315 132.252 332.741 132.479 333.137C132.71 333.527 133.033 333.883 133.447 334.203C133.832 334.501 134.196 334.713 134.539 334.84C134.892 334.966 135.21 335.055 135.491 335.107C135.772 335.159 136.012 335.193 136.211 335.209C136.421 335.224 136.574 335.269 136.672 335.345C136.799 335.443 136.859 335.567 136.852 335.718L136.85 336.613C136.482 336.696 136.099 336.722 135.701 336.69C135.308 336.652 134.916 336.57 134.527 336.444C134.143 336.322 133.77 336.162 133.408 335.965C133.042 335.773 132.7 335.555 132.384 335.311C131.78 334.844 131.3 334.312 130.943 333.715C130.597 333.116 130.388 332.477 130.317 331.797C130.255 331.115 130.346 330.404 130.588 329.663C130.83 328.922 131.242 328.175 131.824 327.421C132.296 326.811 132.828 326.313 133.421 325.926C134.02 325.543 134.644 325.295 135.293 325.181C135.946 325.061 136.61 325.087 137.286 325.26C137.965 325.427 138.621 325.755 139.254 326.244ZM138.415 327.401C137.673 326.828 136.922 326.592 136.163 326.694C135.408 326.791 134.686 327.179 133.995 327.858L138.75 331.534C139.025 331.177 139.228 330.814 139.357 330.445C139.49 330.07 139.544 329.703 139.519 329.344C139.498 328.978 139.394 328.631 139.207 328.303C139.03 327.973 138.766 327.673 138.415 327.401Z" fill="#253E2E"/>
<path d="M157.681 339.193C158.361 339.627 158.902 340.131 159.303 340.706C159.71 341.284 159.971 341.903 160.086 342.562C160.206 343.225 160.178 343.919 160.001 344.643C159.835 345.364 159.519 346.09 159.054 346.819C158.585 347.555 158.059 348.151 157.475 348.606C156.897 349.066 156.283 349.381 155.631 349.552C154.985 349.727 154.314 349.752 153.617 349.627C152.931 349.5 152.247 349.219 151.567 348.786C150.886 348.352 150.34 347.849 149.929 347.276C149.528 346.702 149.267 346.083 149.147 345.42C149.026 344.756 149.049 344.064 149.216 343.343C149.383 342.621 149.701 341.893 150.169 341.157C150.634 340.427 151.159 339.834 151.742 339.379C152.33 338.917 152.95 338.601 153.602 338.43C154.254 338.259 154.925 338.234 155.615 338.355C156.312 338.48 157 338.759 157.681 339.193ZM152.382 347.507C153.301 348.093 154.183 348.224 155.028 347.9C155.876 347.57 156.652 346.854 157.356 345.75C158.063 344.64 158.387 343.631 158.328 342.723C158.269 341.814 157.78 341.067 156.86 340.481C156.394 340.184 155.939 340.005 155.494 339.946C155.049 339.887 154.614 339.933 154.189 340.085C153.771 340.241 153.363 340.502 152.965 340.869C152.577 341.234 152.208 341.693 151.856 342.245C151.504 342.796 151.245 343.325 151.078 343.831C150.917 344.34 150.854 344.818 150.889 345.263C150.935 345.705 151.078 346.116 151.32 346.494C151.562 346.873 151.916 347.21 152.382 347.507Z" fill="#253E2E"/>
<path d="M168.193 345.762L164.772 351.921C164.366 352.652 164.22 353.311 164.335 353.899C164.449 354.486 164.847 354.969 165.527 355.347C166.023 355.622 166.555 355.764 167.124 355.772C167.693 355.781 168.279 355.678 168.88 355.463L172.836 348.341L174.533 349.284L169.169 358.942L168.158 358.38C167.917 358.246 167.83 358.044 167.897 357.773L168.34 356.66C167.663 356.891 166.984 357.005 166.304 357.001C165.628 356.992 164.953 356.799 164.279 356.425C163.751 356.132 163.332 355.787 163.02 355.389C162.719 354.989 162.52 354.554 162.423 354.084C162.326 353.615 162.333 353.115 162.444 352.587C162.561 352.061 162.771 351.525 163.075 350.978L166.496 344.819L168.193 345.762Z" fill="#253E2E"/>
<path d="M175.315 362.094L180.152 352.161L181.152 352.648C181.342 352.741 181.455 352.84 181.492 352.947C181.529 353.054 181.517 353.202 181.458 353.391L180.821 354.998C181.498 354.471 182.179 354.135 182.864 353.991C183.558 353.844 184.242 353.935 184.915 354.262C185.19 354.396 185.422 354.55 185.613 354.723C185.806 354.89 185.971 355.076 186.106 355.279L185.246 356.473C185.12 356.615 184.979 356.647 184.822 356.571C184.731 356.526 184.605 356.428 184.444 356.277C184.286 356.119 184.037 355.958 183.697 355.792C183.089 355.496 182.493 355.424 181.91 355.577C181.333 355.732 180.743 356.08 180.14 356.62L177.061 362.944L175.315 362.094Z" fill="#253E2E"/>
<path d="M192.826 374.133L198.144 360.334L199.222 360.749C199.48 360.849 199.595 361.037 199.566 361.314L199.248 362.594C199.895 362.228 200.563 361.991 201.252 361.882C201.947 361.776 202.665 361.865 203.404 362.15C203.995 362.378 204.486 362.7 204.879 363.116C205.274 363.525 205.555 364.019 205.722 364.598C205.891 365.169 205.941 365.82 205.871 366.548C205.8 367.277 205.6 368.069 205.271 368.924C204.978 369.684 204.603 370.353 204.146 370.933C203.692 371.506 203.181 371.96 202.616 372.295C202.053 372.624 201.44 372.82 200.776 372.884C200.122 372.943 199.449 372.84 198.757 372.573C198.119 372.328 197.614 372.012 197.24 371.627C196.873 371.244 196.592 370.792 196.395 370.272L194.638 374.831L192.826 374.133ZM202.239 363.384C201.649 363.157 201.078 363.093 200.525 363.191C199.98 363.293 199.425 363.519 198.861 363.871L196.94 368.858C197.099 369.433 197.341 369.889 197.664 370.224C197.994 370.561 198.403 370.824 198.891 371.012C199.848 371.381 200.716 371.322 201.496 370.835C202.275 370.349 202.909 369.471 203.398 368.202C203.657 367.531 203.818 366.93 203.882 366.402C203.952 365.875 203.934 365.417 203.828 365.025C203.724 364.627 203.537 364.293 203.266 364.025C202.995 363.758 202.653 363.544 202.239 363.384Z" fill="#253E2E"/>
<path d="M216.769 378.612L215.949 378.35C215.768 378.293 215.632 378.218 215.539 378.128C215.445 378.037 215.41 377.896 215.433 377.705L215.537 376.662C215.18 376.823 214.838 376.962 214.511 377.079C214.186 377.189 213.856 377.267 213.521 377.312C213.188 377.351 212.844 377.352 212.489 377.316C212.142 377.281 211.767 377.2 211.365 377.072C210.956 376.941 210.59 376.763 210.265 376.538C209.949 376.307 209.696 376.036 209.506 375.723C209.315 375.411 209.196 375.056 209.147 374.659C209.107 374.257 209.163 373.817 209.316 373.339C209.448 372.923 209.69 372.561 210.04 372.253C210.392 371.938 210.869 371.712 211.469 371.576C212.077 371.441 212.823 371.412 213.707 371.488C214.593 371.557 215.636 371.767 216.836 372.12L217.098 371.299C217.359 370.481 217.379 369.808 217.158 369.28C216.946 368.747 216.498 368.371 215.812 368.153C215.361 368.009 214.962 367.946 214.612 367.965C214.272 367.978 213.965 368.022 213.69 368.094C213.424 368.162 213.189 368.228 212.985 368.293C212.791 368.353 212.614 368.358 212.454 368.307C212.33 368.267 212.229 368.201 212.152 368.107C212.084 368.009 212.037 367.903 212.013 367.788L211.869 367.09C212.63 366.715 213.391 366.495 214.151 366.433C214.911 366.37 215.7 366.469 216.517 366.729C217.106 366.917 217.598 367.181 217.994 367.521C218.389 367.86 218.687 368.253 218.889 368.699C219.09 369.145 219.192 369.639 219.194 370.181C219.197 370.724 219.104 371.29 218.916 371.878L216.769 378.612ZM212.33 375.948C212.656 376.052 212.963 376.116 213.253 376.14C213.546 376.157 213.828 376.144 214.101 376.101C214.384 376.054 214.66 375.978 214.93 375.873C215.207 375.771 215.484 375.642 215.763 375.486L216.462 373.294C215.601 373.05 214.855 372.888 214.224 372.809C213.595 372.723 213.066 372.707 212.637 372.761C212.207 372.815 211.869 372.932 211.62 373.112C211.379 373.295 211.212 373.531 211.119 373.822C211.031 374.099 211 374.353 211.026 374.582C211.052 374.812 211.12 375.017 211.23 375.197C211.343 375.37 211.493 375.521 211.681 375.65C211.871 375.772 212.088 375.871 212.33 375.948Z" fill="#253E2E"/>
<path d="M231.989 373.217C231.864 373.35 231.714 373.394 231.538 373.348C231.432 373.32 231.323 373.25 231.209 373.138C231.096 373.026 230.952 372.898 230.779 372.756C230.615 372.608 230.409 372.46 230.162 372.313C229.916 372.159 229.611 372.034 229.245 371.939C228.928 371.857 228.632 371.825 228.357 371.843C228.084 371.854 227.837 371.907 227.617 372C227.405 372.095 227.225 372.224 227.077 372.389C226.938 372.548 226.84 372.736 226.783 372.954C226.711 373.229 226.729 373.478 226.836 373.701C226.95 373.926 227.12 374.139 227.346 374.341C227.571 374.542 227.836 374.739 228.139 374.931C228.444 375.115 228.753 375.312 229.067 375.522C229.389 375.726 229.698 375.941 229.992 376.168C230.286 376.395 230.535 376.648 230.741 376.927C230.946 377.206 231.086 377.52 231.16 377.87C231.243 378.215 231.229 378.602 231.117 379.031C230.988 379.523 230.781 379.958 230.495 380.334C230.211 380.704 229.857 380.998 229.431 381.218C229.008 381.431 228.523 381.56 227.978 381.606C227.433 381.651 226.833 381.589 226.178 381.419C225.432 381.224 224.788 380.929 224.245 380.532C223.704 380.128 223.272 379.681 222.949 379.191L223.579 378.589C223.66 378.512 223.745 378.459 223.835 378.43C223.925 378.401 224.034 378.403 224.16 378.436C224.287 378.469 224.408 378.553 224.523 378.688C224.638 378.823 224.778 378.976 224.944 379.147C225.117 379.32 225.331 379.492 225.587 379.664C225.85 379.838 226.196 379.981 226.625 380.092C226.991 380.188 227.323 380.225 227.621 380.205C227.921 380.178 228.184 380.108 228.409 379.994C228.634 379.879 228.816 379.728 228.956 379.539C229.102 379.351 229.207 379.138 229.269 378.899C229.346 378.603 229.328 378.34 229.216 378.108C229.112 377.87 228.948 377.651 228.722 377.449C228.499 377.241 228.231 377.043 227.919 376.857C227.616 376.665 227.303 376.467 226.98 376.263C226.665 376.061 226.357 375.845 226.056 375.616C225.763 375.382 225.515 375.123 225.312 374.837C225.108 374.551 224.967 374.228 224.888 373.87C224.817 373.506 224.841 373.095 224.961 372.638C225.067 372.229 225.253 371.861 225.519 371.532C225.787 371.196 226.119 370.93 226.516 370.732C226.915 370.528 227.372 370.403 227.888 370.357C228.403 370.311 228.963 370.367 229.568 370.524C230.272 370.708 230.872 370.984 231.369 371.354C231.876 371.719 232.282 372.148 232.59 372.641L231.989 373.217Z" fill="#253E2E"/>
<path d="M244.331 375.944C244.213 376.083 244.065 376.133 243.887 376.097C243.78 376.074 243.667 376.01 243.548 375.904C243.429 375.797 243.28 375.677 243.1 375.543C242.928 375.403 242.715 375.266 242.461 375.132C242.208 374.99 241.897 374.881 241.527 374.804C241.206 374.737 240.909 374.72 240.635 374.752C240.363 374.777 240.119 374.842 239.904 374.946C239.697 375.051 239.523 375.19 239.384 375.361C239.253 375.527 239.164 375.72 239.118 375.941C239.061 376.219 239.091 376.466 239.209 376.684C239.334 376.903 239.514 377.107 239.75 377.297C239.985 377.487 240.259 377.671 240.571 377.847C240.885 378.016 241.204 378.197 241.528 378.391C241.86 378.579 242.178 378.779 242.483 378.991C242.788 379.203 243.05 379.443 243.269 379.711C243.488 379.979 243.644 380.286 243.735 380.632C243.835 380.972 243.84 381.359 243.75 381.794C243.646 382.292 243.461 382.736 243.195 383.126C242.929 383.509 242.59 383.821 242.176 384.062C241.763 384.296 241.286 384.449 240.744 384.522C240.201 384.595 239.599 384.562 238.937 384.425C238.182 384.268 237.524 384.005 236.962 383.636C236.402 383.259 235.948 382.834 235.601 382.361L236.2 381.728C236.276 381.648 236.359 381.591 236.447 381.557C236.536 381.523 236.644 381.52 236.773 381.547C236.901 381.573 237.026 381.651 237.147 381.78C237.269 381.91 237.417 382.055 237.591 382.218C237.772 382.382 237.995 382.543 238.259 382.702C238.53 382.862 238.883 382.988 239.317 383.078C239.687 383.155 240.021 383.176 240.318 383.141C240.616 383.099 240.875 383.015 241.094 382.89C241.313 382.765 241.487 382.604 241.617 382.409C241.754 382.214 241.848 381.996 241.898 381.754C241.96 381.455 241.929 381.192 241.806 380.966C241.69 380.734 241.515 380.523 241.28 380.333C241.046 380.136 240.769 379.952 240.448 379.782C240.135 379.605 239.813 379.423 239.481 379.235C239.156 379.049 238.837 378.849 238.525 378.636C238.221 378.417 237.961 378.17 237.743 377.894C237.526 377.619 237.368 377.304 237.271 376.949C237.183 376.589 237.186 376.178 237.283 375.715C237.368 375.302 237.536 374.925 237.785 374.583C238.036 374.234 238.355 373.952 238.741 373.735C239.129 373.511 239.58 373.363 240.092 373.292C240.605 373.22 241.167 373.248 241.779 373.375C242.491 373.523 243.104 373.769 243.619 374.114C244.143 374.453 244.571 374.861 244.902 375.338L244.331 375.944Z" fill="#253E2E"/>
<path d="M253.011 375.617L251.234 386.521L249.318 386.209L251.095 375.304L253.011 375.617ZM254 372.264C253.969 372.45 253.901 372.62 253.795 372.772C253.698 372.918 253.574 373.045 253.424 373.153C253.282 373.256 253.122 373.329 252.946 373.374C252.769 373.419 252.587 373.426 252.401 373.396C252.214 373.365 252.044 373.301 251.891 373.202C251.745 373.104 251.617 372.984 251.508 372.841C251.407 372.692 251.333 372.533 251.287 372.363C251.242 372.186 251.235 372.005 251.265 371.818C251.296 371.632 251.36 371.462 251.459 371.308C251.559 371.148 251.68 371.016 251.822 370.914C251.972 370.806 252.132 370.729 252.301 370.683C252.478 370.638 252.66 370.631 252.846 370.661C253.033 370.692 253.203 370.756 253.356 370.855C253.51 370.954 253.637 371.078 253.738 371.227C253.847 371.37 253.923 371.533 253.967 371.717C254.019 371.895 254.03 372.077 254 372.264Z" fill="#253E2E"/>
<path d="M264.388 376.996C265.19 377.087 265.897 377.303 266.51 377.643C267.13 377.984 267.636 378.426 268.028 378.968C268.428 379.511 268.707 380.146 268.866 380.874C269.033 381.595 269.067 382.386 268.97 383.246C268.871 384.113 268.66 384.879 268.336 385.545C268.019 386.211 267.605 386.764 267.094 387.204C266.59 387.644 265.998 387.961 265.318 388.155C264.645 388.342 263.908 388.39 263.106 388.299C262.304 388.208 261.593 387.996 260.972 387.662C260.359 387.322 259.853 386.88 259.454 386.337C259.055 385.794 258.771 385.162 258.604 384.441C258.438 383.719 258.403 382.925 258.502 382.058C258.599 381.198 258.81 380.436 259.134 379.77C259.459 379.097 259.877 378.541 260.388 378.101C260.899 377.662 261.491 377.345 262.165 377.15C262.845 376.957 263.586 376.905 264.388 376.996ZM263.277 386.793C264.361 386.916 265.211 386.646 265.827 385.984C266.445 385.315 266.827 384.331 266.975 383.03C267.123 381.723 266.971 380.674 266.519 379.883C266.068 379.093 265.3 378.636 264.216 378.514C263.667 378.451 263.18 378.491 262.754 378.633C262.328 378.775 261.958 379.007 261.643 379.33C261.335 379.654 261.084 380.068 260.887 380.573C260.699 381.071 260.568 381.645 260.494 382.295C260.421 382.945 260.42 383.534 260.491 384.062C260.571 384.591 260.724 385.047 260.951 385.431C261.186 385.809 261.495 386.115 261.878 386.349C262.262 386.582 262.728 386.73 263.277 386.793Z" fill="#253E2E"/>
<path d="M274.459 389.227L275.039 378.195L276.194 378.255C276.47 378.27 276.637 378.413 276.695 378.686L276.785 379.892C277.292 379.387 277.848 378.987 278.454 378.691C279.066 378.396 279.761 378.268 280.538 378.309C281.14 378.341 281.665 378.47 282.112 378.698C282.566 378.918 282.936 379.222 283.222 379.608C283.515 379.987 283.728 380.439 283.86 380.963C283.993 381.487 284.043 382.061 284.01 382.686L283.64 389.71L281.702 389.608L282.071 382.584C282.115 381.749 281.957 381.092 281.596 380.615C281.243 380.13 280.674 379.867 279.89 379.826C279.316 379.796 278.772 379.905 278.256 380.155C277.748 380.405 277.271 380.755 276.825 381.205L276.398 389.329L274.459 389.227Z" fill="#253E2E"/>
</svg>
