<svg width="539" height="379" viewBox="0 0 539 379" fill="none" xmlns="http://www.w3.org/2000/svg">
<path d="M5.89808 154.085C5.14098 152.838 4.90544 151.666 5.19145 150.568C5.48377 149.48 6.28448 148.539 7.59358 147.744L17.256 141.877L16.1014 139.975C16.0004 139.809 15.962 139.64 15.9861 139.469C16.0206 139.292 16.1418 139.14 16.3496 139.014L17.4561 138.342L19.3543 140.73L24.6203 138.407C24.7888 138.333 24.9544 138.325 25.1173 138.383C25.2906 138.434 25.4309 138.548 25.5382 138.724L26.3899 140.127L20.9509 143.43L23.6954 147.949L21.685 149.17L18.9405 144.651L9.46514 150.405C8.8002 150.808 8.40449 151.269 8.27799 151.787C8.1515 152.304 8.24282 152.818 8.55197 153.327C8.72863 153.618 8.91641 153.845 9.11532 154.009C9.33093 154.176 9.53281 154.31 9.72096 154.409C9.9091 154.508 10.0711 154.587 10.2069 154.647C10.3594 154.711 10.4609 154.784 10.5114 154.867C10.5997 155.013 10.5903 155.196 10.483 155.418L9.65048 157.033C8.9135 156.826 8.21009 156.464 7.54025 155.946C6.88081 155.422 6.33342 154.802 5.89808 154.085Z" fill="#A94C2E"/>
<path d="M20.0276 174.364L19.1945 173.189C19.0117 172.931 18.9037 172.694 18.8706 172.48C18.8374 172.265 18.9322 172.041 19.1549 171.809L20.3421 170.52C19.7039 170.376 19.1075 170.218 18.5528 170.045C18.008 169.865 17.4888 169.637 16.9952 169.361C16.5115 169.078 16.0514 168.734 15.6148 168.329C15.1852 167.933 14.7666 167.447 14.3588 166.872C13.9441 166.287 13.6332 165.681 13.4263 165.052C13.2363 164.427 13.1714 163.81 13.2315 163.201C13.2916 162.593 13.4887 161.998 13.8228 161.419C14.1738 160.842 14.6915 160.311 15.3757 159.826C15.9707 159.404 16.6568 159.164 17.4342 159.104C18.2215 159.038 19.0849 159.215 20.0245 159.637C20.9711 160.069 21.9966 160.779 23.1009 161.77C24.2152 162.753 25.3967 164.083 26.6455 165.76L27.8206 164.927C28.9907 164.098 29.6939 163.219 29.9304 162.292C30.1838 161.367 29.9625 160.414 29.2665 159.432C28.8095 158.788 28.3386 158.302 27.8537 157.975C27.3857 157.652 26.9316 157.4 26.4913 157.22C26.068 157.044 25.6878 156.896 25.3505 156.778C25.0301 156.662 24.7891 156.49 24.6274 156.262C24.5009 156.084 24.433 155.893 24.4238 155.691C24.4316 155.492 24.4768 155.303 24.5594 155.126L25.0697 154.049C26.4635 154.312 27.6996 154.784 28.7782 155.465C29.8567 156.146 30.8108 157.071 31.6403 158.241C32.2379 159.084 32.6298 159.931 32.8162 160.782C33.0025 161.634 33.006 162.458 32.8265 163.256C32.6471 164.054 32.2862 164.816 31.7438 165.543C31.2015 166.27 30.5089 166.933 29.666 167.53L20.0276 174.364ZM16.777 166.342C17.1074 166.808 17.4543 167.203 17.8177 167.527C18.1911 167.843 18.5815 168.11 18.9891 168.328C19.4137 168.548 19.8589 168.724 20.3247 168.856C20.7976 168.998 21.2981 169.105 21.8263 169.177L24.9648 166.952C24.0604 165.761 23.2266 164.795 22.4633 164.054C21.71 163.307 21.0196 162.753 20.3921 162.394C19.7645 162.034 19.1943 161.85 18.6814 161.841C18.1755 161.842 17.7144 161.99 17.2979 162.285C16.9013 162.567 16.6048 162.873 16.4087 163.206C16.2125 163.539 16.0975 163.881 16.0638 164.233C16.04 164.578 16.0889 164.93 16.2105 165.291C16.3421 165.645 16.5309 165.995 16.777 166.342Z" fill="#A94C2E"/>
<path d="M47.7504 165.961L35.6272 176.106L36.1654 176.749C36.3214 176.936 36.4735 177.07 36.6215 177.152C36.7788 177.226 36.9991 177.272 37.2824 177.288L45.8229 177.749C46.0891 177.764 46.3273 177.803 46.5375 177.865C46.7478 177.926 46.9504 178.074 47.1454 178.307L49.041 180.572L39.1252 180.002C38.8576 180.004 38.6085 179.991 38.3781 179.961C38.1555 179.942 37.9313 179.892 37.7055 179.811C37.734 180.072 37.7283 180.331 37.6884 180.586C37.6656 180.843 37.6117 181.11 37.5266 181.387L35.1688 192.775L33.2966 190.538C33.125 190.333 33.0141 190.124 32.9638 189.913C32.9307 189.703 32.9435 189.462 33.002 189.191L34.9085 179.679C34.9872 179.375 34.9961 179.13 34.935 178.944C34.8832 178.749 34.7403 178.512 34.5063 178.233L33.9213 177.533L27.1535 183.197L25.059 180.694L45.6559 163.458L47.7504 165.961Z" fill="#A94C2E"/>
<path d="M57.6446 188.904C58.42 189.693 59.0015 190.553 59.3889 191.485C59.785 192.408 59.9703 193.359 59.9448 194.339C59.9279 195.31 59.6831 196.292 59.2105 197.285C58.7551 198.279 58.0593 199.235 57.1231 200.156C56.7591 200.514 56.478 200.713 56.28 200.754C56.0819 200.796 55.8764 200.708 55.6633 200.491L47.0482 191.728C46.2331 192.563 45.6201 193.387 45.2091 194.201C44.7982 195.014 44.5637 195.807 44.5055 196.58C44.456 197.344 44.5744 198.08 44.8606 198.787C45.1555 199.486 45.6097 200.148 46.2232 200.772C46.7941 201.353 47.3491 201.787 47.8882 202.075C48.4444 202.364 48.9497 202.583 49.404 202.733C49.8582 202.883 50.2484 202.994 50.5744 203.065C50.9176 203.137 51.1616 203.246 51.3065 203.394C51.494 203.584 51.5652 203.804 51.5201 204.053L51.314 205.534C50.6861 205.589 50.0461 205.545 49.3941 205.402C48.7507 205.25 48.1209 205.025 47.5046 204.728C46.8967 204.439 46.3152 204.09 45.76 203.682C45.1961 203.281 44.6799 202.843 44.2112 202.366C43.3164 201.456 42.6415 200.466 42.1865 199.396C41.7487 198.327 41.5475 197.221 41.5831 196.078C41.6358 194.935 41.9465 193.777 42.5152 192.605C43.0839 191.432 43.936 190.287 45.0716 189.171C45.9904 188.268 46.9849 187.563 48.055 187.056C49.1337 186.558 50.2233 186.288 51.3239 186.246C52.4331 186.195 53.5274 186.39 54.6066 186.828C55.6946 187.259 56.7072 187.951 57.6446 188.904ZM55.9924 190.631C54.8932 189.513 53.7032 188.952 52.4225 188.95C51.1505 188.939 49.8657 189.418 48.5681 190.387L55.6111 197.551C56.1485 197.023 56.5658 196.468 56.863 195.886C57.1689 195.295 57.3416 194.699 57.3811 194.098C57.4293 193.488 57.3355 192.89 57.0999 192.304C56.8814 191.717 56.5122 191.16 55.9924 190.631Z" fill="#A94C2E"/>
<path d="M67.5612 223.223C66.4263 222.306 65.8073 221.283 65.7042 220.153C65.6106 219.031 66.0449 217.874 67.0071 216.682L74.1088 207.887L72.3782 206.489C72.2269 206.367 72.1335 206.222 72.0982 206.053C72.0706 205.874 72.1331 205.69 72.2858 205.501L73.0991 204.494L75.6945 206.097L79.8613 202.127C79.9948 202 80.1479 201.936 80.3206 201.935C80.501 201.925 80.6716 201.984 80.8324 202.114L82.1091 203.145L78.1115 208.096L82.2254 211.418L80.7477 213.248L76.6339 209.926L69.6696 218.551C69.1809 219.156 68.9647 219.724 69.0212 220.253C69.0776 220.783 69.3375 221.235 69.8009 221.61C70.0657 221.823 70.3194 221.974 70.562 222.06C70.8217 222.145 71.0569 222.202 71.2674 222.231C71.478 222.261 71.6573 222.281 71.8054 222.291C71.9705 222.299 72.0909 222.334 72.1665 222.395C72.2989 222.502 72.3522 222.678 72.3264 222.922L72.0905 224.724C71.3271 224.779 70.5426 224.677 69.737 224.417C68.939 224.148 68.2137 223.749 67.5612 223.223Z" fill="#A94C2E"/>
<path d="M76.6049 229.777L91.9128 207.71L94.5795 209.56L88.3857 218.489C89.5129 218.25 90.6131 218.199 91.6861 218.337C92.7661 218.465 93.8205 218.886 94.8492 219.599C95.6782 220.174 96.3103 220.82 96.7455 221.536C97.1976 222.249 97.4568 223.006 97.5229 223.806C97.6059 224.604 97.5114 225.433 97.2392 226.295C96.967 227.156 96.533 228.016 95.9372 228.875L89.2341 238.538L86.5675 236.688L93.2705 227.025C94.0673 225.877 94.4192 224.804 94.3264 223.808C94.2504 222.808 93.6731 221.935 92.5945 221.186C91.8055 220.639 90.9347 220.316 89.9823 220.218C89.0399 220.126 88.0539 220.204 87.0243 220.451L79.2716 231.627L76.6049 229.777Z" fill="#A94C2E"/>
<path d="M111.074 229.637C112.031 230.191 112.821 230.866 113.442 231.661C114.07 232.445 114.501 233.313 114.737 234.264C114.979 235.205 115.005 236.216 114.814 237.299C114.639 238.378 114.223 239.485 113.565 240.622C113.31 241.063 113.092 241.331 112.912 241.423C112.732 241.516 112.51 241.486 112.247 241.334L101.611 235.179C101.047 236.201 100.676 237.158 100.496 238.052C100.316 238.945 100.301 239.772 100.451 240.532C100.607 241.282 100.917 241.96 101.381 242.566C101.851 243.161 102.465 243.678 103.222 244.116C103.927 244.524 104.578 244.795 105.174 244.929C105.787 245.059 106.332 245.136 106.81 245.16C107.288 245.184 107.694 245.187 108.027 245.169C108.377 245.147 108.641 245.187 108.82 245.291C109.051 245.425 109.179 245.618 109.201 245.87L109.397 247.352C108.806 247.572 108.177 247.7 107.511 247.735C106.85 247.76 106.183 247.711 105.51 247.589C104.847 247.472 104.194 247.29 103.55 247.044C102.9 246.809 102.286 246.523 101.707 246.188C100.602 245.549 99.6884 244.775 98.9651 243.864C98.2585 242.95 97.7702 241.937 97.5003 240.826C97.2471 239.71 97.2385 238.512 97.4746 237.23C97.7108 235.948 98.2276 234.618 99.0251 233.24C99.6705 232.125 100.441 231.181 101.338 230.408C102.246 229.641 103.224 229.09 104.274 228.757C105.329 228.413 106.436 228.309 107.593 228.445C108.756 228.57 109.917 228.968 111.074 229.637ZM109.941 231.741C108.584 230.956 107.287 230.732 106.052 231.071C104.823 231.399 103.712 232.203 102.719 233.482L111.415 238.513C111.792 237.861 112.047 237.215 112.178 236.575C112.316 235.924 112.324 235.304 112.202 234.714C112.086 234.113 111.837 233.561 111.453 233.059C111.087 232.552 110.582 232.113 109.941 231.741Z" fill="#A94C2E"/>
<path d="M129.765 260.079C128.427 259.498 127.558 258.676 127.158 257.614C126.769 256.557 126.88 255.326 127.49 253.922L131.996 243.554L129.955 242.667C129.777 242.59 129.648 242.474 129.569 242.321C129.495 242.156 129.507 241.962 129.603 241.739L130.119 240.552L133.048 241.407L136.008 236.471C136.103 236.313 136.233 236.211 136.4 236.164C136.571 236.106 136.751 236.118 136.941 236.2L138.446 236.854L135.91 242.69L140.759 244.797L139.822 246.955L134.972 244.847L130.554 255.014C130.244 255.728 130.187 256.333 130.382 256.828C130.578 257.324 130.948 257.691 131.495 257.928C131.807 258.064 132.091 258.141 132.348 258.16C132.621 258.172 132.863 258.165 133.074 258.137C133.285 258.109 133.463 258.081 133.608 258.051C133.769 258.015 133.895 258.017 133.984 258.056C134.14 258.123 134.238 258.279 134.278 258.521L134.53 260.321C133.809 260.577 133.026 260.687 132.18 260.651C131.339 260.604 130.534 260.413 129.765 260.079Z" fill="#A94C2E"/>
<path d="M149.87 247.8L143.476 265.127L140.431 264.004L146.825 246.676L149.87 247.8ZM152.562 242.613C152.452 242.909 152.286 243.165 152.064 243.381C151.857 243.59 151.614 243.759 151.333 243.889C151.067 244.011 150.782 244.081 150.478 244.098C150.174 244.115 149.873 244.069 149.577 243.96C149.28 243.851 149.022 243.69 148.802 243.48C148.593 243.273 148.422 243.035 148.288 242.765C148.17 242.488 148.1 242.204 148.078 241.911C148.061 241.606 148.107 241.306 148.217 241.009C148.326 240.713 148.486 240.454 148.697 240.234C148.912 240.003 149.152 239.826 149.418 239.703C149.699 239.574 149.986 239.498 150.279 239.477C150.583 239.46 150.883 239.506 151.18 239.615C151.476 239.725 151.735 239.885 151.955 240.095C152.175 240.306 152.344 240.55 152.462 240.827C152.596 241.097 152.67 241.389 152.683 241.705C152.711 242.014 152.671 242.316 152.562 242.613Z" fill="#A94C2E"/>
<path d="M153.306 268.647L158.229 250.845L160.092 251.36C160.537 251.483 160.758 251.778 160.756 252.244L160.479 254.135C161.358 253.508 162.274 253.048 163.224 252.756C164.187 252.468 165.207 252.472 166.285 252.77C167.492 253.104 168.372 253.707 168.925 254.579C169.491 255.454 169.78 256.505 169.794 257.732C170.218 257.156 170.694 256.688 171.222 256.33C171.762 255.975 172.325 255.714 172.913 255.549C173.501 255.384 174.096 255.309 174.697 255.323C175.31 255.342 175.91 255.432 176.495 255.594C177.433 255.853 178.222 256.235 178.864 256.741C179.521 257.238 180.023 257.843 180.368 258.556C180.724 259.273 180.921 260.09 180.957 261.008C180.996 261.915 180.867 262.907 180.569 263.984L177.435 275.319L174.306 274.454L177.441 263.119C177.826 261.725 177.813 260.587 177.402 259.703C176.994 258.809 176.209 258.201 175.05 257.88C174.534 257.738 174.016 257.695 173.496 257.753C172.99 257.802 172.513 257.954 172.064 258.209C171.616 258.463 171.211 258.83 170.852 259.311C170.507 259.783 170.237 260.371 170.043 261.073L166.908 272.408L163.78 271.543L166.915 260.208C167.31 258.779 167.318 257.634 166.938 256.772C166.558 255.91 165.818 255.327 164.716 255.023C163.943 254.809 163.164 254.82 162.38 255.058C161.611 255.286 160.852 255.682 160.103 256.244L156.434 269.512L153.306 268.647Z" fill="#A94C2E"/>
<path d="M193.915 258.957C195.005 259.146 195.979 259.506 196.836 260.037C197.696 260.556 198.402 261.221 198.952 262.032C199.504 262.831 199.878 263.771 200.073 264.854C200.282 265.926 200.275 267.109 200.051 268.403C199.963 268.906 199.851 269.232 199.715 269.381C199.578 269.53 199.36 269.578 199.06 269.526L186.951 267.429C186.776 268.583 186.759 269.61 186.899 270.51C187.039 271.41 187.311 272.191 187.714 272.853C188.12 273.503 188.645 274.032 189.29 274.44C189.937 274.836 190.691 275.108 191.554 275.258C192.356 275.397 193.06 275.426 193.667 275.346C194.287 275.256 194.825 275.14 195.281 274.997C195.738 274.854 196.12 274.716 196.426 274.584C196.747 274.443 197.009 274.389 197.212 274.425C197.476 274.47 197.662 274.607 197.77 274.836L198.466 276.159C197.988 276.57 197.442 276.907 196.829 277.171C196.218 277.423 195.576 277.608 194.901 277.725C194.239 277.845 193.563 277.9 192.874 277.892C192.182 277.896 191.507 277.84 190.849 277.726C189.591 277.508 188.466 277.098 187.472 276.494C186.493 275.88 185.685 275.099 185.047 274.149C184.424 273.19 184.001 272.068 183.78 270.784C183.558 269.5 183.583 268.073 183.855 266.504C184.075 265.234 184.472 264.082 185.046 263.046C185.632 262.013 186.36 261.158 187.23 260.482C188.101 259.795 189.103 259.314 190.236 259.042C191.371 258.757 192.597 258.729 193.915 258.957ZM193.579 261.323C192.034 261.056 190.74 261.294 189.699 262.039C188.659 262.772 187.894 263.91 187.405 265.453L197.304 267.168C197.432 266.426 197.448 265.731 197.35 265.085C197.254 264.427 197.047 263.842 196.729 263.331C196.412 262.807 195.987 262.376 195.454 262.037C194.935 261.688 194.31 261.45 193.579 261.323Z" fill="#A94C2E"/>
<path d="M221.979 281.059C220.523 280.976 219.423 280.505 218.681 279.647C217.951 278.79 217.629 277.597 217.716 276.068L218.358 264.782L216.137 264.655C215.943 264.644 215.783 264.58 215.655 264.463C215.529 264.334 215.472 264.149 215.486 263.906L215.56 262.613L218.603 262.403L219.674 256.748C219.709 256.567 219.796 256.426 219.935 256.325C220.076 256.211 220.249 256.16 220.455 256.172L222.094 256.265L221.732 262.618L227.011 262.918L226.878 265.267L221.599 264.966L220.969 276.034C220.924 276.81 221.08 277.398 221.434 277.795C221.789 278.193 222.264 278.409 222.859 278.442C223.198 278.462 223.492 278.436 223.74 278.365C224 278.282 224.224 278.191 224.412 278.093C224.601 277.994 224.758 277.905 224.884 277.827C225.023 277.738 225.141 277.696 225.238 277.701C225.408 277.711 225.554 277.823 225.676 278.037L226.534 279.638C225.946 280.128 225.249 280.502 224.443 280.761C223.638 281.007 222.816 281.106 221.979 281.059Z" fill="#A94C2E"/>
<path d="M240.324 262.233C241.673 262.211 242.892 262.417 243.981 262.849C245.082 263.282 246.016 263.905 246.782 264.719C247.561 265.534 248.161 266.527 248.58 267.7C249.012 268.86 249.24 270.163 249.263 271.609C249.286 273.068 249.1 274.384 248.706 275.557C248.323 276.73 247.756 277.736 247.003 278.575C246.263 279.413 245.349 280.066 244.263 280.533C243.188 280.988 241.976 281.226 240.627 281.247C239.278 281.269 238.053 281.07 236.952 280.65C235.863 280.217 234.929 279.594 234.151 278.779C233.372 277.965 232.766 276.978 232.335 275.818C231.903 274.658 231.675 273.348 231.652 271.89C231.629 270.444 231.815 269.134 232.209 267.96C232.604 266.775 233.177 265.763 233.93 264.924C234.682 264.086 235.596 263.433 236.67 262.966C237.757 262.499 238.975 262.254 240.324 262.233ZM240.587 278.713C242.41 278.684 243.761 278.055 244.641 276.825C245.521 275.583 245.943 273.869 245.909 271.681C245.873 269.481 245.396 267.775 244.478 266.561C243.559 265.348 242.188 264.756 240.365 264.785C239.441 264.8 238.641 264.971 237.966 265.298C237.29 265.624 236.726 266.089 236.274 266.692C235.834 267.295 235.505 268.036 235.288 268.914C235.083 269.781 234.989 270.761 235.007 271.855C235.024 272.949 235.149 273.925 235.382 274.785C235.626 275.644 235.978 276.368 236.437 276.956C236.908 277.532 237.487 277.973 238.173 278.278C238.858 278.583 239.663 278.728 240.587 278.713Z" fill="#A94C2E"/>
<path d="M270.825 259.649C271.619 259.536 272.372 259.521 273.084 259.604C273.806 259.673 274.473 259.835 275.087 260.092L280.051 259.385L280.221 260.576C280.277 260.973 280.061 261.262 279.571 261.442L277.536 262.027C278.056 262.751 278.385 263.594 278.522 264.557C278.649 265.447 278.591 266.284 278.346 267.068C278.112 267.838 277.725 268.525 277.185 269.13C276.657 269.733 275.992 270.233 275.189 270.63C274.398 271.025 273.503 271.294 272.504 271.436C271.65 271.558 270.829 271.571 270.042 271.474C269.691 271.77 269.433 272.07 269.268 272.376C269.115 272.68 269.057 272.965 269.095 273.23C269.156 273.663 269.378 273.969 269.76 274.148C270.139 274.315 270.625 274.405 271.216 274.419C271.808 274.433 272.472 274.4 273.21 274.319C273.947 274.239 274.699 274.175 275.466 274.127C276.243 274.065 277.008 274.048 277.761 274.076C278.514 274.104 279.2 274.227 279.821 274.446C280.441 274.664 280.964 275.013 281.388 275.493C281.813 275.973 282.085 276.634 282.205 277.476C282.316 278.259 282.226 279.045 281.933 279.836C281.653 280.624 281.186 281.354 280.532 282.024C279.88 282.706 279.049 283.291 278.038 283.779C277.029 284.279 275.856 284.624 274.521 284.814C273.185 285.005 271.993 285.039 270.944 284.919C269.908 284.796 269.027 284.56 268.301 284.209C267.576 283.858 267.003 283.411 266.582 282.87C266.175 282.338 265.926 281.754 265.835 281.116C265.706 280.214 265.88 279.409 266.357 278.703C266.843 277.983 267.56 277.365 268.505 276.85C267.954 276.683 267.493 276.423 267.124 276.07C266.764 275.704 266.537 275.184 266.441 274.51C266.403 274.245 266.413 273.968 266.47 273.677C266.525 273.375 266.629 273.071 266.782 272.767C266.947 272.461 267.156 272.161 267.409 271.867C267.662 271.574 267.967 271.303 268.324 271.056C267.35 270.679 266.545 270.112 265.909 269.355C265.284 268.585 264.891 267.64 264.732 266.521C264.605 265.631 264.659 264.8 264.893 264.03C265.137 263.247 265.53 262.558 266.072 261.965C266.612 261.361 267.283 260.86 268.086 260.463C268.901 260.064 269.814 259.793 270.825 259.649ZM279.319 278.422C279.254 277.964 279.075 277.615 278.783 277.374C278.491 277.134 278.118 276.972 277.664 276.889C277.209 276.795 276.693 276.751 276.117 276.76C275.541 276.768 274.939 276.805 274.31 276.87C273.679 276.923 273.036 276.978 272.381 277.034C271.726 277.091 271.097 277.113 270.493 277.101C269.854 277.523 269.351 278 268.984 278.531C268.63 279.06 268.499 279.65 268.592 280.3C268.65 280.709 268.806 281.073 269.061 281.393C269.329 281.723 269.697 281.984 270.166 282.175C270.637 282.378 271.208 282.505 271.878 282.557C272.563 282.619 273.35 282.587 274.24 282.46C275.107 282.337 275.872 282.148 276.535 281.894C277.199 281.64 277.745 281.335 278.173 280.979C278.613 280.622 278.932 280.226 279.128 279.793C279.324 279.36 279.388 278.903 279.319 278.422ZM272.201 269.306C272.851 269.214 273.409 269.042 273.877 268.791C274.357 268.539 274.742 268.226 275.032 267.853C275.323 267.48 275.521 267.059 275.626 266.59C275.729 266.109 275.742 265.597 275.665 265.056C275.506 263.936 275.036 263.095 274.256 262.531C273.488 261.965 272.454 261.775 271.154 261.96C269.866 262.143 268.927 262.615 268.335 263.374C267.756 264.132 267.546 265.071 267.705 266.19C267.782 266.731 267.937 267.219 268.171 267.652C268.415 268.071 268.729 268.42 269.112 268.697C269.495 268.973 269.946 269.167 270.465 269.277C270.984 269.387 271.563 269.397 272.201 269.306Z" fill="#A94C2E"/>
<path d="M288.152 256.816L291.948 274.892L288.772 275.559L284.976 257.483L288.152 256.816ZM287.674 250.992C287.739 251.301 287.734 251.607 287.661 251.908C287.597 252.194 287.481 252.467 287.311 252.726C287.152 252.971 286.947 253.182 286.699 253.358C286.45 253.535 286.171 253.655 285.862 253.72C285.553 253.785 285.249 253.787 284.95 253.725C284.663 253.661 284.392 253.551 284.135 253.394C283.888 253.222 283.677 253.018 283.504 252.781C283.327 252.532 283.206 252.253 283.141 251.944C283.077 251.635 283.075 251.331 283.136 251.032C283.195 250.722 283.305 250.444 283.464 250.2C283.634 249.94 283.836 249.724 284.073 249.55C284.322 249.374 284.601 249.253 284.91 249.188C285.219 249.123 285.523 249.121 285.822 249.183C286.12 249.244 286.393 249.361 286.641 249.532C286.897 249.69 287.115 249.899 287.294 250.159C287.482 250.405 287.609 250.683 287.674 250.992Z" fill="#A94C2E"/>
<path d="M294.707 255.403L297.27 254.687C297.516 254.618 297.739 254.625 297.939 254.708C298.139 254.791 298.298 254.911 298.418 255.067L306.131 265.254C306.412 265.63 306.659 266.015 306.87 266.411C307.082 266.806 307.286 267.197 307.482 267.584C307.461 267.148 307.445 266.704 307.432 266.254C307.42 265.803 307.437 265.344 307.483 264.876L308.848 252.151C308.866 251.944 308.935 251.761 309.054 251.601C309.182 251.427 309.363 251.307 309.597 251.241L312.038 250.559L309.758 270.374L306.931 271.165L294.707 255.403Z" fill="#A94C2E"/>
<path d="M322.927 246.217C323.965 245.835 324.988 245.66 325.997 245.69C327.001 245.709 327.944 245.932 328.827 246.358C329.705 246.773 330.499 247.401 331.209 248.24C331.927 249.064 332.513 250.092 332.966 251.324C333.142 251.803 333.209 252.141 333.165 252.339C333.121 252.536 332.956 252.688 332.671 252.793L321.138 257.037C321.564 258.123 322.063 259.021 322.635 259.73C323.207 260.44 323.833 260.98 324.513 261.351C325.19 261.711 325.909 261.906 326.672 261.936C327.43 261.955 328.219 261.813 329.041 261.511C329.805 261.23 330.43 260.903 330.914 260.53C331.406 260.142 331.814 259.772 332.137 259.42C332.461 259.067 332.723 258.757 332.922 258.49C333.129 258.207 333.329 258.029 333.523 257.958C333.774 257.866 334.003 257.891 334.212 258.035L335.476 258.832C335.268 259.427 334.964 259.992 334.565 260.527C334.162 261.051 333.699 261.533 333.174 261.972C332.66 262.407 332.103 262.793 331.502 263.131C330.905 263.48 330.293 263.77 329.666 264.001C328.468 264.442 327.288 264.65 326.126 264.624C324.971 264.583 323.88 264.311 322.853 263.808C321.833 263.289 320.906 262.53 320.071 261.529C319.237 260.528 318.544 259.28 317.994 257.786C317.549 256.576 317.316 255.38 317.295 254.196C317.285 253.008 317.488 251.904 317.902 250.883C318.313 249.852 318.94 248.934 319.784 248.131C320.625 247.317 321.672 246.679 322.927 246.217ZM323.82 248.434C322.349 248.975 321.348 249.829 320.819 250.995C320.285 252.15 320.193 253.518 320.542 255.1L329.97 251.63C329.71 250.923 329.376 250.314 328.968 249.803C328.555 249.282 328.083 248.879 327.552 248.595C327.016 248.3 326.432 248.14 325.8 248.113C325.176 248.071 324.516 248.178 323.82 248.434Z" fill="#A94C2E"/>
<path d="M344.365 227.929L356.332 251.973L353.427 253.419L341.46 229.375L344.365 227.929Z" fill="#A94C2E"/>
<path d="M359.331 229.37L368.392 245.464L365.564 247.057L356.503 230.962L359.331 229.37ZM357.122 223.96C357.277 224.235 357.365 224.528 357.385 224.837C357.41 225.129 357.381 225.425 357.298 225.723C357.219 226.004 357.088 226.266 356.904 226.51C356.72 226.753 356.49 226.952 356.215 227.107C355.94 227.262 355.65 227.355 355.347 227.386C355.054 227.411 354.762 227.388 354.47 227.315C354.183 227.226 353.92 227.094 353.683 226.921C353.44 226.737 353.241 226.507 353.086 226.232C352.931 225.957 352.838 225.667 352.807 225.364C352.769 225.05 352.79 224.752 352.869 224.471C352.952 224.173 353.081 223.905 353.254 223.668C353.438 223.425 353.668 223.226 353.943 223.071C354.218 222.916 354.508 222.823 354.811 222.792C355.114 222.761 355.41 222.79 355.697 222.879C355.989 222.952 356.26 223.085 356.509 223.28C356.762 223.458 356.967 223.684 357.122 223.96Z" fill="#A94C2E"/>
<path d="M377.704 239.875L369.267 226.636L367.418 227.533C367.17 227.619 366.941 227.657 366.733 227.646C366.528 227.618 366.36 227.501 366.229 227.296L365.514 226.174L367.974 224.606L367.014 223.099C366.445 222.207 366.065 221.34 365.874 220.496C365.686 219.636 365.672 218.823 365.833 218.057C365.997 217.275 366.329 216.552 366.829 215.888C367.328 215.224 367.987 214.63 368.808 214.108C369.505 213.663 370.216 213.354 370.941 213.181L371.751 214.588C371.872 214.8 371.863 214.978 371.725 215.124C371.587 215.269 371.37 215.437 371.073 215.626L370.596 215.93C370.124 216.231 369.733 216.566 369.422 216.938C369.121 217.302 368.92 217.711 368.82 218.164C368.72 218.618 368.736 219.119 368.87 219.668C369.014 220.21 369.298 220.815 369.723 221.481L370.634 222.911L375.139 220.04L376.403 222.023L371.99 224.836L380.456 238.121L377.704 239.875Z" fill="#A94C2E"/>
<path d="M384.971 212.125C385.86 211.467 386.793 211.012 387.77 210.758C388.739 210.495 389.707 210.445 390.674 210.607C391.633 210.76 392.571 211.14 393.488 211.746C394.408 212.336 395.258 213.159 396.038 214.215C396.342 214.625 396.5 214.932 396.513 215.133C396.526 215.335 396.411 215.527 396.166 215.707L386.284 223.012C386.997 223.936 387.728 224.658 388.475 225.179C389.223 225.699 389.975 226.042 390.733 226.208C391.483 226.364 392.228 226.35 392.968 226.165C393.701 225.971 394.42 225.614 395.124 225.094C395.779 224.61 396.287 224.121 396.647 223.627C397.011 223.117 397.298 222.647 397.51 222.219C397.723 221.79 397.887 221.419 398.003 221.106C398.122 220.776 398.265 220.55 398.431 220.427C398.646 220.268 398.874 220.228 399.114 220.308L400.551 220.719C400.518 221.349 400.385 221.976 400.152 222.602C399.912 223.217 399.601 223.81 399.22 224.378C398.849 224.94 398.423 225.467 397.94 225.959C397.465 226.462 396.959 226.912 396.421 227.309C395.395 228.068 394.32 228.597 393.197 228.898C392.077 229.182 390.954 229.227 389.827 229.032C388.703 228.82 387.6 228.35 386.518 227.623C385.437 226.896 384.422 225.892 383.476 224.611C382.71 223.575 382.151 222.492 381.799 221.361C381.457 220.224 381.342 219.107 381.454 218.011C381.559 216.906 381.905 215.85 382.49 214.842C383.069 213.825 383.895 212.919 384.971 212.125ZM386.449 214.002C385.188 214.934 384.467 216.034 384.285 217.302C384.097 218.56 384.391 219.899 385.169 221.319L393.248 215.348C392.8 214.742 392.309 214.251 391.774 213.875C391.232 213.49 390.666 213.235 390.076 213.112C389.479 212.979 388.874 212.988 388.26 213.14C387.649 213.274 387.045 213.561 386.449 214.002Z" fill="#A94C2E"/>
<path d="M420.339 207.106C419.273 208.102 418.173 208.572 417.04 208.516C415.915 208.451 414.83 207.86 413.785 206.74L406.07 198.478L404.444 199.996C404.302 200.129 404.145 200.201 403.972 200.212C403.791 200.215 403.618 200.127 403.452 199.949L402.569 199.003L404.519 196.658L401.171 191.976C401.064 191.826 401.022 191.666 401.045 191.495C401.06 191.315 401.143 191.154 401.294 191.013L402.493 189.893L406.836 194.544L410.701 190.935L412.306 192.654L408.442 196.263L416.008 204.365C416.539 204.934 417.07 205.227 417.603 205.245C418.136 205.264 418.62 205.069 419.055 204.663C419.304 204.431 419.488 204.2 419.607 203.972C419.728 203.727 419.817 203.502 419.876 203.298C419.934 203.093 419.979 202.919 420.01 202.774C420.041 202.611 420.092 202.497 420.163 202.43C420.288 202.314 420.469 202.286 420.708 202.346L422.459 202.832C422.407 203.595 422.196 204.358 421.826 205.119C421.447 205.871 420.952 206.534 420.339 207.106Z" fill="#A94C2E"/>
<path d="M419.404 180.837C420.321 179.847 421.312 179.108 422.377 178.62C423.45 178.122 424.546 177.878 425.664 177.886C426.791 177.886 427.923 178.139 429.061 178.645C430.198 179.135 431.297 179.871 432.359 180.853C433.429 181.844 434.252 182.888 434.828 183.984C435.412 185.071 435.747 186.176 435.833 187.299C435.928 188.414 435.769 189.525 435.356 190.634C434.942 191.725 434.277 192.766 433.36 193.756C432.444 194.746 431.453 195.494 430.389 195.999C429.324 196.488 428.228 196.732 427.101 196.733C425.974 196.733 424.843 196.489 423.705 195.999C422.568 195.51 421.465 194.77 420.394 193.779C419.333 192.796 418.514 191.757 417.939 190.661C417.354 189.557 417.019 188.443 416.932 187.319C416.846 186.196 417.005 185.085 417.41 183.985C417.823 182.877 418.488 181.828 419.404 180.837ZM431.5 192.034C432.739 190.696 433.218 189.284 432.937 187.798C432.647 186.304 431.699 184.814 430.093 183.328C428.479 181.833 426.915 180.999 425.403 180.825C423.891 180.651 422.516 181.233 421.278 182.571C420.65 183.249 420.221 183.945 419.991 184.66C419.76 185.374 419.707 186.103 419.83 186.846C419.961 187.581 420.27 188.33 420.755 189.094C421.24 189.841 421.884 190.586 422.687 191.329C423.489 192.072 424.282 192.657 425.064 193.082C425.854 193.499 426.62 193.745 427.363 193.819C428.105 193.877 428.823 193.763 429.517 193.478C430.212 193.193 430.873 192.712 431.5 192.034Z" fill="#A94C2E"/>
<path d="M450.281 172.979L428.413 157.387L430.297 154.745L439.145 161.054C438.921 159.923 438.885 158.823 439.037 157.751C439.178 156.673 439.613 155.624 440.34 154.605C440.925 153.784 441.579 153.16 442.301 152.734C443.02 152.291 443.78 152.042 444.581 151.986C445.379 151.913 446.207 152.018 447.065 152.302C447.923 152.585 448.778 153.03 449.629 153.637L459.204 160.465L457.32 163.107L447.745 156.28C446.606 155.468 445.539 155.102 444.541 155.182C443.541 155.245 442.659 155.811 441.897 156.88C441.34 157.662 441.006 158.528 440.895 159.479C440.791 160.421 440.856 161.408 441.09 162.44L452.165 170.337L450.281 172.979Z" fill="#A94C2E"/>
<path d="M469.905 142.745L469.167 143.983C469.005 144.254 468.833 144.449 468.65 144.566C468.467 144.683 468.224 144.687 467.921 144.577L466.262 144.013C466.389 144.655 466.486 145.264 466.552 145.841C466.608 146.412 466.61 146.979 466.557 147.542C466.494 148.099 466.366 148.659 466.171 149.223C465.983 149.776 465.709 150.355 465.348 150.961C464.98 151.577 464.551 152.106 464.061 152.55C463.566 152.976 463.028 153.285 462.447 153.477C461.866 153.668 461.243 153.728 460.577 153.657C459.908 153.57 459.213 153.311 458.493 152.882C457.866 152.508 457.369 151.978 457 151.291C456.62 150.598 456.433 149.737 456.439 148.707C456.45 147.667 456.685 146.441 457.144 145.031C457.592 143.614 458.331 141.995 459.36 140.174L458.122 139.437C456.89 138.702 455.802 138.415 454.858 138.574C453.91 138.716 453.128 139.304 452.512 140.338C452.107 141.017 451.854 141.644 451.751 142.22C451.645 142.779 451.598 143.296 451.612 143.771C451.622 144.229 451.641 144.637 451.669 144.993C451.693 145.333 451.633 145.623 451.49 145.863C451.378 146.051 451.231 146.19 451.05 146.28C450.865 146.354 450.674 146.389 450.478 146.385L449.287 146.354C448.964 144.973 448.895 143.652 449.081 142.39C449.268 141.128 449.728 139.881 450.462 138.649C450.991 137.762 451.607 137.061 452.31 136.546C453.013 136.031 453.766 135.694 454.568 135.535C455.37 135.377 456.214 135.398 457.098 135.6C457.982 135.802 458.868 136.167 459.756 136.696L469.905 142.745ZM463.885 148.964C464.177 148.473 464.398 147.996 464.547 147.533C464.685 147.063 464.771 146.598 464.805 146.137C464.835 145.66 464.816 145.181 464.748 144.702C464.686 144.213 464.581 143.711 464.434 143.199L461.129 141.229C460.406 142.538 459.86 143.692 459.491 144.689C459.113 145.681 458.886 146.536 458.811 147.255C458.736 147.975 458.798 148.571 458.997 149.043C459.203 149.506 459.525 149.867 459.964 150.129C460.381 150.378 460.782 150.525 461.166 150.569C461.549 150.614 461.909 150.581 462.244 150.469C462.569 150.352 462.872 150.164 463.153 149.907C463.423 149.643 463.667 149.329 463.885 148.964Z" fill="#A94C2E"/>
<path d="M473.627 135.668L457.041 127.541L457.892 125.805C458.095 125.391 458.425 125.228 458.883 125.316L460.796 125.97C460.352 124.859 460.101 123.741 460.043 122.616C459.991 121.48 460.251 120.329 460.823 119.161C461.267 118.255 461.81 117.533 462.453 116.995C463.09 116.441 463.799 116.071 464.58 115.885C465.356 115.683 466.19 115.652 467.083 115.792C467.976 115.931 468.891 116.231 469.83 116.691L480.39 121.866L478.962 124.78L468.402 119.605C467.147 118.99 466.033 118.804 465.062 119.045C464.086 119.27 463.308 119.972 462.731 121.151C462.308 122.014 462.12 122.923 462.166 123.879C462.217 124.825 462.442 125.788 462.841 126.769L475.055 132.754L473.627 135.668Z" fill="#A94C2E"/>
<path d="M487.847 103.143C487.679 103.574 487.363 103.764 486.9 103.714L484.705 103.17C485.312 104.255 485.702 105.38 485.875 106.543C486.04 107.69 485.885 108.876 485.408 110.099C485.023 111.084 484.487 111.906 483.8 112.564C483.101 113.218 482.274 113.684 481.317 113.963C480.36 114.242 479.273 114.321 478.055 114.198C476.837 114.075 475.515 113.736 474.088 113.179C472.82 112.684 471.708 112.055 470.754 111.291C469.788 110.523 469.026 109.665 468.47 108.717C467.917 107.758 467.594 106.732 467.498 105.638C467.392 104.539 467.566 103.407 468.021 102.24C468.432 101.187 468.964 100.358 469.618 99.7517C470.261 99.1412 471.02 98.6674 471.895 98.3303L462.349 94.6067L463.528 91.5831L488.549 101.343L487.847 103.143ZM483.352 108.142C483.737 107.157 483.846 106.208 483.68 105.295C483.519 104.371 483.146 103.437 482.562 102.491L474.239 99.2447C473.275 99.508 472.516 99.9164 471.961 100.47C471.399 101.007 470.961 101.678 470.647 102.482C470.02 104.09 470.11 105.547 470.919 106.854C471.727 108.161 473.189 109.227 475.307 110.053C476.428 110.491 477.428 110.77 478.307 110.891C479.175 111.008 479.942 110.981 480.609 110.81C481.264 110.635 481.817 110.323 482.267 109.872C482.717 109.421 483.079 108.844 483.352 108.142Z" fill="#A94C2E"/>
<path d="M491.049 93.9922L473.257 89.0334L473.776 87.1717C473.9 86.7267 474.195 86.5061 474.66 86.5097L476.551 86.7905C475.926 85.9096 475.468 84.9934 475.178 84.0419C474.891 83.0787 474.898 82.0585 475.198 80.9812C475.534 79.7752 476.139 78.8964 477.012 78.3447C477.888 77.7814 478.94 77.494 480.167 77.4827C479.592 77.0574 479.125 76.5804 478.768 76.0517C478.414 75.5114 478.154 74.947 477.99 74.3587C477.826 73.7703 477.752 73.1756 477.768 72.5744C477.788 71.9615 477.879 71.3623 478.042 70.7768C478.303 69.8401 478.687 69.0512 479.194 68.4101C479.692 67.754 480.298 67.2542 481.013 66.9106C481.73 66.5553 482.548 66.3605 483.466 66.3262C484.372 66.2886 485.364 66.4199 486.441 66.7201L497.77 69.8775L496.898 73.0038L485.57 69.8464C484.176 69.4581 483.038 69.4688 482.154 69.8786C481.258 70.2851 480.649 71.068 480.326 72.2272C480.182 72.7424 480.139 73.2603 480.196 73.7809C480.244 74.2865 480.395 74.7638 480.648 75.213C480.902 75.6622 481.268 76.0672 481.748 76.4281C482.219 76.774 482.806 77.0449 483.509 77.2407L494.837 80.398L493.966 83.5244L482.638 80.367C481.209 79.9688 480.064 79.9587 479.201 80.3367C478.339 80.7146 477.754 81.4539 477.447 82.5545C477.232 83.3273 477.242 84.1062 477.478 84.8911C477.705 85.661 478.099 86.4207 478.659 87.17L491.92 90.8659L491.049 93.9922Z" fill="#A94C2E"/>
<path d="M501.001 50.4438L500.753 51.8626C500.698 52.1739 500.606 52.4169 500.477 52.5917C500.347 52.7664 500.122 52.8565 499.8 52.8618L498.049 52.925C498.396 53.4795 498.703 54.0146 498.971 54.5305C499.226 55.0442 499.429 55.5735 499.581 56.1183C499.72 56.661 499.799 57.2302 499.818 57.8259C499.839 58.4096 499.789 59.0487 499.667 59.7431C499.543 60.4495 499.331 61.0972 499.03 61.6862C498.72 62.2611 498.327 62.7414 497.852 63.1271C497.377 63.5128 496.817 63.7909 496.17 63.9613C495.513 64.1177 494.771 64.1235 493.945 63.9786C493.227 63.8527 492.573 63.5345 491.984 63.0239C491.383 62.5113 490.901 61.7729 490.54 60.8086C490.18 59.8324 489.964 58.6035 489.89 57.1221C489.805 55.6386 489.918 53.863 490.232 51.7953L488.813 51.5466C487.4 51.2989 486.281 51.4174 485.456 51.9021C484.62 52.3727 484.099 53.2007 483.891 54.386C483.755 55.1642 483.741 55.8405 483.85 56.415C483.949 56.9754 484.09 57.4751 484.272 57.9143C484.444 58.3394 484.607 58.7135 484.76 59.0365C484.903 59.3455 484.951 59.6376 484.903 59.913C484.865 60.1285 484.777 60.3106 484.64 60.4593C484.493 60.594 484.328 60.6945 484.143 60.7609L483.019 61.1562C482.225 59.9805 481.691 58.7699 481.416 57.5246C481.14 56.2793 481.126 54.9503 481.374 53.5375C481.553 52.5198 481.879 51.6453 482.352 50.9138C482.826 50.1824 483.41 49.5998 484.103 49.166C484.796 48.7321 485.591 48.452 486.49 48.3257C487.388 48.1993 488.346 48.2253 489.364 48.4037L501.001 50.4438ZM497.589 58.3977C497.688 57.835 497.724 57.3108 497.698 56.8249C497.66 56.337 497.575 55.8717 497.443 55.4289C497.301 54.9721 497.113 54.5319 496.879 54.1082C496.647 53.6726 496.37 53.2417 496.05 52.8153L492.261 52.151C492.051 53.6321 491.951 54.9042 491.962 55.9675C491.961 57.0286 492.054 57.9087 492.24 58.6077C492.426 59.3067 492.696 59.8415 493.051 60.2122C493.407 60.5709 493.837 60.7943 494.34 60.8825C494.819 60.9664 495.246 60.961 495.62 60.8662C495.995 60.7714 496.319 60.6123 496.592 60.3888C496.854 60.1631 497.07 59.8802 497.241 59.5399C497.4 59.1975 497.516 58.8168 497.589 58.3977Z" fill="#A94C2E"/>
<path d="M503.15 29.5598C503.108 30.0198 502.857 30.2897 502.398 30.3696L500.138 30.4548C501.022 31.3295 501.708 32.3019 502.196 33.3721C502.672 34.429 502.85 35.6111 502.73 36.9184C502.633 37.9714 502.346 38.9093 501.867 39.732C501.377 40.5536 500.71 41.2308 499.868 41.7637C499.026 42.2967 498.002 42.6726 496.798 42.8915C495.594 43.1104 494.229 43.1498 492.704 43.0096C491.349 42.885 490.106 42.5878 488.978 42.1179C487.837 41.6468 486.868 41.0329 486.071 40.2761C485.275 39.5072 484.68 38.6102 484.286 37.5853C483.88 36.5592 483.734 35.4228 483.848 34.1761C483.952 33.0504 484.234 32.1059 484.695 31.3426C485.143 30.5782 485.742 29.913 486.489 29.347L476.286 28.4093L476.583 25.1774L503.327 27.6352L503.15 29.5598ZM500.214 35.6069C500.311 34.5538 500.153 33.6116 499.741 32.7803C499.331 31.937 498.714 31.1418 497.892 30.3949L488.995 29.5773C488.142 30.097 487.525 30.6994 487.144 31.3847C486.753 32.0567 486.518 32.8224 486.439 33.6818C486.281 35.4006 486.771 36.7761 487.909 37.8084C489.047 38.8407 490.748 39.4608 493.011 39.6688C494.21 39.779 495.248 39.7706 496.126 39.6438C496.992 39.5159 497.722 39.2778 498.316 38.9296C498.897 38.5802 499.342 38.1267 499.649 37.569C499.957 37.0114 500.145 36.3573 500.214 35.6069Z" fill="#A94C2E"/>
<path d="M484.866 12.574C484.877 11.4679 485.076 10.4488 485.461 9.51652C485.835 8.58416 486.378 7.78109 487.089 7.10729C487.789 6.43338 488.657 5.91306 489.694 5.54634C490.719 5.16734 491.887 4.98423 493.2 4.99702C493.711 5.002 494.05 5.06001 494.22 5.17106C494.389 5.28211 494.472 5.48957 494.469 5.79344L494.349 18.0818C495.516 18.0689 496.533 17.9208 497.398 17.6375C498.264 17.3542 498.991 16.9601 499.58 16.4553C500.156 15.9504 500.593 15.3468 500.892 14.6447C501.178 13.9425 501.326 13.1538 501.334 12.2786C501.342 11.4643 501.258 10.7645 501.081 10.1793C500.893 9.58181 500.691 9.0693 500.476 8.64176C500.262 8.21421 500.065 7.85977 499.885 7.57843C499.693 7.28483 499.599 7.03471 499.601 6.82808C499.603 6.56067 499.709 6.35505 499.917 6.21121L501.111 5.31115C501.593 5.717 502.014 6.20125 502.373 6.76392C502.72 7.32648 503.006 7.93098 503.23 8.57743C503.455 9.21172 503.619 9.86973 503.722 10.5515C503.837 11.2333 503.891 11.9085 503.884 12.577C503.872 13.8532 503.648 15.0302 503.212 16.1078C502.764 17.1731 502.123 18.0968 501.288 18.8788C500.442 19.6485 499.403 20.2462 498.171 20.6718C496.939 21.0974 495.527 21.3025 493.935 21.2869C492.646 21.2744 491.445 21.0682 490.331 20.6683C489.216 20.2563 488.256 19.6757 487.448 18.9263C486.629 18.1768 485.994 17.265 485.542 16.1909C485.079 15.1166 484.853 13.911 484.866 12.574ZM487.256 12.5243C487.24 14.0923 487.684 15.3304 488.587 16.2388C489.478 17.147 490.724 17.7183 492.326 17.9527L492.424 7.90687C491.671 7.89952 490.983 7.99615 490.361 8.19673C489.727 8.3972 489.183 8.6958 488.729 9.09252C488.264 9.48913 487.906 9.97796 487.658 10.559C487.397 11.1278 487.263 11.7829 487.256 12.5243Z" fill="#A94C2E"/>
<path d="M120.181 289.726C120.055 289.792 119.941 289.834 119.839 289.853C119.736 289.872 119.615 289.846 119.475 289.776C119.335 289.707 119.209 289.574 119.097 289.379C118.999 289.179 118.859 288.946 118.676 288.681C118.494 288.415 118.249 288.136 117.941 287.843C117.647 287.546 117.239 287.267 116.717 287.007C116.027 286.663 115.353 286.485 114.696 286.472C114.044 286.45 113.42 286.581 112.824 286.867C112.238 287.156 111.686 287.586 111.17 288.155C110.663 288.729 110.205 289.426 109.797 290.247C109.37 291.105 109.087 291.918 108.948 292.687C108.815 293.447 108.811 294.144 108.938 294.777C109.069 295.401 109.327 295.96 109.709 296.453C110.106 296.941 110.622 297.344 111.256 297.659C111.862 297.961 112.396 298.14 112.857 298.195C113.323 298.241 113.731 298.24 114.08 298.193C114.429 298.145 114.723 298.094 114.96 298.037C115.203 297.972 115.408 297.981 115.575 298.064C115.79 298.171 115.909 298.329 115.933 298.539L116.179 299.796C115.188 300.245 114.142 300.417 113.042 300.312C111.947 300.197 110.887 299.885 109.861 299.374C108.975 298.933 108.231 298.359 107.629 297.651C107.036 296.949 106.613 296.151 106.36 295.257C106.112 294.353 106.049 293.368 106.173 292.301C106.307 291.238 106.661 290.129 107.237 288.972C107.762 287.919 108.391 287.016 109.126 286.265C109.87 285.518 110.682 284.962 111.562 284.597C112.456 284.228 113.409 284.068 114.42 284.117C115.431 284.167 116.473 284.459 117.545 284.993C118.534 285.485 119.329 286.084 119.931 286.792C120.538 287.489 120.989 288.278 121.284 289.158L120.181 289.726Z" fill="#A94C2E"/>
<path d="M120.138 303.943L126.416 289.412L127.879 290.044C128.157 290.164 128.325 290.299 128.385 290.449C128.445 290.6 128.438 290.813 128.365 291.087L127.558 293.428C128.493 292.629 129.446 292.105 130.416 291.855C131.401 291.599 132.385 291.684 133.37 292.11C133.772 292.283 134.115 292.488 134.399 292.724C134.687 292.951 134.934 293.205 135.141 293.487L133.987 295.253C133.817 295.463 133.617 295.518 133.387 295.419C133.253 295.361 133.066 295.23 132.826 295.024C132.59 294.808 132.224 294.593 131.726 294.378C130.837 293.994 129.979 293.93 129.154 294.186C128.338 294.446 127.516 294.982 126.689 295.794L122.691 305.046L120.138 303.943Z" fill="#A94C2E"/>
<path d="M145.822 296.929C146.712 297.255 147.478 297.708 148.121 298.286C148.766 298.856 149.26 299.524 149.6 300.292C149.943 301.05 150.115 301.901 150.114 302.843C150.126 303.78 149.939 304.776 149.552 305.833C149.402 306.243 149.258 306.501 149.119 306.606C148.981 306.711 148.79 306.718 148.545 306.629L138.655 303.009C138.33 303.956 138.159 304.819 138.139 305.6C138.12 306.38 138.23 307.08 138.469 307.7C138.711 308.311 139.073 308.837 139.555 309.279C140.04 309.712 140.635 310.057 141.339 310.315C141.995 310.555 142.584 310.687 143.107 310.712C143.644 310.731 144.116 310.715 144.523 310.665C144.929 310.614 145.272 310.556 145.551 310.492C145.843 310.421 146.072 310.416 146.238 310.477C146.454 310.556 146.59 310.7 146.646 310.909L147.031 312.132C146.565 312.405 146.053 312.606 145.496 312.735C144.942 312.854 144.371 312.911 143.785 312.907C143.208 312.907 142.63 312.851 142.05 312.738C141.466 312.636 140.905 312.486 140.367 312.289C139.34 311.913 138.454 311.394 137.708 310.733C136.976 310.066 136.414 309.284 136.021 308.386C135.642 307.481 135.458 306.471 135.467 305.354C135.476 304.237 135.716 303.038 136.185 301.756C136.564 300.719 137.075 299.808 137.717 299.022C138.37 298.24 139.114 297.631 139.951 297.194C140.791 296.747 141.71 296.495 142.707 296.438C143.707 296.372 144.746 296.536 145.822 296.929ZM145.177 298.873C143.915 298.411 142.788 298.415 141.795 298.884C140.806 299.343 139.987 300.186 139.339 301.413L147.425 304.372C147.646 303.765 147.766 303.182 147.782 302.622C147.802 302.053 147.717 301.528 147.526 301.048C147.339 300.558 147.047 300.129 146.649 299.761C146.264 299.388 145.774 299.092 145.177 298.873Z" fill="#A94C2E"/>
<path d="M163.343 319.38L162.159 319.03C161.899 318.953 161.702 318.851 161.565 318.723C161.429 318.596 161.375 318.395 161.402 318.121L161.52 316.624C161.013 316.865 160.528 317.074 160.062 317.251C159.6 317.418 159.129 317.54 158.651 317.615C158.175 317.68 157.682 317.692 157.173 317.65C156.674 317.611 156.135 317.505 155.556 317.333C154.966 317.159 154.436 316.915 153.964 316.601C153.505 316.28 153.134 315.899 152.852 315.456C152.57 315.014 152.389 314.51 152.307 313.942C152.238 313.368 152.306 312.736 152.51 312.046C152.688 311.447 153.023 310.922 153.515 310.47C154.011 310.008 154.687 309.671 155.543 309.457C156.409 309.247 157.477 309.183 158.745 309.266C160.017 309.338 161.518 309.609 163.247 310.078L163.598 308.895C163.948 307.716 163.956 306.752 163.625 306.001C163.306 305.244 162.652 304.719 161.663 304.426C161.014 304.233 160.439 304.156 159.939 304.192C159.453 304.222 159.013 304.293 158.621 304.405C158.243 304.51 157.908 304.612 157.618 304.71C157.341 304.802 157.088 304.814 156.858 304.746C156.678 304.692 156.532 304.6 156.418 304.469C156.318 304.33 156.249 304.18 156.21 304.016L155.984 303.02C157.063 302.459 158.146 302.123 159.233 302.011C160.32 301.898 161.453 302.017 162.632 302.366C163.481 302.618 164.194 302.981 164.77 303.456C165.346 303.931 165.785 304.485 166.087 305.118C166.388 305.75 166.549 306.455 166.568 307.232C166.588 308.01 166.472 308.823 166.22 309.672L163.343 319.38ZM156.905 315.696C157.374 315.835 157.817 315.917 158.233 315.943C158.652 315.959 159.057 315.932 159.447 315.863C159.85 315.786 160.243 315.669 160.627 315.511C161.02 315.356 161.414 315.164 161.809 314.933L162.746 311.771C161.505 311.447 160.432 311.238 159.526 311.143C158.622 311.038 157.864 311.031 157.25 311.121C156.637 311.211 156.155 311.388 155.805 311.654C155.464 311.922 155.232 312.266 155.108 312.686C154.989 313.085 154.952 313.449 154.996 313.777C155.04 314.106 155.144 314.397 155.307 314.652C155.474 314.897 155.694 315.109 155.967 315.287C156.243 315.456 156.555 315.592 156.905 315.696Z" fill="#A94C2E"/>
<path d="M174.894 322.46C173.678 322.172 172.821 321.61 172.323 320.775C171.835 319.942 171.742 318.887 172.045 317.61L174.277 308.182L172.422 307.743C172.26 307.704 172.134 307.626 172.044 307.509C171.957 307.381 171.937 307.216 171.985 307.013L172.241 305.933L174.84 306.212L176.591 301.6C176.647 301.453 176.742 301.347 176.875 301.282C177.011 301.207 177.165 301.19 177.337 301.231L178.706 301.555L177.449 306.862L181.858 307.906L181.394 309.868L176.984 308.823L174.794 318.068C174.641 318.717 174.684 319.236 174.924 319.625C175.163 320.013 175.532 320.266 176.028 320.384C176.312 320.451 176.564 320.473 176.784 320.45C177.016 320.42 177.219 320.377 177.392 320.322C177.566 320.266 177.712 320.215 177.83 320.168C177.961 320.114 178.067 320.096 178.148 320.115C178.29 320.149 178.396 320.265 178.467 320.464L178.951 321.943C178.382 322.269 177.737 322.48 177.018 322.578C176.302 322.665 175.594 322.626 174.894 322.46Z" fill="#A94C2E"/>
<path d="M190.467 309.264L187.502 324.814L184.77 324.293L187.734 308.744L190.467 309.264ZM192.011 304.5C191.96 304.766 191.856 305.006 191.699 305.22C191.554 305.426 191.371 305.603 191.152 305.752C190.945 305.893 190.714 305.992 190.459 306.05C190.204 306.107 189.944 306.11 189.678 306.06C189.412 306.009 189.171 305.91 188.955 305.763C188.749 305.618 188.571 305.44 188.42 305.231C188.281 305.014 188.182 304.783 188.122 304.538C188.065 304.283 188.062 304.023 188.112 303.757C188.163 303.491 188.262 303.25 188.409 303.034C188.558 302.808 188.736 302.624 188.944 302.484C189.163 302.334 189.395 302.23 189.64 302.171C189.894 302.113 190.155 302.11 190.421 302.161C190.687 302.211 190.928 302.31 191.144 302.458C191.36 302.605 191.537 302.787 191.676 303.004C191.827 303.214 191.93 303.451 191.986 303.716C192.053 303.973 192.062 304.234 192.011 304.5Z" fill="#A94C2E"/>
<path d="M204.888 311.293C206.034 311.449 207.04 311.781 207.907 312.289C208.784 312.797 209.494 313.446 210.038 314.235C210.593 315.026 210.972 315.945 211.176 316.993C211.392 318.032 211.416 319.165 211.248 320.394C211.079 321.632 210.751 322.723 210.265 323.666C209.789 324.611 209.178 325.389 208.432 326.003C207.696 326.617 206.838 327.052 205.857 327.307C204.887 327.553 203.83 327.598 202.684 327.442C201.538 327.285 200.526 326.958 199.648 326.46C198.781 325.952 198.071 325.303 197.516 324.513C196.962 323.722 196.577 322.807 196.361 321.768C196.146 320.73 196.122 319.591 196.291 318.352C196.459 317.124 196.786 316.038 197.272 315.095C197.76 314.142 198.377 313.359 199.123 312.745C199.869 312.132 200.727 311.698 201.698 311.441C202.679 311.186 203.743 311.137 204.888 311.293ZM202.978 325.29C204.526 325.501 205.753 325.143 206.657 324.215C207.563 323.276 208.143 321.878 208.397 320.02C208.652 318.152 208.469 316.645 207.847 315.498C207.226 314.351 206.141 313.672 204.592 313.461C203.808 313.353 203.108 313.395 202.494 313.584C201.879 313.774 201.341 314.094 200.88 314.547C200.429 315 200.055 315.585 199.757 316.302C199.471 317.009 199.265 317.828 199.138 318.757C199.011 319.686 198.991 320.529 199.076 321.287C199.173 322.047 199.377 322.706 199.69 323.264C200.014 323.813 200.447 324.261 200.989 324.608C201.53 324.955 202.193 325.183 202.978 325.29Z" fill="#A94C2E"/>
<path d="M215.914 328.72L217.023 312.93L218.676 313.046C219.071 313.073 219.306 313.283 219.383 313.675L219.481 315.405C220.22 314.695 221.027 314.135 221.902 313.727C222.787 313.319 223.785 313.154 224.897 313.232C225.76 313.293 226.508 313.491 227.142 313.828C227.788 314.156 228.31 314.6 228.709 315.16C229.12 315.711 229.413 316.364 229.59 317.118C229.767 317.871 229.824 318.695 229.761 319.589L229.055 329.643L226.28 329.449L226.986 319.394C227.07 318.199 226.86 317.255 226.355 316.561C225.862 315.858 225.054 315.467 223.931 315.389C223.11 315.331 222.327 315.474 221.583 315.819C220.848 316.164 220.156 316.653 219.506 317.287L218.689 328.915L215.914 328.72Z" fill="#A94C2E"/>
<path d="M244.728 316.646C244.601 316.874 244.407 316.986 244.147 316.984C243.99 316.982 243.814 316.923 243.617 316.806C243.42 316.69 243.177 316.562 242.887 316.424C242.607 316.275 242.27 316.141 241.875 316.023C241.48 315.894 241.012 315.826 240.471 315.821C240.002 315.816 239.579 315.874 239.203 315.995C238.827 316.106 238.502 316.264 238.229 316.47C237.967 316.675 237.761 316.918 237.612 317.198C237.474 317.467 237.403 317.763 237.4 318.086C237.396 318.493 237.507 318.832 237.733 319.106C237.97 319.379 238.28 319.617 238.664 319.818C239.047 320.02 239.483 320.202 239.971 320.363C240.459 320.514 240.957 320.681 241.466 320.863C241.985 321.035 242.488 321.228 242.976 321.441C243.463 321.654 243.898 321.919 244.28 322.236C244.662 322.552 244.966 322.941 245.19 323.402C245.425 323.852 245.539 324.395 245.533 325.03C245.525 325.76 245.388 326.435 245.121 327.058C244.855 327.67 244.464 328.202 243.949 328.655C243.433 329.098 242.805 329.446 242.063 329.699C241.32 329.951 240.465 330.073 239.496 330.063C238.392 330.052 237.393 329.864 236.501 329.501C235.609 329.127 234.853 328.656 234.234 328.087L234.901 327.031C234.986 326.896 235.086 326.793 235.201 326.721C235.317 326.65 235.468 326.615 235.656 326.617C235.843 326.619 236.04 326.694 236.247 326.842C236.454 326.99 236.702 327.154 236.992 327.334C237.293 327.514 237.65 327.679 238.065 327.829C238.491 327.979 239.022 328.058 239.657 328.064C240.199 328.07 240.673 328.007 241.081 327.876C241.489 327.734 241.829 327.545 242.103 327.308C242.376 327.071 242.577 326.797 242.705 326.486C242.844 326.175 242.915 325.842 242.918 325.488C242.923 325.05 242.807 324.69 242.57 324.406C242.344 324.112 242.039 323.864 241.656 323.662C241.272 323.45 240.832 323.268 240.333 323.117C239.845 322.956 239.341 322.789 238.822 322.617C238.314 322.445 237.81 322.253 237.312 322.039C236.825 321.815 236.39 321.54 236.008 321.213C235.626 320.886 235.318 320.487 235.083 320.016C234.859 319.534 234.75 318.955 234.757 318.278C234.763 317.674 234.894 317.097 235.15 316.547C235.406 315.987 235.775 315.502 236.259 315.09C236.742 314.668 237.334 314.335 238.035 314.092C238.735 313.849 239.534 313.733 240.429 313.742C241.471 313.753 242.402 313.929 243.221 314.271C244.051 314.602 244.765 315.057 245.364 315.637L244.728 316.646Z" fill="#A94C2E"/>
<path d="M270.062 315.3C269.955 315.538 269.772 315.668 269.512 315.688C269.356 315.7 269.175 315.657 268.969 315.558C268.763 315.459 268.509 315.354 268.208 315.241C267.916 315.118 267.568 315.014 267.164 314.931C266.76 314.837 266.288 314.812 265.748 314.854C265.28 314.89 264.865 314.986 264.5 315.139C264.136 315.283 263.826 315.469 263.572 315.698C263.329 315.926 263.146 316.186 263.022 316.478C262.908 316.758 262.864 317.06 262.889 317.382C262.921 317.787 263.061 318.115 263.311 318.367C263.571 318.619 263.901 318.828 264.3 318.995C264.7 319.163 265.15 319.305 265.651 319.423C266.15 319.53 266.661 319.652 267.184 319.789C267.716 319.914 268.235 320.062 268.739 320.231C269.243 320.401 269.7 320.626 270.109 320.908C270.517 321.189 270.854 321.55 271.118 321.989C271.392 322.417 271.553 322.947 271.603 323.581C271.66 324.308 271.583 324.993 271.372 325.637C271.16 326.27 270.818 326.835 270.345 327.332C269.871 327.818 269.275 328.22 268.558 328.537C267.841 328.854 266.999 329.051 266.033 329.126C264.933 329.213 263.922 329.114 263.001 328.831C262.079 328.537 261.285 328.134 260.618 327.622L261.189 326.512C261.262 326.37 261.352 326.259 261.461 326.177C261.569 326.095 261.717 326.047 261.904 326.032C262.091 326.018 262.294 326.075 262.513 326.204C262.732 326.333 262.994 326.475 263.299 326.629C263.614 326.782 263.985 326.915 264.412 327.028C264.849 327.14 265.384 327.171 266.018 327.121C266.558 327.079 267.025 326.975 267.42 326.808C267.813 326.631 268.136 326.412 268.387 326.152C268.638 325.892 268.814 325.602 268.914 325.28C269.025 324.958 269.067 324.621 269.039 324.267C269.005 323.831 268.857 323.482 268.597 323.221C268.345 322.948 268.02 322.727 267.62 322.56C267.22 322.383 266.764 322.241 266.255 322.134C265.754 322.016 265.238 321.895 264.706 321.769C264.184 321.643 263.665 321.495 263.151 321.327C262.645 321.147 262.188 320.911 261.779 320.619C261.369 320.327 261.027 319.957 260.751 319.508C260.485 319.048 260.326 318.481 260.273 317.806C260.226 317.203 260.306 316.617 260.512 316.047C260.717 315.467 261.043 314.95 261.488 314.497C261.932 314.034 262.493 313.651 263.169 313.347C263.845 313.043 264.63 312.857 265.523 312.787C266.562 312.705 267.504 312.799 268.351 313.067C269.207 313.324 269.959 313.715 270.606 314.239L270.062 315.3Z" fill="#A94C2E"/>
<path d="M283.018 327.294C281.778 327.455 280.777 327.233 280.016 326.629C279.264 326.022 278.804 325.068 278.635 323.767L277.385 314.159L275.495 314.405C275.329 314.427 275.184 314.398 275.058 314.32C274.931 314.232 274.854 314.084 274.827 313.877L274.684 312.777L277.214 312.117L277.218 307.184C277.219 307.027 277.27 306.894 277.371 306.786C277.472 306.668 277.61 306.598 277.785 306.575L279.18 306.393L279.883 311.801L284.377 311.217L284.637 313.216L280.143 313.8L281.369 323.222C281.455 323.883 281.679 324.353 282.041 324.632C282.403 324.91 282.837 325.017 283.343 324.951C283.632 324.913 283.876 324.845 284.073 324.746C284.279 324.635 284.453 324.523 284.596 324.41C284.739 324.296 284.858 324.197 284.951 324.111C285.054 324.014 285.147 323.96 285.23 323.949C285.374 323.93 285.515 324.001 285.651 324.162L286.629 325.374C286.211 325.88 285.683 326.306 285.046 326.652C284.406 326.987 283.73 327.201 283.018 327.294Z" fill="#A94C2E"/>
<path d="M295.894 308.627C296.826 308.452 297.716 308.45 298.564 308.62C299.41 308.78 300.175 309.103 300.86 309.59C301.542 310.066 302.124 310.71 302.604 311.521C303.093 312.32 303.44 313.272 303.647 314.378C303.728 314.808 303.735 315.103 303.67 315.264C303.605 315.425 303.444 315.529 303.188 315.577L292.835 317.513C293.04 318.493 293.333 319.323 293.714 320.004C294.096 320.685 294.548 321.231 295.07 321.642C295.59 322.043 296.17 322.311 296.81 322.445C297.448 322.57 298.136 322.563 298.873 322.425C299.559 322.297 300.134 322.11 300.596 321.864C301.067 321.607 301.465 321.352 301.789 321.101C302.113 320.849 302.378 320.625 302.585 320.427C302.8 320.217 302.995 320.096 303.169 320.064C303.394 320.021 303.584 320.076 303.74 320.227L304.695 321.082C304.433 321.555 304.096 321.989 303.682 322.384C303.267 322.769 302.806 323.11 302.3 323.406C301.804 323.7 301.277 323.947 300.721 324.146C300.167 324.356 299.608 324.513 299.045 324.619C297.97 324.82 296.943 324.826 295.964 324.638C294.994 324.438 294.111 324.052 293.316 323.481C292.528 322.897 291.853 322.122 291.291 321.157C290.729 320.191 290.322 319.038 290.071 317.697C289.868 316.611 289.843 315.567 289.994 314.563C290.156 313.558 290.485 312.654 290.981 311.851C291.475 311.038 292.137 310.352 292.965 309.795C293.792 309.227 294.768 308.837 295.894 308.627ZM296.332 310.627C295.011 310.875 294.044 311.453 293.43 312.363C292.814 313.262 292.54 314.405 292.608 315.791L301.072 314.208C300.953 313.573 300.758 313.011 300.486 312.521C300.212 312.021 299.871 311.613 299.462 311.298C299.052 310.972 298.581 310.753 298.051 310.64C297.53 310.515 296.957 310.511 296.332 310.627Z" fill="#A94C2E"/>
<path d="M313.284 304.712C314.203 304.479 315.091 304.422 315.948 304.538C316.802 304.644 317.586 304.919 318.3 305.362C319.011 305.794 319.631 306.401 320.162 307.18C320.699 307.947 321.106 308.875 321.382 309.966C321.489 310.39 321.515 310.685 321.46 310.849C321.405 311.013 321.251 311.127 320.998 311.191L310.787 313.773C311.053 314.737 311.397 315.547 311.821 316.203C312.245 316.859 312.73 317.376 313.277 317.753C313.821 318.121 314.416 318.352 315.063 318.446C315.708 318.53 316.394 318.48 317.121 318.296C317.798 318.125 318.359 317.903 318.806 317.629C319.26 317.342 319.641 317.063 319.948 316.792C320.256 316.521 320.507 316.28 320.701 316.07C320.902 315.847 321.089 315.714 321.26 315.67C321.483 315.614 321.676 315.657 321.841 315.798L322.847 316.591C322.616 317.079 322.306 317.534 321.918 317.954C321.528 318.364 321.089 318.733 320.602 319.06C320.126 319.385 319.616 319.664 319.073 319.898C318.533 320.142 317.986 320.334 317.43 320.475C316.37 320.743 315.345 320.814 314.357 320.688C313.376 320.549 312.471 320.219 311.641 319.698C310.818 319.165 310.096 318.434 309.474 317.506C308.853 316.577 308.375 315.452 308.041 314.129C307.77 313.058 307.679 312.017 307.767 311.006C307.865 309.993 308.137 309.07 308.582 308.238C309.025 307.395 309.642 306.67 310.433 306.061C311.223 305.442 312.173 304.993 313.284 304.712ZM313.846 306.681C312.543 307.011 311.614 307.648 311.058 308.595C310.499 309.531 310.298 310.689 310.453 312.068L318.801 309.958C318.642 309.332 318.412 308.783 318.11 308.311C317.806 307.829 317.44 307.444 317.012 307.154C316.582 306.855 316.099 306.665 315.563 306.586C315.034 306.494 314.462 306.525 313.846 306.681Z" fill="#A94C2E"/>
<path d="M330.994 322.045L324.495 301.877L326.071 301.369C326.448 301.248 326.745 301.354 326.962 301.689L327.761 303.402C328.153 302.411 328.684 301.545 329.353 300.804C330.033 300.06 330.913 299.513 331.994 299.165C332.856 298.887 333.694 298.803 334.507 298.913C335.316 299.014 336.074 299.311 336.781 299.806C337.484 300.291 338.125 300.971 338.703 301.846C339.28 302.722 339.77 303.784 340.173 305.034C340.531 306.144 340.716 307.228 340.729 308.286C340.738 309.334 340.578 310.299 340.25 311.182C339.918 312.055 339.411 312.826 338.729 313.494C338.054 314.15 337.211 314.641 336.199 314.966C335.267 315.267 334.419 315.37 333.656 315.277C332.903 315.181 332.182 314.931 331.494 314.529L333.641 321.192L330.994 322.045ZM331.806 301.59C330.944 301.868 330.249 302.31 329.723 302.918C329.206 303.522 328.791 304.274 328.479 305.174L330.828 312.462C331.525 312.959 332.204 313.25 332.865 313.332C333.536 313.411 334.229 313.336 334.943 313.106C336.341 312.655 337.255 311.808 337.686 310.563C338.117 309.319 338.034 307.77 337.436 305.916C337.12 304.934 336.759 304.12 336.354 303.473C335.958 302.824 335.525 302.328 335.054 301.988C334.58 301.637 334.071 301.434 333.528 301.379C332.985 301.325 332.411 301.395 331.806 301.59Z" fill="#A94C2E"/>
<path d="M347.909 293.356C348.791 293.008 349.664 292.837 350.529 292.843C351.39 292.839 352.203 293.011 352.967 293.359C353.728 293.698 354.421 294.219 355.046 294.924C355.678 295.616 356.2 296.485 356.613 297.532C356.773 297.939 356.837 298.227 356.803 298.397C356.769 298.567 356.631 298.7 356.389 298.796L346.592 302.662C346.979 303.585 347.424 304.344 347.928 304.94C348.432 305.537 348.979 305.987 349.57 306.291C350.157 306.586 350.777 306.739 351.431 306.75C352.081 306.751 352.755 306.614 353.452 306.339C354.102 306.082 354.63 305.79 355.038 305.461C355.452 305.118 355.794 304.793 356.064 304.485C356.334 304.176 356.552 303.906 356.718 303.672C356.889 303.426 357.057 303.27 357.222 303.205C357.435 303.121 357.632 303.138 357.814 303.257L358.913 303.915C358.746 304.429 358.497 304.919 358.166 305.385C357.832 305.842 357.444 306.264 357.003 306.651C356.571 307.034 356.102 307.376 355.593 307.677C355.089 307.989 354.57 308.249 354.037 308.46C353.02 308.861 352.013 309.062 351.017 309.064C350.026 309.051 349.086 308.84 348.196 308.43C347.312 308.006 346.503 307.373 345.767 306.532C345.032 305.691 344.414 304.636 343.913 303.366C343.508 302.339 343.284 301.319 343.243 300.305C343.211 299.287 343.362 298.337 343.697 297.454C344.028 296.562 344.547 295.764 345.255 295.059C345.958 294.344 346.843 293.777 347.909 293.356ZM348.719 295.237C347.469 295.731 346.629 296.482 346.198 297.492C345.764 298.492 345.712 299.666 346.043 301.014L354.052 297.853C353.815 297.253 353.516 296.738 353.157 296.308C352.793 295.87 352.38 295.534 351.919 295.302C351.454 295.06 350.951 294.933 350.409 294.923C349.873 294.899 349.31 295.004 348.719 295.237Z" fill="#A94C2E"/>
<path d="M375.489 298.688C375.13 298.856 374.822 298.789 374.564 298.484L373.519 296.852C373.257 297.885 372.836 298.814 372.258 299.639C371.684 300.45 370.888 301.095 369.87 301.575C369.05 301.961 368.232 302.156 367.416 302.16C366.596 302.154 365.806 301.956 365.047 301.565C364.287 301.175 363.565 300.582 362.88 299.787C362.195 298.993 361.573 298.002 361.014 296.814C360.517 295.759 360.197 294.712 360.054 293.674C359.906 292.626 359.939 291.644 360.151 290.726C360.374 289.804 360.778 288.975 361.364 288.238C361.945 287.492 362.721 286.891 363.692 286.434C364.569 286.021 365.389 285.819 366.153 285.828C366.913 285.828 367.664 285.98 368.407 286.287L364.667 278.341L367.183 277.157L376.987 297.982L375.489 298.688ZM369.746 299.146C370.566 298.76 371.193 298.234 371.628 297.569C372.073 296.899 372.393 296.098 372.587 295.166L369.326 288.238C368.571 287.833 367.858 287.639 367.187 287.656C366.52 287.659 365.852 287.818 365.183 288.133C363.845 288.763 363.041 289.723 362.773 291.012C362.505 292.301 362.786 293.827 363.615 295.59C364.055 296.523 364.512 297.286 364.987 297.88C365.458 298.464 365.951 298.9 366.466 299.187C366.977 299.465 367.505 299.596 368.051 299.581C368.596 299.566 369.161 299.421 369.746 299.146Z" fill="#A94C2E"/>
<path d="M386.686 274.576L394.646 288.259L392.241 289.658L384.281 275.975L386.686 274.576ZM384.727 269.967C384.863 270.201 384.942 270.45 384.964 270.715C384.989 270.966 384.968 271.219 384.9 271.475C384.836 271.718 384.726 271.944 384.572 272.155C384.417 272.365 384.222 272.538 383.988 272.675C383.754 272.811 383.507 272.894 383.248 272.925C382.997 272.95 382.747 272.933 382.495 272.874C382.248 272.801 382.022 272.692 381.816 272.546C381.606 272.391 381.433 272.197 381.296 271.963C381.16 271.729 381.077 271.482 381.046 271.222C381.011 270.954 381.025 270.699 381.089 270.456C381.157 270.2 381.263 269.969 381.409 269.764C381.564 269.553 381.758 269.38 381.992 269.244C382.227 269.108 382.473 269.024 382.733 268.994C382.992 268.963 383.246 268.985 383.493 269.058C383.744 269.116 383.978 269.228 384.194 269.391C384.413 269.541 384.591 269.733 384.727 269.967Z" fill="#A94C2E"/>
<path d="M402.35 283.612L393.68 270.368L395.066 269.461C395.397 269.244 395.712 269.268 396.01 269.534L397.135 270.852C397.293 269.839 397.597 268.905 398.047 268.051C398.505 267.191 399.2 266.456 400.133 265.845C400.856 265.371 401.572 265.077 402.281 264.962C402.993 264.832 403.677 264.869 404.335 265.074C404.995 265.265 405.623 265.606 406.22 266.1C406.817 266.593 407.361 267.215 407.851 267.964L413.372 276.397L411.044 277.921L405.524 269.488C404.868 268.485 404.129 267.861 403.308 267.614C402.489 267.353 401.609 267.53 400.668 268.147C399.979 268.597 399.443 269.185 399.058 269.91C398.682 270.629 398.427 271.438 398.292 272.335L404.677 282.089L402.35 283.612Z" fill="#A94C2E"/>
<path d="M426.868 266.399L412.406 248.491L414.57 246.744L420.421 253.989C420.497 253.005 420.72 252.088 421.092 251.238C421.457 250.381 422.058 249.615 422.892 248.941C423.565 248.397 424.248 248.033 424.942 247.848C425.638 247.648 426.322 247.617 426.997 247.755C427.672 247.879 428.332 248.157 428.975 248.588C429.618 249.019 430.221 249.584 430.784 250.281L437.116 258.122L434.952 259.87L428.62 252.028C427.867 251.096 427.07 250.548 426.228 250.385C425.387 250.206 424.53 250.471 423.654 251.177C423.014 251.695 422.539 252.333 422.228 253.093C421.926 253.846 421.752 254.675 421.708 255.582L429.032 264.651L426.868 266.399Z" fill="#A94C2E"/>
<path d="M433.609 239.989L444.19 251.763L442.121 253.622L431.54 241.848L433.609 239.989ZM430.752 235.875C430.933 236.076 431.061 236.304 431.136 236.559C431.212 236.799 431.243 237.052 431.229 237.316C431.215 237.567 431.154 237.81 431.046 238.048C430.937 238.286 430.782 238.495 430.581 238.676C430.379 238.857 430.155 238.989 429.907 239.072C429.667 239.147 429.418 239.182 429.16 239.176C428.903 239.155 428.659 239.094 428.428 238.993C428.191 238.884 427.981 238.729 427.8 238.528C427.619 238.326 427.487 238.102 427.405 237.854C427.315 237.598 427.277 237.345 427.29 237.095C427.304 236.83 427.362 236.583 427.463 236.352C427.571 236.114 427.726 235.905 427.928 235.724C428.129 235.543 428.354 235.411 428.602 235.328C428.849 235.246 429.102 235.215 429.359 235.236C429.617 235.242 429.868 235.304 430.113 235.42C430.358 235.522 430.571 235.673 430.752 235.875Z" fill="#A94C2E"/>
<path d="M447.895 229.883C447.968 230.134 447.911 230.351 447.726 230.534C447.614 230.644 447.448 230.728 447.227 230.785C447.005 230.843 446.743 230.926 446.441 231.034C446.138 231.128 445.806 231.273 445.443 231.47C445.074 231.659 444.696 231.944 444.311 232.325C443.977 232.654 443.721 232.995 443.542 233.348C443.356 233.693 443.239 234.035 443.193 234.373C443.154 234.704 443.182 235.021 443.275 235.324C443.369 235.612 443.53 235.871 443.757 236.1C444.042 236.39 444.362 236.55 444.715 236.582C445.076 236.606 445.463 236.553 445.876 236.423C446.29 236.293 446.725 236.112 447.184 235.879C447.634 235.639 448.104 235.402 448.591 235.17C449.079 234.922 449.57 234.701 450.065 234.505C450.56 234.309 451.054 234.187 451.548 234.138C452.042 234.09 452.532 234.148 453.017 234.313C453.502 234.464 453.968 234.765 454.414 235.217C454.927 235.736 455.31 236.309 455.564 236.937C455.81 237.558 455.913 238.21 455.872 238.895C455.823 239.572 455.628 240.264 455.284 240.969C454.941 241.674 454.425 242.367 453.735 243.047C452.95 243.823 452.113 244.4 451.227 244.777C450.333 245.148 449.467 245.352 448.626 245.391L448.347 244.174C448.311 244.019 448.308 243.875 448.339 243.743C448.369 243.61 448.451 243.478 448.584 243.346C448.718 243.215 448.91 243.127 449.16 243.085C449.411 243.042 449.702 242.981 450.034 242.903C450.374 242.816 450.743 242.679 451.142 242.49C451.548 242.293 451.978 241.972 452.43 241.525C452.815 241.145 453.105 240.763 453.299 240.382C453.486 239.992 453.591 239.617 453.615 239.256C453.64 238.896 453.587 238.56 453.456 238.25C453.333 237.932 453.147 237.648 452.898 237.396C452.59 237.084 452.253 236.913 451.885 236.881C451.517 236.834 451.126 236.876 450.712 237.006C450.292 237.129 449.852 237.314 449.394 237.561C448.936 237.794 448.463 238.034 447.975 238.282C447.495 238.522 447.004 238.743 446.501 238.946C445.999 239.135 445.498 239.25 444.996 239.291C444.495 239.332 443.995 239.27 443.495 239.104C442.995 238.924 442.507 238.594 442.031 238.112C441.607 237.682 441.289 237.183 441.079 236.614C440.862 236.038 440.777 235.433 440.826 234.8C440.867 234.16 441.047 233.505 441.368 232.837C441.689 232.168 442.169 231.519 442.806 230.89C443.547 230.158 444.328 229.621 445.148 229.28C445.968 228.925 446.794 228.738 447.626 228.721L447.895 229.883Z" fill="#A94C2E"/>
<path d="M465.532 230.692C464.689 231.615 463.781 232.091 462.809 232.12C461.844 232.142 460.877 231.71 459.908 230.824L452.756 224.288L451.47 225.696C451.358 225.819 451.228 225.891 451.082 225.912C450.927 225.927 450.773 225.863 450.62 225.723L449.8 224.974L451.308 222.838L448.13 219.066C448.028 218.945 447.982 218.811 447.99 218.663C447.99 218.508 448.05 218.365 448.17 218.234L449.118 217.196L453.144 220.875L456.201 217.53L457.689 218.89L454.632 222.235L461.646 228.644C462.138 229.094 462.612 229.309 463.069 229.288C463.525 229.268 463.925 229.069 464.27 228.692C464.466 228.477 464.608 228.268 464.695 228.065C464.781 227.847 464.842 227.649 464.878 227.47C464.914 227.291 464.941 227.139 464.957 227.013C464.973 226.872 465.009 226.771 465.065 226.709C465.164 226.602 465.317 226.565 465.525 226.6L467.054 226.896C467.061 227.552 466.932 228.218 466.668 228.894C466.396 229.562 466.017 230.162 465.532 230.692Z" fill="#A94C2E"/>
<path d="M463.412 208.02C464.142 207.123 464.949 206.437 465.834 205.962C466.725 205.478 467.649 205.209 468.606 205.156C469.57 205.094 470.552 205.249 471.552 205.621C472.552 205.978 473.532 206.547 474.493 207.33C475.463 208.12 476.223 208.967 476.775 209.873C477.333 210.772 477.68 211.699 477.815 212.655C477.956 213.603 477.881 214.562 477.588 215.533C477.293 216.489 476.78 217.415 476.05 218.312C475.32 219.208 474.514 219.902 473.631 220.392C472.746 220.867 471.822 221.136 470.859 221.198C469.895 221.259 468.913 221.112 467.914 220.755C466.915 220.398 465.931 219.825 464.961 219.035C464 218.253 463.244 217.408 462.692 216.502C462.132 215.589 461.784 214.655 461.649 213.699C461.515 212.742 461.59 211.783 461.877 210.821C462.17 209.85 462.682 208.917 463.412 208.02ZM474.366 216.94C475.353 215.728 475.686 214.495 475.365 213.239C475.035 211.977 474.144 210.754 472.69 209.57C471.228 208.379 469.845 207.75 468.542 207.684C467.24 207.617 466.095 208.19 465.108 209.401C464.608 210.015 464.279 210.634 464.121 211.257C463.963 211.881 463.956 212.507 464.102 213.137C464.255 213.758 464.559 214.382 465.016 215.009C465.471 215.621 466.062 216.224 466.789 216.816C467.516 217.408 468.226 217.865 468.918 218.186C469.616 218.5 470.285 218.668 470.924 218.692C471.562 218.701 472.17 218.564 472.748 218.283C473.327 218.002 473.866 217.554 474.366 216.94Z" fill="#A94C2E"/>
<path d="M483.974 207.712L471.137 198.451L472.069 197.158C472.246 196.913 472.414 196.778 472.574 196.752C472.734 196.726 472.94 196.778 473.193 196.909L475.305 198.202C474.726 197.116 474.419 196.073 474.384 195.071C474.347 194.055 474.642 193.111 475.27 192.241C475.526 191.886 475.799 191.596 476.091 191.37C476.374 191.137 476.676 190.95 476.997 190.809L478.472 192.316C478.64 192.528 478.652 192.735 478.505 192.938C478.42 193.056 478.251 193.21 477.998 193.4C477.737 193.584 477.448 193.896 477.131 194.335C476.564 195.121 476.317 195.945 476.389 196.806C476.467 197.659 476.813 198.577 477.428 199.56L485.601 205.457L483.974 207.712Z" fill="#A94C2E"/>
<path d="M499.278 193.654C499.403 193.845 499.479 194.036 499.506 194.226C499.539 194.407 499.477 194.621 499.32 194.867L498.21 196.606L494.47 190.79L478.389 188.276L479.683 186.248C479.812 186.046 479.966 185.921 480.144 185.874C480.314 185.822 480.477 185.808 480.633 185.834L491.316 187.628C491.559 187.672 491.795 187.729 492.021 187.8C492.254 187.862 492.485 187.935 492.715 188.02C492.552 187.83 492.394 187.642 492.24 187.457C492.086 187.273 491.933 187.076 491.782 186.868L485.601 178.049C485.494 177.907 485.436 177.746 485.427 177.567C485.414 177.374 485.456 177.202 485.551 177.053L486.745 175.182L499.278 193.654Z" fill="#A94C2E"/>
</svg>
