<svg width="503" height="345" viewBox="0 0 503 345" fill="none" xmlns="http://www.w3.org/2000/svg">
<path d="M53.2318 122.804C41.3241 111.082 26.2235 103.278 14.2021 91.7594C13.1795 90.7825 11.3842 92.032 12.1683 93.3157C16.3382 100.074 19.9856 106.424 25.1213 112.513C30.4048 118.749 35.018 125.587 40.1197 131.983C49.4141 143.637 57.3564 155.69 67.6848 166.47C73.1728 172.206 77.9791 178.533 82.3081 185.156C86.6713 191.835 93.4205 197.083 99.0108 202.74C104.01 207.806 109.85 212.123 115.895 215.917C119.849 218.393 126.576 223.709 131.848 223.073C132.462 223.573 133.075 224.05 133.632 224.629C134.791 225.856 136.086 226.969 137.132 228.31C137.745 229.105 139.04 227.833 138.234 227.208C136.757 226.072 135.45 224.629 134.166 223.278C133.996 223.107 133.848 222.96 133.677 222.812C134.177 222.448 134.37 221.665 134.052 221.119C131.916 217.28 128.701 214.043 126.258 210.396C121.804 203.785 117.077 197.242 112.134 190.983C103.169 179.612 95.3067 167.39 85.8532 156.394C75.8202 144.705 64.2079 133.619 53.2318 122.804Z" fill="#006347"/>
<path d="M50.3684 120.123C50.3684 120.123 50.2662 120.021 50.2094 119.964C48.4823 121.464 46.4711 122.77 45.3349 123.656C42.9375 125.508 40.5627 127.518 38.3357 129.654C38.5516 129.938 38.7561 130.211 38.9833 130.483C42.3239 127.416 45.5394 124.224 48.9709 121.248C49.3913 120.873 49.8912 120.51 50.3911 120.123L50.3684 120.123ZM61.8672 131.278C61.6399 131.051 61.424 130.835 61.1968 130.608C59.4015 132.812 57.4131 134.868 55.3906 136.844C53.1181 139.071 50.6638 140.684 48.3459 142.683C48.4823 142.865 48.6186 143.047 48.755 143.228C51.516 140.854 54.5384 138.832 57.2086 136.254C58.822 134.709 60.4128 133.05 61.8558 131.267L61.8672 131.278ZM32.6659 106.424C32.1659 106.061 31.6773 105.708 31.1774 105.345C28.9276 107.458 26.7915 109.73 24.4282 111.638C24.5986 111.854 24.7577 112.058 24.9395 112.263C27.1097 110.638 29.3367 109.094 31.4274 107.412C31.8137 107.094 32.2455 106.754 32.6659 106.424ZM20.2923 97.1208C19.2015 98.5067 18.1788 99.9606 17.0653 101.256C17.3153 101.642 17.5539 102.017 17.8039 102.403C19.1106 101.028 20.3377 99.5744 21.5876 98.1659C21.1558 97.8251 20.724 97.4616 20.2923 97.1208ZM116.316 216.178C116.884 216.541 117.509 216.962 118.168 217.393C119.077 216.485 119.895 215.553 120.622 214.735C122.247 212.906 123.883 211.112 125.485 209.26C125.065 208.635 124.633 208.022 124.212 207.397C123.383 208.317 122.531 209.215 121.679 210.089C120.19 211.577 118.361 213.974 116.316 216.155L116.316 216.178ZM59.2765 156.86C64.0146 152.259 69.0709 147.886 73.684 143.137C73.2863 142.74 72.8887 142.342 72.5137 141.945C67.7756 146.545 63.4238 151.577 58.822 156.314C58.9584 156.496 59.1174 156.678 59.2538 156.859L59.2765 156.86ZM79.1152 164.198C76.6723 166.481 74.0817 168.571 71.5138 170.684C71.9342 171.172 72.3319 171.683 72.7523 172.172C78.0812 168.117 82.7966 163.062 87.2279 158.018C86.9439 157.666 86.6484 157.303 86.353 156.962C83.9328 159.381 81.5695 161.903 79.1266 164.186L79.1152 164.198ZM58.4698 127.95C58.2993 127.78 58.1289 127.609 57.9585 127.439C53.9589 131.437 49.8571 135.379 45.2213 138.537C45.3917 138.753 45.5621 138.991 45.7326 139.207C50.4139 136.072 54.5384 132.085 58.4811 127.939L58.4698 127.95ZM84.6714 168.366C82.0467 170.559 79.1834 173.898 76.0928 176.375C76.4791 176.875 76.8427 177.374 77.2063 177.874C80.9104 175.193 84.4214 171.365 87.1938 168.889C88.8527 167.39 90.4776 165.72 92.0115 163.959C91.5797 163.391 91.1366 162.834 90.6934 162.278C88.83 164.413 86.9098 166.492 84.6941 168.366L84.6714 168.366ZM109.032 211.282C109.26 211.441 109.498 211.611 109.725 211.77C113.339 208.499 116.872 205.171 120.065 201.524C119.815 201.184 119.565 200.82 119.315 200.479C117.952 202.138 116.566 203.774 115.179 205.341C113.27 207.499 111.146 209.396 109.032 211.282ZM97.1132 190.12C100.601 188.427 103.806 186.314 106.669 183.815C106.442 183.52 106.226 183.213 105.987 182.906C103.226 185.53 100.442 188.086 96.92 189.79C96.7041 189.892 96.886 190.233 97.1132 190.12Z" fill="#A7D4BD"/>
<path d="M122.113 59.7874C116.696 40.1826 105.528 22.7665 99.8668 3.3081C99.3835 1.65592 96.7301 1.88077 96.7751 3.71109C97.0563 13.3741 97.0355 22.2878 98.743 31.832C100.516 41.6216 101.216 51.6381 102.701 61.4848C105.404 79.4275 106.439 96.9666 110.765 114.616C113.058 124.004 114.273 133.599 114.805 143.215C115.338 152.911 119.258 162.551 121.708 171.917C123.894 180.3 127.423 188.405 131.486 196.083C134.147 201.1 138.001 210.797 143.947 213.335C144.289 214.235 144.646 215.112 144.88 216.061C145.355 218.06 146.043 220.022 146.329 222.071C146.491 223.282 148.632 222.729 148.161 221.58C147.296 219.483 146.797 217.167 146.266 214.961C146.19 214.678 146.124 214.432 146.034 214.173C146.783 214.094 147.464 213.385 147.46 212.616C147.546 207.269 146.127 201.899 145.771 196.568C145.101 186.888 144.101 177.114 142.701 167.508C140.173 150.065 139.325 132.395 136.053 115.05C132.593 96.6217 127.1 77.8673 122.113 59.7874Z" fill="#006347"/>
<path d="M120.726 55.2182C120.726 55.2182 120.68 55.0481 120.655 54.9537C117.921 55.4835 115.006 55.6369 113.268 55.8796C109.614 56.3728 105.886 57.0474 102.238 57.9436C102.292 58.3744 102.342 58.7863 102.416 59.212C107.805 58.0113 113.138 56.6029 118.568 55.5533C119.239 55.414 119.988 55.3349 120.75 55.232L120.726 55.2182ZM126.057 73.9753C125.956 73.5975 125.859 73.2386 125.758 72.8608C122.524 74.0917 119.176 75.0492 115.84 75.9023C112.089 76.8667 108.519 77.0737 104.858 77.771C104.892 78.0456 104.925 78.3202 104.958 78.5947C109.314 77.772 113.731 77.4795 118.116 76.3858C120.758 75.7389 123.445 74.9585 126.052 73.9564L126.057 73.9753ZM110.404 30.0034C110.098 29.3159 109.797 28.6474 109.491 27.9599C105.833 28.8184 102.198 29.9137 98.5444 30.4875C98.5927 30.8187 98.6359 31.1311 98.7031 31.4573C101.98 31.0653 105.268 30.7918 108.496 30.2916C109.097 30.1913 109.76 30.0948 110.404 30.0034ZM103.023 12.6658C101.029 13.4631 99.0657 14.3737 97.1034 15.0614C97.1317 15.6206 97.1551 16.1611 97.1835 16.7203C99.3979 16.0664 101.577 15.2802 103.752 14.5558C103.504 13.9338 103.27 13.2879 103.023 12.6658ZM131.769 196.613C132.147 197.342 132.55 198.166 132.982 199.022C134.494 198.617 135.923 198.133 137.188 197.713C140.014 196.774 142.832 195.877 145.648 194.9C145.585 193.986 145.504 193.076 145.441 192.162C144.006 192.627 142.561 193.054 141.13 193.458C138.655 194.121 135.267 195.535 131.783 196.589L131.769 196.613ZM107.751 99.368C115.547 97.401 123.54 95.8672 131.295 93.6685C131.117 93.0074 130.94 92.3463 130.787 91.6989C122.991 93.6659 115.339 96.3229 107.604 98.5166C107.637 98.7911 107.694 99.0795 107.727 99.3541L107.751 99.368ZM124.198 119.176C120.233 120.097 116.229 120.724 112.235 121.389C112.381 122.16 112.489 122.94 112.635 123.711C120.722 122.679 128.771 120.219 136.513 117.598C136.428 117.054 136.338 116.491 136.234 115.952C132.21 117.03 128.183 118.251 124.217 119.171L124.198 119.176ZM124.502 68.3991C124.426 68.1157 124.35 67.8324 124.274 67.5491C117.623 69.3307 110.899 70.9903 104.089 71.4985C104.137 71.8298 104.171 72.185 104.22 72.5162C111.064 72.0596 117.84 70.3659 124.521 68.394L124.502 68.3991ZM127.518 126.952C123.416 127.666 118.364 129.445 113.598 130.175C113.701 130.937 113.78 131.685 113.859 132.433C119.396 131.861 125.428 129.962 129.859 129.038C132.521 128.467 135.25 127.695 137.939 126.772C137.83 125.911 137.702 125.054 137.573 124.198C134.309 125.315 131.019 126.338 127.542 126.966L127.518 126.952ZM127.072 187.02C127.215 187.326 127.362 187.651 127.505 187.957C133.306 186.706 139.058 185.348 144.644 183.447C144.588 182.935 144.546 182.4 144.49 181.889C142.043 182.807 139.585 183.688 137.169 184.497C133.843 185.611 130.448 186.318 127.072 187.02ZM127.39 157.457C132.098 157.795 136.763 157.517 141.303 156.625C141.243 156.175 141.202 155.721 141.138 155.252C136.629 156.338 132.138 157.339 127.387 156.992C127.098 156.968 127.082 157.438 127.39 157.457Z" fill="#A7D4BD"/>
<path d="M257.184 193.52C259.771 194.018 262.117 195.271 263.74 197.183C266.504 200.444 268.947 204.01 267.87 208.749C267.709 209.472 267.758 210.243 267.661 210.982C267.018 215.818 265.363 220.219 262.375 224.139C259.996 227.272 257.811 230.549 255.529 233.746C254.967 234.533 254.437 235.352 253.746 236.011C250.805 238.774 248.121 241.81 245.036 244.445C242.851 246.308 240.682 248.171 238.512 250.051C237.532 250.886 236.568 251.69 235.283 252.059C234.575 252.268 233.885 252.637 233.306 253.087C231.201 254.774 228.775 255.866 226.364 256.991C224.532 257.842 222.701 258.726 220.837 259.481C219.792 259.899 218.764 260.654 217.494 260.22C217.35 260.22 217.189 260.188 217.044 260.172C217.205 260.188 217.382 260.204 217.543 260.236C217.141 261.103 216.321 261.36 215.518 261.682C214.538 262.083 213.509 262.453 212.577 262.951C207.966 265.441 203.161 267.529 198.405 269.698C198.148 269.81 197.955 270.1 197.73 270.324C198.099 271.32 198.79 271.995 199.61 272.509C202.663 274.405 204.832 277.232 207.371 279.658C207.532 279.802 207.692 279.963 207.773 280.156C209.347 283.658 212.24 286.469 213.365 290.196C214.473 293.843 216.225 297.361 216.048 301.329C216.016 301.972 216.145 302.614 216.193 303.241C216.257 304.204 216.337 305.168 216.353 306.116C216.353 306.743 216.386 307.433 216.177 308.012C215.325 310.277 215.566 312.799 214.248 315C212.417 318.068 209.813 319.048 205.973 317.538C202.631 316.205 199.465 314.422 196.605 312.092C193.809 309.795 190.611 308.012 187.687 305.859C185.533 304.285 183.396 302.63 181.516 300.767C178.174 297.473 174.88 294.1 171.843 290.518C170.204 288.574 168.918 286.309 167.247 284.365C166.412 283.385 165.528 282.453 164.676 281.505L164.564 281.473L164.724 281.554C164.692 282.292 164.612 283.048 164.628 283.786C164.724 286.774 164.821 289.746 164.965 292.734C165.014 293.907 165.126 295.064 165.239 296.22C165.592 299.931 165.978 303.658 166.331 307.369C166.428 308.333 166.428 309.297 166.476 310.245C166.604 312.59 166.428 314.952 167.038 317.265C167.263 318.084 167.344 318.984 167.231 319.819C166.862 322.518 167.311 325.153 167.601 327.803C167.89 330.374 167.231 332.912 167.263 335.482C167.263 335.675 167.087 335.868 166.99 336.044C166.669 336.671 165.849 336.799 165.399 336.253C164.242 334.839 163.262 333.313 162.603 331.594C161.736 329.297 161.012 326.936 160.707 324.494C160.097 319.739 159.036 315.064 158.57 310.261C158.233 306.662 157.702 303.064 157.188 299.482C156.819 296.943 156.369 294.485 156.513 291.883C156.658 289.232 156.304 286.55 156.144 283.883C156.128 283.578 156.047 283.256 155.662 283.128C155.18 282.967 154.794 283.16 154.569 283.546C152.609 286.919 149.78 289.602 147.209 292.429C144.269 295.658 141.601 299.176 138.114 301.891C137.022 302.743 135.961 303.706 135.19 304.831C132.715 308.478 129.1 310.791 125.645 313.265C123.62 314.711 121.162 315.225 118.719 315.61C117.032 315.883 115.377 316.108 113.658 315.61C110.958 314.807 108.95 313.136 107.278 310.968C106.973 310.566 106.764 310.02 106.684 309.506C106.057 305.361 105.768 301.249 107.664 297.297C108.034 296.526 108.21 295.674 108.548 294.887C109.175 293.409 109.882 291.979 111.055 290.823C111.89 290.003 112.581 289.04 113.176 288.011C113.658 287.176 114.188 286.341 114.847 285.666C117.611 282.855 120.455 280.092 123.251 277.312C123.636 276.943 124.038 276.574 124.311 276.124C125.195 274.694 126.288 273.618 128.023 273.296C128.329 273.248 128.65 273.071 128.859 272.847C129.277 272.429 130.032 272.108 129.759 271.337C129.55 270.758 128.891 270.822 128.393 270.678C126.015 269.923 123.524 269.955 121.098 269.618C118.109 269.216 115.216 268.509 112.34 267.722C104.691 265.634 97.3479 262.678 90.1812 259.336C87.2727 257.987 84.2357 256.975 81.3434 255.577C76.0407 253.007 70.9629 250.051 65.9655 246.935C64.8728 246.26 63.8123 245.537 62.6875 244.91C61.8358 244.428 61.0967 243.834 60.4539 243.111C57.1919 239.416 53.5122 236.139 49.9449 232.766C48.788 231.657 47.7435 230.436 46.6669 229.248C46.3776 228.942 46.0884 228.573 45.9759 228.171C45.2207 225.569 43.6941 223.336 42.3283 221.055C40.7696 218.452 40.3358 215.689 40.1911 212.781C40.0305 209.745 40.8821 207.078 42.955 204.829C43.2442 204.508 43.5817 204.235 43.7906 203.866C46.0884 199.946 49.6235 197.681 53.8175 196.315C55.8422 195.657 57.7704 194.741 59.8272 194.098C63.8926 192.829 67.958 192.508 72.1359 193.215C73.4054 193.424 74.6909 193.52 75.9603 193.665C76.3781 193.713 76.9084 193.616 77.2297 193.809C79.3348 195.191 81.729 194.95 84.0429 195.143C84.4607 195.175 84.9106 195.207 85.2963 195.367C87.9798 196.46 90.7757 197.151 93.5878 197.777C94.2305 197.922 94.7929 198.195 95.3071 198.596C97.7817 200.54 100.674 201.633 103.567 202.725C103.968 202.87 104.354 203.046 104.74 203.239C108.002 204.846 111.328 206.372 114.509 208.074C118.719 210.324 123.09 212.46 126.448 216.059C126.657 216.283 126.995 216.38 127.252 216.524C127.413 216.364 127.67 216.203 127.654 216.107C126.593 211.191 126.175 206.211 126.224 201.183C126.224 200.331 126.031 199.48 125.966 198.629C125.838 197.038 125.565 195.464 125.87 193.841C126.047 192.926 125.902 191.914 125.79 190.966C125.597 189.472 125.79 187.978 125.741 186.5C125.661 183.849 126.175 181.231 125.886 178.564C125.709 176.99 125.822 175.351 125.999 173.761C126.288 171.11 126.738 168.475 127.123 165.841C127.188 165.423 127.284 164.989 127.268 164.572C127.059 160.572 128.168 156.732 128.634 152.829C128.827 151.142 129.357 149.487 129.823 147.849C130.867 144.138 132.201 140.539 134.178 137.214C134.724 136.298 135.367 135.431 136.025 134.595C137.616 132.587 139.304 130.644 140.846 128.587C144.526 123.704 149.17 119.977 154.617 117.31C157.622 115.848 160.852 115.077 164.274 116.202C165.383 116.571 166.588 116.635 167.745 116.828C170.638 117.326 172.791 118.418 174.992 120.507C175.619 121.101 176.214 121.712 176.872 122.242C181.854 126.194 183.943 131.784 185.421 137.632C186.08 140.202 186.514 142.869 186.433 145.568C186.417 146.098 186.449 146.644 186.594 147.158C187.414 150.178 187.381 153.311 187.526 156.395C187.767 161.198 187.815 166.018 187.847 170.837C187.847 172.974 187.494 175.11 187.558 177.231C187.687 181.183 187.076 185.102 186.931 189.038C186.835 191.576 186.128 194.082 185.726 196.604C185.517 197.874 185.341 199.143 185.228 200.412C185.068 202.339 185.003 204.267 183.814 205.922C183.573 206.259 183.364 206.693 183.332 207.111C183.043 210.307 181.87 213.36 181.822 216.589C181.822 216.669 181.934 216.749 181.998 216.83C182.673 216.83 183.187 216.412 183.67 216.042C186.642 213.777 190.097 212.203 192.845 209.601C193.295 209.183 193.937 208.91 194.532 208.701C195.769 208.283 196.878 207.657 197.858 206.821C198.099 206.613 198.34 206.356 198.63 206.259C201.538 205.311 203.707 203.143 206.294 201.665C206.937 201.295 207.612 200.958 208.303 200.669C210.954 199.576 213.638 198.532 216.273 197.408C218.378 196.524 220.66 196.54 222.845 196.058C223.777 195.849 224.709 195.769 225.561 195.239C227.345 194.114 229.482 194.58 231.394 193.986C232.101 193.761 232.904 193.809 233.579 193.536C236.6 192.315 239.83 192.139 242.996 191.737C245.326 191.432 247.672 191.416 250.018 191.914C251.785 192.299 253.601 192.476 255.401 192.717C256.059 192.797 256.654 192.942 257.088 193.488L257.04 193.456L257.184 193.52ZM116.068 262.758L116.164 262.613H116.02L116.068 262.758ZM129.485 156.54L129.63 156.652L129.662 156.491L129.485 156.54Z" fill="#FFA98C"/>
<path d="M100.401 237.296C102.393 238.051 104.434 238.71 106.282 239.802C107.375 240.445 108.564 240.911 109.897 241.103C109.897 239.609 110.187 238.164 109.833 236.895C108.965 233.778 108.789 230.581 108.29 227.416C107.583 222.902 107.005 218.308 107.278 213.697C107.359 212.428 107.583 211.159 107.808 209.89C107.953 209.103 108.371 208.509 109.271 208.444C110.026 208.396 110.572 208.83 110.797 209.794C111.006 210.725 111.199 211.689 111.231 212.637C111.344 216.284 112.243 219.818 112.806 223.4C113.32 226.677 114.059 229.89 114.782 233.119C115.554 236.557 115.907 240.075 116.389 243.577C116.502 244.381 116.678 245.055 117.45 245.393C123.427 248.011 129.389 250.63 135.656 252.525C136.218 252.702 136.604 252.172 136.363 251.529C135.688 249.618 134.933 247.722 134.531 245.73C134.209 244.156 133.824 242.597 133.519 241.023C132.635 236.509 130.851 232.22 130.273 227.625C130.224 227.208 129.983 226.79 130.016 226.372C130.096 224.894 129.341 223.432 129.951 221.955C131.735 222.613 131.815 224.445 132.329 225.826C133.904 230.019 135.511 234.212 136.845 238.501C138.452 243.706 140.3 248.83 142.758 253.73C143.128 254.453 143.545 254.951 144.269 255.256C145.843 255.931 147.386 256.718 149.137 256.815C151.291 256.927 153.347 257.409 155.42 257.987C156.85 258.389 157.236 258.084 157.124 256.75C156.979 255.047 156.802 253.345 156.642 251.642C156.111 246.324 155.308 241.007 155.163 235.69C155.067 231.738 154.151 227.85 154.537 223.882C154.633 222.934 154.424 221.971 154.295 221.007C154.247 220.589 154.103 220.123 153.621 220.011C151.355 219.513 149.652 217.987 147.772 216.798C146.052 215.705 144.365 214.581 142.662 213.489C139.946 211.754 137.455 209.713 135.366 207.288C133.406 205.006 131.253 202.934 129.164 200.798C128.875 200.492 128.618 200.139 128.377 199.786C128.2 199.528 128.055 199.207 128.377 198.966C128.521 198.854 128.826 198.79 128.955 198.87C130.964 200.107 133.326 200.701 135.109 202.276C139.03 205.762 143.433 208.605 147.739 211.593C149.491 212.814 151.13 214.211 152.801 215.529C153.058 215.738 153.315 215.882 153.653 215.754C154.022 215.609 154.071 215.256 154.071 214.966C154.087 212.717 154.071 210.484 154.071 208.235C154.103 203.545 154.135 198.854 154.183 194.179C154.183 192.605 154.054 192.203 152.608 191.818C150.648 191.32 149.17 190.163 147.804 188.781C146.599 187.56 145.426 186.323 144.204 185.135C143.594 184.54 142.999 183.882 142.26 183.48C139.641 182.082 137.712 179.93 135.897 177.697C134.29 175.705 132.715 173.681 130.883 171.881C129.935 170.95 129.662 169.793 130.16 169.359C130.915 168.701 131.831 168.942 132.603 169.247C134.724 170.082 136.475 171.496 138.082 173.054C140.46 175.351 142.806 177.633 145.586 179.464C147.45 180.685 149.009 182.356 150.519 184.026C151.355 184.942 151.998 186.131 153.283 186.58C154.601 185.456 153.781 183.978 153.781 182.709C153.781 179.817 153.588 176.942 154.183 174.082C154.408 173.022 154.183 172.074 153.187 171.255C147.45 166.516 143.079 160.588 138.773 154.612C137.648 153.054 136.523 151.496 135.463 149.889C134.804 148.909 134.242 147.881 133.647 146.869C133.31 146.307 133.036 145.664 133.519 145.086C134.049 144.459 134.692 144.813 135.238 145.15C136.507 145.937 137.696 146.789 138.693 147.961C140.492 150.082 142.421 152.09 144.14 154.275C145.184 155.608 146.325 156.893 147.707 157.937C148.816 158.773 149.732 159.833 150.503 161.006C151.146 161.986 151.982 162.837 152.753 163.705C153.026 164.01 153.396 164.299 153.878 164.074C154.328 163.865 154.36 163.383 154.392 162.982C154.601 160.315 154.778 157.664 154.954 154.998C155.003 154.243 155.003 153.504 155.083 152.749C155.292 150.692 155.485 148.652 153.363 147.335C152.03 144.54 149.684 142.371 148.495 139.512C147.9 138.098 147.081 136.893 146.084 135.752C144.188 133.6 143.304 130.965 142.694 128.234C142.63 127.929 142.613 127.608 142.63 127.286C142.63 126.756 143.272 126.29 143.754 126.467C144.14 126.612 144.59 126.756 144.879 127.029C145.409 127.56 145.908 128.138 146.277 128.78C147.531 131.046 149.073 133.086 150.889 134.901C151.66 135.672 152.174 136.556 152.496 137.616C152.833 138.708 153.347 139.785 154.167 140.652C154.537 141.038 154.874 141.632 155.42 141.536C156.336 141.375 155.935 140.524 155.983 139.961C156.256 136.556 156.738 133.166 157.059 129.76C157.397 126.049 158.425 122.403 159.823 118.917C160.016 118.435 160.161 117.824 160.819 117.808C161.655 117.792 161.767 118.547 161.992 119.11C162.362 120.025 162.33 121.005 162.266 121.969C162.105 124.845 161.912 127.72 161.784 130.612C161.655 133.793 161.591 136.989 161.478 140.17C161.446 141.134 161.318 142.082 161.205 143.03C160.45 149.616 159.855 156.203 159.823 162.837C159.823 165.488 159.55 168.138 159.486 170.805C159.373 175.496 159.116 180.171 159.132 184.878C159.148 190.404 159.261 195.962 158.939 201.504C158.682 205.954 158.586 210.452 158.859 214.934C158.988 217.167 158.875 219.416 158.923 221.649C158.972 224.653 159.1 227.625 159.421 230.613C159.582 232.091 159.695 233.585 159.534 235.095C159.325 237.007 159.839 238.903 159.871 240.83C159.936 244.782 160.386 248.718 160.691 252.67C160.755 253.521 160.884 254.373 160.996 255.224C161.51 258.823 162.025 262.405 161.976 266.068C161.928 271.514 162.185 276.959 162.603 282.405C162.699 283.787 162.86 285.2 162.33 286.534C162.185 286.903 161.944 287.369 161.414 287.257C161.141 287.209 160.803 287.048 160.643 286.823C160.016 285.939 159.614 284.96 159.55 283.851C159.438 281.714 159.229 279.594 159.18 277.457C159.1 274.341 158.57 271.305 158.12 268.236C158.023 267.594 157.413 267.401 156.947 267.819C156.867 267.883 156.786 267.963 156.722 268.044C154.054 271.546 150.584 274.277 147.675 277.554C145.763 279.706 143.594 281.618 141.521 283.626C141.055 284.076 140.508 284.429 140.091 284.911C136.893 288.67 133.085 291.787 129.55 295.209C125.484 299.144 121.033 302.63 116.743 306.309C115.489 307.386 114.043 308.028 112.356 307.996C112.179 307.996 111.922 307.851 111.842 307.691C111.745 307.53 111.745 307.209 111.842 307.096C112.308 306.518 112.822 305.988 113.352 305.458C114.461 304.333 115.682 303.305 116.437 301.57C114.236 301.634 112.276 301.249 110.315 300.847C109.785 300.735 109.255 300.638 108.756 300.478C108.21 300.301 107.857 299.867 107.873 299.289C107.889 298.598 108.226 298.036 108.885 297.779C109.897 297.393 110.974 297.329 112.051 297.458C113.963 297.683 115.875 297.811 117.771 298.132C119.282 298.406 120.455 298.036 121.595 297.056C124.44 294.598 126.914 291.803 129.566 289.152C129.758 288.96 129.903 288.542 129.823 288.301C129.758 288.092 129.357 287.883 129.1 287.867C126.657 287.674 124.199 287.61 121.756 287.305C120.181 287.112 118.623 286.63 117.08 286.245C116.662 286.132 116.341 285.811 116.309 285.329C116.261 284.702 116.646 284.397 117.193 284.188C118.221 283.787 119.282 283.755 120.358 283.819C121.419 283.883 122.495 284.028 123.556 284.012C126.464 284.012 129.308 284.478 132.104 285.2C132.94 285.409 133.502 285.2 134.113 284.638C136.347 282.502 138.612 280.397 140.894 278.309C142.147 277.152 143.433 276.028 144.686 274.855C144.831 274.726 144.927 274.485 144.927 274.309C144.927 273.923 144.574 273.779 144.269 273.779C142.453 273.779 140.637 273.779 138.805 273.779C136.636 273.779 134.547 273.329 132.538 272.542C132.153 272.397 131.799 272.14 131.478 271.883C131.108 271.578 131.253 270.678 131.703 270.501C131.992 270.373 132.313 270.212 132.603 270.244C134.933 270.485 137.295 270.18 139.625 270.726C142.147 271.321 144.718 271.273 147.289 271.273C148.205 271.273 148.977 270.983 149.684 270.485C150.278 270.052 150.905 269.586 151.355 269.007C153.058 266.823 155.549 265.409 157.172 263.16C156.931 262.903 156.802 262.646 156.642 262.614C154.858 262.228 153.09 261.794 151.291 261.554C148.334 261.152 145.377 260.879 142.597 259.545C141.087 258.823 139.319 258.662 137.696 258.164C134.033 257.023 130.369 255.867 126.721 254.646C125.516 254.244 124.391 253.586 123.218 253.071C121.258 252.204 119.378 251.192 117.321 250.565C114.734 249.794 112.436 248.365 110.074 247.128C106.282 245.152 102.602 242.983 98.5689 241.537C97.4762 241.152 96.5121 240.413 95.4676 239.883C92.1574 238.164 88.9919 236.139 85.4246 234.935C81.7609 232.332 77.4705 230.79 73.7747 228.236C71.3965 226.597 68.7612 225.424 66.4152 223.689C59.6984 218.742 53.1584 213.601 47.7593 207.143C47.6308 206.982 47.5183 206.806 47.4379 206.613C47.4058 206.533 47.4058 206.356 47.454 206.324C47.6147 206.227 47.8718 206.067 47.9843 206.115C48.627 206.484 49.318 206.822 49.8482 207.32C53.3995 210.581 57.497 213.135 61.3053 216.075C61.7231 216.396 62.1891 216.685 62.6872 216.878C63.0086 217.007 63.346 216.766 63.33 216.428C63.2978 215.898 63.1854 215.368 63.0086 214.87C61.0964 209.697 60.3894 204.332 60.4376 198.838C60.4376 198.099 60.3733 197.328 60.8714 196.685C61.0964 196.396 61.7552 196.283 62.0123 196.54C62.639 197.167 62.8961 197.954 63.0729 198.822C63.7156 201.842 64.4066 204.862 65.0975 207.882C65.3064 208.814 65.5635 209.762 65.901 210.661C66.8812 213.264 67.7168 215.914 68.1667 218.677C68.4399 220.316 69.3397 221.36 70.7538 222.099C73.3087 223.432 75.8315 224.83 78.4025 226.147C79.7202 226.822 80.8289 227.947 82.3715 228.204C82.7893 228.268 83.191 228.396 83.8338 228.541C84.0587 226.806 83.5285 225.264 83.1428 223.802C81.2467 216.701 81.0539 209.472 81.1664 202.211C81.1824 201.135 81.311 200.075 81.8091 199.095C82.0019 198.725 82.3715 198.404 82.8375 198.516C83.1267 198.597 83.4642 198.79 83.5927 199.03C84.4926 200.878 84.7658 202.902 84.9907 204.926C85.4728 209.183 86.0834 213.408 87.16 217.553C87.7706 219.93 88.7026 222.228 89.3454 224.589C89.8596 226.437 90.3256 228.332 90.5184 230.244C90.663 231.754 91.37 232.573 92.6073 233.2C95.0016 234.388 97.3798 235.593 99.7419 236.814C100.015 236.959 100.224 237.232 100.465 237.441L100.288 237.312L100.433 237.344L100.401 237.296Z" fill="#E4DCCF"/>
<path d="M474.474 74.8728C462.181 73.8286 450.804 79.3388 441.227 86.5678C437.773 66.439 420.386 51.5311 400.14 49.9407C379.748 48.3503 355.115 60.2381 356.866 83.644C357.814 96.2707 365.592 106.697 374.445 115.179C366.074 122.665 358.232 131.243 352.512 140.866C347.578 149.171 344.718 159.388 349.651 168.368C361.687 190.312 386.208 166.392 395.158 153.123C402.968 174.633 425.48 187.678 448.185 182.939C458.582 180.77 468.737 175.035 467.339 163.003C466.713 157.589 464.64 151.484 461.892 146.745C461.072 145.332 460.044 144.063 458.871 143.051C476.643 143.083 494.206 134.247 500.489 116.496C507.238 97.4756 494.881 76.6078 474.49 74.8728H474.474Z" fill="#E4DCCF"/>
<path d="M432.727 96.0616C423.664 89.1217 411.099 88.704 401.859 95.5475C392.828 102.23 389.406 114.134 393.648 124.576C398.485 136.48 412.352 142.118 424.243 137.492C424.436 137.412 424.564 137.283 424.645 137.122C430.96 136.4 436.921 132.705 440.055 126.889C445.663 116.431 441.918 103.13 432.727 96.0776V96.0616Z" fill="#ED4428"/>
<path d="M411.709 134.311C409.604 133.668 407.258 135.13 406.856 137.267C406.471 139.291 407.74 141.524 409.909 141.684C411.34 141.797 412.802 140.978 413.348 139.725C413.445 139.612 413.557 139.516 413.637 139.387C414.875 137.556 413.75 134.937 411.709 134.311ZM391.173 118.937C390.289 120.929 391.543 123.162 393.326 123.596C393.969 125.491 396.138 126.809 398.227 126.022C401.586 124.752 401.843 120.415 399.465 118.118C397.183 115.901 392.619 115.676 391.173 118.937ZM412.689 113.154C411.372 114.391 411.018 116.511 412.014 118.038C412.143 118.246 412.336 118.343 412.529 118.375C412.561 118.568 412.657 118.744 412.85 118.889C414.328 119.949 416.482 119.644 417.751 118.375C419.149 116.977 418.972 114.792 417.639 113.427C416.305 112.045 414.136 111.788 412.689 113.154ZM414.907 97.9569C418.105 95.1456 417.221 90.1174 413.75 87.9487C410.15 85.6996 404.462 87.0169 402.775 91.1134C401.441 94.3424 404.06 97.8605 407.322 97.1697C409.058 99.4669 412.497 100.093 414.907 97.9569ZM430.815 109.78C432.245 108.318 432.052 105.539 430.285 104.431C428.533 103.322 425.882 104.302 425.319 106.31C425.143 106.921 425.207 107.515 425.416 108.061C425.062 108.238 424.821 108.64 425.111 109.074C426.364 110.873 429.16 111.467 430.799 109.796L430.815 109.78ZM436.969 124.254C434.736 121.732 430.14 121.957 427.81 124.254C426.942 125.106 426.348 126.68 427.585 127.516C427.746 127.628 427.907 127.692 428.083 127.74C429.738 130.552 432.743 133.652 436.134 131.612C438.592 130.134 438.801 126.311 436.969 124.254Z" fill="#FFA98C"/>
<path d="M414.598 200.912C376.375 171.433 340.937 234.844 307.375 264.759C305.214 266.692 302.22 263.698 304.134 261.52C354.373 204.493 396.955 119.124 335.024 107.321C292.442 99.212 318.764 195.134 284.122 263.49C282.909 265.896 279.252 264.589 279.82 261.955C308.209 131.003 259.486 58.1567 223.196 94.4377C187.663 129.961 248.931 167.492 260.415 259.758C260.756 262.448 257.004 263.414 255.999 260.894C195.925 109.935 96.9077 163.059 179.097 221.298C246.372 268.984 261.722 307.899 265.19 322.013C266.024 325.367 269.019 327.716 272.468 327.716C276.58 327.716 278.892 324.268 279.953 320.308C300.003 246.401 460.213 236.113 414.579 200.912H414.598Z" fill="#DEB35C"/>
<path d="M272.316 318.3C271.861 318.3 271.444 318.016 271.273 317.581C237.295 229.369 166.646 179.732 165.926 179.239C165.415 178.879 165.301 178.197 165.642 177.686C166.002 177.174 166.684 177.041 167.196 177.401C167.897 177.894 236.461 226.035 271.368 311.802C273.908 218.419 241.54 110.769 241.218 109.671C241.047 109.083 241.369 108.458 241.957 108.269C242.563 108.098 243.17 108.42 243.359 109.008C243.7 110.125 277.414 222.284 273.434 317.221C273.415 317.751 273.017 318.187 272.505 318.282C272.448 318.282 272.392 318.282 272.316 318.282V318.3Z" fill="#253E2E"/>
<path d="M272.316 318.3C272.126 318.3 271.937 318.244 271.747 318.149C271.217 317.846 271.027 317.164 271.33 316.633C311.544 245.947 334.152 128.218 334.38 127.044C334.493 126.438 335.081 126.021 335.687 126.153C336.294 126.267 336.692 126.854 336.578 127.461C336.369 128.54 317.324 227.721 283.08 298.938C329.32 236.436 397.164 216.865 397.922 216.657C398.509 216.486 399.134 216.827 399.305 217.434C399.476 218.021 399.115 218.646 398.528 218.817C397.732 219.044 318.215 242.006 273.282 317.751C273.074 318.111 272.695 318.3 272.316 318.3Z" fill="#253E2E"/>
<path d="M472.889 282.778C456.241 287.71 440.012 295.148 424.184 302.249C408.549 309.253 392.432 316.321 380.043 328.434C380.075 328.209 380.091 327.968 380.123 327.743C380.461 327.663 380.766 327.406 380.814 326.892C381.618 319.679 391.002 312.675 396.032 308.08C402.057 302.586 407.778 296.819 413.627 291.148C426.193 278.971 440.012 268.851 454.57 259.196C455.695 258.457 454.715 256.818 453.526 257.397C437.007 265.461 422.754 278.248 409.802 291.084C403.214 297.606 396.449 303.984 389.974 310.618C387.162 313.494 383.434 317.173 381.104 321.157C381.184 320.691 381.264 320.225 381.345 319.759C383.08 314.763 385.539 309.751 386.888 305.092C389.315 296.739 391.902 288.289 395.582 280.385C402.106 266.377 410.734 253.091 419.203 240.191C419.894 239.147 418.303 237.894 417.451 238.842C412.149 244.818 408.372 252.111 404.243 258.907C399.808 266.248 395.469 273.814 392.111 281.718C388.801 289.526 386.583 297.67 384.253 305.799C383.787 307.454 383.193 309.108 382.55 310.779C382.598 310.088 382.662 309.381 382.678 308.674C382.968 300.562 383.305 292.514 383.305 284.385C383.305 276.192 381.843 268.545 381.2 260.385C380.573 252.497 380.605 244.577 378.533 236.882C378.324 236.127 377.086 236.256 377.135 237.075C377.729 245.3 377.922 253.541 378.533 261.75C379.143 269.814 380.461 277.59 380.461 285.718C380.461 292.947 380.156 300.128 380.059 307.341C380.011 311.422 379.545 315.405 379.031 319.406C378.934 317.574 378.774 315.727 378.42 313.847C377.006 306.441 375.03 299.469 372.362 292.401C367.574 279.71 361.243 268.32 352.292 258.039C351.569 257.204 350.091 258.312 350.75 259.228C359.25 271.1 365.806 283.18 370.803 296.931C373.037 303.084 374.692 309.253 375.897 315.679C376.829 320.675 376.749 325.767 377.697 330.715C377.086 332.578 376.942 334.795 376.733 336.643C376.444 339.165 376.219 341.43 376.235 343.952C376.235 345.35 378.484 345.35 378.404 343.952C378.259 341.285 378.822 338.763 379.207 336.129C379.465 334.378 380.091 332.53 379.834 330.779C380.059 330.779 380.3 330.715 380.525 330.522C393.621 318.345 410.847 311.405 427.06 304.353C442.358 297.702 459.198 293.076 473.821 285.044C475.09 284.353 474.222 282.297 472.84 282.714L472.889 282.778Z" fill="#A7D4BD"/>
<path d="M488.909 280.224C488.475 276.963 485.936 274.955 483.012 273.75C477.918 271.63 469.803 274.714 469.964 281.092C470.077 285.734 474.094 288.851 478.336 289.317C478.818 289.67 479.396 289.943 480.039 290.056C482.449 290.505 484.49 289.477 485.92 287.598C487.72 285.22 489.311 283.373 488.893 280.208L488.909 280.224ZM460.451 245.734C455.502 243.758 449.862 248.015 449.364 253.043C449.107 255.742 450.039 258.826 452.031 260.706C453.14 261.75 454.313 262.344 455.55 262.666C456.964 264.063 458.668 264.947 460.869 264.32C463.553 263.549 465.288 261.268 465.577 258.553C466.043 254.119 465.192 247.629 460.451 245.734ZM426.064 226.842C421.051 225.01 413.691 228.609 414.061 234.44C414.173 236.159 415.443 238.938 417.178 240.946C417.13 241.3 417.178 241.653 417.355 241.958C418.946 244.593 422.175 245.734 425.1 244.834C426.562 244.384 427.799 243.549 428.603 242.264C429.262 241.187 430.242 240.191 430.676 238.97C431.993 235.308 430.017 228.288 426.08 226.842H426.064ZM378.886 219.661C373.374 218.842 365.115 222.279 366.095 228.946C366.642 232.689 370.37 236.432 374.258 236.882C375.688 237.412 377.183 237.75 378.934 237.589C381.553 237.364 383.9 235.019 385.185 232.834C386.503 230.601 386.197 226.553 385.217 224.239C384.092 221.605 381.666 220.095 378.886 219.677V219.661ZM350.653 248.593C346.427 243.902 338.312 246.585 335.484 251.372C332.544 256.32 335.516 265.252 341.687 266.168C344.643 266.601 347.761 265.654 349.882 263.806C350.139 263.87 350.412 263.87 350.669 263.726C352.887 262.537 352.678 259.822 352.614 257.653C352.533 254.714 352.774 250.939 350.653 248.593Z" fill="#ED4428"/>
<path d="M337.187 250.762C336.288 251.228 335.757 252.208 335.838 253.204C335.87 253.637 336.03 253.975 336.304 254.296C336.352 254.376 336.416 254.441 336.464 254.505C336.464 254.505 336.464 254.505 336.464 254.521C337.541 255.71 340.096 255.388 340.819 253.782C341.831 251.517 339.132 249.75 337.187 250.746V250.762Z" fill="#E4DCCF"/>
<path d="M378.051 220.513C377.89 220.48 377.729 220.448 377.585 220.448C376.122 220.416 374.596 221.075 374.194 222.601C373.76 224.223 374.805 225.798 376.412 226.119C377.633 226.376 379.063 226.119 380.14 225.46C381.489 224.641 382.373 222.81 381.489 221.348C380.782 220.175 379.256 219.998 378.067 220.529L378.051 220.513Z" fill="#E4DCCF"/>
<path d="M427.671 229.685C427.59 229.46 427.462 229.251 427.221 229.075C426.835 228.802 426.385 228.705 425.919 228.721C425.341 228.641 424.746 228.77 424.216 229.268C424.104 229.364 424.039 229.476 423.959 229.589C423.605 229.958 423.364 230.392 423.332 230.922C423.236 232.545 424.457 234.665 426.176 234.906C428.346 235.211 429.101 232.561 428.474 230.922C428.297 230.488 428.024 230.071 427.687 229.701L427.671 229.685Z" fill="#E4DCCF"/>
<path d="M460.194 248.095C459.873 248.063 459.535 248.159 459.262 248.465C458.298 249.573 458.764 251.212 459.744 252.192C459.792 252.497 459.824 252.786 460.017 253.123C460.226 253.477 460.596 253.573 460.965 253.509C461.142 253.477 461.271 253.429 461.415 253.332C461.576 253.236 461.672 253.075 461.721 252.915C462.637 252.802 463.408 252.095 463.376 250.907C463.327 249.461 461.785 247.501 460.21 248.095H460.194ZM461.656 250.473C461.656 250.473 461.688 250.473 461.705 250.473C461.656 250.489 461.656 250.473 461.656 250.473Z" fill="#E4DCCF"/>
<path d="M485.39 279.663C485.213 279.663 485.036 279.663 484.86 279.711C484.426 279.47 483.912 279.55 483.526 279.872C483.285 280.08 483.172 280.321 483.076 280.594C482.305 282.104 482.899 284.466 484.362 285.301C485.229 285.799 486.338 285.526 486.82 284.643C487.141 284.048 487.158 283.309 487.174 282.651C487.174 281.414 486.965 279.759 485.39 279.663Z" fill="#E4DCCF"/>
</svg>
